<svg xmlns="http://www.w3.org/2000/svg" width="130" height="114" viewBox="0 0 130 114">
    <g id="credit-card_3_" data-name="credit-card(3)" transform="translate(-525 32.261)">
        <g id="Group_107" data-name="Group 107" transform="translate(525 -32.261)">
            <path id="Path_81" data-name="Path 81"
                  d="M62.269,150.255v10.106H164.98V150.255a4.173,4.173,0,0,0-4.169-4.168H66.438A4.173,4.173,0,0,0,62.269,150.255Z"
                  transform="translate(-42.563 -107.875)" fill="none"/>
            <path id="Path_82" data-name="Path 82"
                  d="M129.071,71.917l-4.655-19.865c0-.014-.007-.028-.01-.042a4.175,4.175,0,0,0-4.975-3.166L27.272,69.3a4.174,4.174,0,0,0-3.167,4.973l4.408,20.038V83.668A11.767,11.767,0,0,1,40.269,71.917h88.8Z"
                  transform="translate(-16.421 -41.159)" fill="none"/>
            <path id="Path_83" data-name="Path 83"
                  d="M62.269,277.991v14.6a4.174,4.174,0,0,0,4.169,4.168h94.373a4.174,4.174,0,0,0,4.169-4.168V266.348H62.269Z"
                  transform="translate(-42.563 -190.345)" fill="none"/>
            <rect id="Rectangle_63" data-name="Rectangle 63" width="102.711" height="8.557"
                  transform="translate(19.706 60.007)" fill="#00efd1"/>
            <path id="Path_101" data-name="Path 101" d="M0,0,66.487-.534V8.023L4.982,6.074Z"
                  transform="translate(48.008 31.881) rotate(-14)" fill="#00acea"/>
            <path id="Path_84" data-name="Path 84"
                  d="M120.486,55.623,115.38,33.894a11.77,11.77,0,0,0-14.017-8.874L9.209,45.412A11.73,11.73,0,0,0,.28,59.383L12.095,112.93v14.092a11.749,11.749,0,0,0,11.755,11.717h94.4A11.749,11.749,0,0,0,130,127.022v-59.9A11.746,11.746,0,0,0,120.486,55.623Zm-2.241,7.345a4.168,4.168,0,0,1,4.17,4.156V77.2H19.679V67.123a4.168,4.168,0,0,1,4.17-4.156Zm4.17,30.325H19.679V84.76H122.416ZM12.095,67.123V77.731L7.687,57.752a4.161,4.161,0,0,1,3.167-4.959L103.007,32.4a4.175,4.175,0,0,1,4.974,3.157c0,.014.006.028.01.042l4.655,19.807h-88.8A11.75,11.75,0,0,0,12.095,67.123Zm110.321,59.9a4.168,4.168,0,0,1-4.17,4.156h-94.4a4.168,4.168,0,0,1-4.17-4.156V100.853H122.416Z"
                  transform="translate(0 -24.739)" fill="#3d6889"/>
        </g>
    </g>
</svg>
