<svg xmlns="http://www.w3.org/2000/svg" width="195.27" height="123"
     viewBox="0 0 195.27 123">
    <defs>
        <radialGradient id="radial-gradient" cx="0.5" cy="0.5" r="0.5" gradientTransform="matrix(-1, 0, 0, 1, 1, 0)"
                        gradientUnits="objectBoundingBox">
            <stop offset="0" stop-color="#54c5d0" stop-opacity="0.741"/>
            <stop offset="1" stop-color="#fff"/>
        </radialGradient>
    </defs>
    <g id="Group_5895" data-name="Group 5895" transform="translate(-40 -1475)">
        <ellipse id="Ellipse_1206" data-name="Ellipse 1206" cx="83.5" cy="42" rx="83.5" ry="42"
                 transform="translate(40 1514)" opacity="0.83" fill="url(#radial-gradient)"/>
        <g id="illustration" transform="translate(45.712 1448.647)">
            <g id="Group_5823" data-name="Group 5823" transform="translate(6.543 26.353)">
                <g id="Group_5822" data-name="Group 5822" transform="translate(0 0)">
                    <g id="Group_5788" data-name="Group 5788" transform="translate(0.005 3.175)">
                        <path id="Path_12357" data-name="Path 12357"
                              d="M426.664,118.54l3.639.325,27.784-16.041a4.935,4.935,0,0,1,4.44.184l38.392,22.166.787.07h3.259v3.009l0,0a1.281,1.281,0,0,1-.758,1.193l-30.66,17.7a4.932,4.932,0,0,1-4.439-.184l-41.358-23.877a1.875,1.875,0,0,1-1.076-1.373h0Z"
                              transform="translate(-426.337 -102.05)" fill="#002292"/>
                        <path id="Path_12358" data-name="Path 12358"
                              d="M471.393,147.706a4.252,4.252,0,0,0,2.1-.492l30.66-17.7a1.658,1.658,0,0,0,.92-1.273l0-.03c0-.037,0-.075,0-.113v-3.4H501.49l-.686-.063-38.329-22.13a5.22,5.22,0,0,0-4.766-.184l-27.694,15.989-3.893-.348V121.8l.054,0a2.386,2.386,0,0,0,1.191,1.348l41.357,23.877A5.464,5.464,0,0,0,471.393,147.706Zm33.029-19.873-.016.008.013.222a1,1,0,0,1-.6.885l-30.66,17.7a4.651,4.651,0,0,1-4.112-.184l-41.357-23.878a1.6,1.6,0,0,1-.914-1.114l0-.049v-2.746l3.387.3,27.873-16.092a4.655,4.655,0,0,1,4.112.184l38.455,22.2.858.076,2.962,0Z"
                              transform="translate(-426.121 -101.831)" fill="#140f0c"/>
                    </g>
                    <g id="Group_5789" data-name="Group 5789">
                        <path id="Path_12359" data-name="Path 12359"
                              d="M473.538,141.879l30.66-17.7c1.138-.657,1-1.8-.319-2.563L462.522,97.736a4.935,4.935,0,0,0-4.44-.184l-30.66,17.7c-1.138.657-1,1.8.319,2.563L469.1,141.694A4.932,4.932,0,0,0,473.538,141.879Z"
                              transform="translate(-426.327 -96.778)" fill="#54c5d0"/>
                        <path id="Path_12360" data-name="Path 12360"
                              d="M462.9,100.863l41.357,23.878a2.964,2.964,0,0,1,.519.383,1.962,1.962,0,0,1-.2.146l-30.66,17.7a4.932,4.932,0,0,1-4.439-.184l-41.357-23.877a2.958,2.958,0,0,1-.519-.383,1.883,1.883,0,0,1,.2-.146l30.66-17.7A4.934,4.934,0,0,1,462.9,100.863Z"
                              transform="translate(-426.703 -98.021)" fill="#fdeccc"/>
                        <path id="Path_12361" data-name="Path 12361"
                              d="M471.39,142.434a4.253,4.253,0,0,0,2.1-.491l30.66-17.7a1.638,1.638,0,0,0,.932-1.4,2.145,2.145,0,0,0-1.25-1.734L462.471,97.235a5.224,5.224,0,0,0-4.766-.184l-30.66,17.7a1.637,1.637,0,0,0-.932,1.4,2.144,2.144,0,0,0,1.25,1.734l41.357,23.877A5.464,5.464,0,0,0,471.39,142.434Zm-11.6-45.213a4.865,4.865,0,0,1,2.353.579L503.5,121.679c.587.339.924.764.924,1.167a1.037,1.037,0,0,1-.605.83l-30.66,17.7a4.656,4.656,0,0,1-4.112-.184L427.69,117.315c-.587-.339-.924-.764-.924-1.166a1.035,1.035,0,0,1,.605-.83l30.66-17.7A3.6,3.6,0,0,1,459.79,97.221Z"
                              transform="translate(-426.112 -96.56)" fill="#140f0c"/>
                    </g>
                    <g id="Group_5790" data-name="Group 5790" transform="translate(7.294 4.159)">
                        <path id="Path_12362" data-name="Path 12362"
                              d="M494.527,126.489l27.229-15.721c.428-.248.375-.679-.12-.965l-5.32-3.072a1.86,1.86,0,0,0-1.672-.069l-27.229,15.721c-.428.247-.375.679.12.964l5.321,3.072A1.858,1.858,0,0,0,494.527,126.489Z"
                              transform="translate(-487.126 -104.669)" fill="#54c5d0"/>
                        <path id="Path_12363" data-name="Path 12363"
                              d="M492.837,124.276a1.8,1.8,0,0,0,.891-.21l27.23-15.72a.822.822,0,0,0,.452-.7,1,1,0,0,0-.572-.829l-5.321-3.072a2.188,2.188,0,0,0-2-.07l-27.229,15.721a.822.822,0,0,0-.452.7,1,1,0,0,0,.572.829L491.73,124A2.26,2.26,0,0,0,492.837,124.276Zm21.567-20.16a1.634,1.634,0,0,1,.786.192l5.321,3.072c.169.1.245.2.245.263,0,.039-.048.091-.125.136L493.4,123.5a1.55,1.55,0,0,1-1.344-.069l-5.321-3.072c-.169-.1-.245-.2-.245-.263,0-.039.048-.091.125-.136l27.229-15.721A1.148,1.148,0,0,1,514.4,104.117Z"
                              transform="translate(-485.714 -103.464)" fill="#140f0c"/>
                    </g>
                    <g id="Group_5795" data-name="Group 5795" transform="translate(17.412 9.998)">
                        <g id="Group_5791" data-name="Group 5791" transform="translate(23.224)">
                            <path id="Path_12364" data-name="Path 12364"
                                  d="M478.573,121.409l5.052-2.917c.139-.08.122-.22-.039-.313l-3.308-1.909a.6.6,0,0,0-.543-.023l-5.052,2.917c-.139.08-.122.22.039.313l3.308,1.909A.6.6,0,0,0,478.573,121.409Z"
                                  transform="translate(-474.59 -114.365)" fill="#54c5d0"/>
                            <path id="Path_12365" data-name="Path 12365"
                                  d="M477.374,119.083a.808.808,0,0,0,.4-.1h0l5.052-2.917a.483.483,0,0,0,.257-.42.538.538,0,0,0-.3-.46l-3.307-1.909a.922.922,0,0,0-.869-.023l-5.052,2.917a.482.482,0,0,0-.258.42.539.539,0,0,0,.3.46l3.308,1.909A.951.951,0,0,0,477.374,119.083Zm.075-.665a.3.3,0,0,1-.216-.022l-3.108-1.794,4.814-2.779a.3.3,0,0,1,.216.023l3.108,1.794Z"
                                  transform="translate(-473.178 -113.158)" fill="#140f0c"/>
                        </g>
                        <g id="Group_5792" data-name="Group 5792" transform="translate(15.467 4.479)">
                            <path id="Path_12366" data-name="Path 12366"
                                  d="M491.452,128.845l5.052-2.917c.139-.08.122-.22-.039-.313l-3.307-1.909a.605.605,0,0,0-.543-.023l-5.052,2.917c-.139.08-.122.22.039.313l3.307,1.91A.605.605,0,0,0,491.452,128.845Z"
                                  transform="translate(-487.469 -121.801)" fill="#54c5d0"/>
                            <path id="Path_12367" data-name="Path 12367"
                                  d="M490.251,126.52a.805.805,0,0,0,.4-.1h0L495.7,123.5a.481.481,0,0,0,.258-.419.54.54,0,0,0-.3-.461l-3.309-1.909a.924.924,0,0,0-.869-.023l-5.053,2.917a.483.483,0,0,0-.257.419.538.538,0,0,0,.3.461l3.307,1.909A.951.951,0,0,0,490.251,126.52Zm.075-.665a.307.307,0,0,1-.216-.022L487,124.039l4.813-2.779a.3.3,0,0,1,.215.022l3.109,1.794Z"
                                  transform="translate(-486.056 -120.595)" fill="#140f0c"/>
                        </g>
                        <g id="Group_5793" data-name="Group 5793" transform="translate(7.813 8.899)">
                            <path id="Path_12368" data-name="Path 12368"
                                  d="M504.157,136.18l5.053-2.917c.139-.081.122-.221-.039-.314l-3.308-1.909a.6.6,0,0,0-.543-.022l-5.052,2.917c-.139.081-.122.22.039.314l3.307,1.909A.6.6,0,0,0,504.157,136.18Z"
                                  transform="translate(-500.174 -129.137)" fill="#54c5d0"/>
                            <path id="Path_12369" data-name="Path 12369"
                                  d="M502.958,133.855a.809.809,0,0,0,.4-.1l5.052-2.917a.481.481,0,0,0,.257-.419.537.537,0,0,0-.3-.461l-3.307-1.91a.931.931,0,0,0-.87-.022l-5.052,2.917a.48.48,0,0,0-.258.419.539.539,0,0,0,.3.461l3.307,1.909A.949.949,0,0,0,502.958,133.855Zm.075-.664a.313.313,0,0,1-.218-.023l-3.106-1.794,4.813-2.779a.314.314,0,0,1,.217.022l3.106,1.794Z"
                                  transform="translate(-498.762 -127.931)" fill="#140f0c"/>
                        </g>
                        <g id="Group_5794" data-name="Group 5794" transform="translate(0 13.409)">
                            <path id="Path_12370" data-name="Path 12370"
                                  d="M517.13,143.669l5.052-2.917c.139-.081.122-.221-.039-.314l-3.307-1.909a.6.6,0,0,0-.543-.022l-5.052,2.917c-.139.081-.122.221.039.314l3.308,1.909A.6.6,0,0,0,517.13,143.669Z"
                                  transform="translate(-513.146 -136.626)" fill="#54c5d0"/>
                            <path id="Path_12371" data-name="Path 12371"
                                  d="M515.93,141.345a.809.809,0,0,0,.4-.1h0l5.052-2.917a.484.484,0,0,0,.257-.42.539.539,0,0,0-.3-.461l-3.307-1.909a.925.925,0,0,0-.87-.022l-5.053,2.917a.481.481,0,0,0-.258.419.54.54,0,0,0,.3.461l3.309,1.909A.943.943,0,0,0,515.93,141.345Zm.075-.665a.306.306,0,0,1-.216-.022l-3.109-1.794,4.815-2.779a.3.3,0,0,1,.216.022l3.108,1.794Z"
                                  transform="translate(-511.735 -135.42)" fill="#140f0c"/>
                        </g>
                    </g>
                    <g id="Group_5796" data-name="Group 5796" transform="translate(46.359 13.303)">
                        <path id="Path_12372" data-name="Path 12372"
                              d="M469.072,126.894l5.052-2.917c.139-.08.122-.22-.039-.313l-3.307-1.909a.605.605,0,0,0-.543-.023l-5.052,2.917c-.139.08-.122.22.039.313l3.307,1.909A.605.605,0,0,0,469.072,126.894Z"
                              transform="translate(-465.089 -119.85)" fill="#54c5d0"/>
                        <path id="Path_12373" data-name="Path 12373"
                              d="M467.871,124.569a.8.8,0,0,0,.4-.1l5.052-2.917a.481.481,0,0,0,.258-.419.54.54,0,0,0-.3-.461l-3.308-1.909a.925.925,0,0,0-.87-.022l-5.052,2.917a.483.483,0,0,0-.257.42.538.538,0,0,0,.3.461l3.306,1.909A.953.953,0,0,0,467.871,124.569Zm.075-.665a.3.3,0,0,1-.217-.022l-3.106-1.794,4.813-2.779a.31.31,0,0,1,.216.023l3.108,1.794Z"
                              transform="translate(-463.676 -118.644)" fill="#140f0c"/>
                    </g>
                    <g id="Group_5797" data-name="Group 5797" transform="translate(38.601 17.782)">
                        <path id="Path_12374" data-name="Path 12374"
                              d="M481.951,134.33,487,131.413c.139-.08.122-.22-.039-.313l-3.308-1.909a.6.6,0,0,0-.543-.023l-5.052,2.917c-.14.08-.122.22.039.313l3.307,1.909A.6.6,0,0,0,481.951,134.33Z"
                              transform="translate(-477.968 -127.287)" fill="#54c5d0"/>
                        <path id="Path_12375" data-name="Path 12375"
                              d="M480.752,132.006a.8.8,0,0,0,.4-.1l5.052-2.917a.481.481,0,0,0,.257-.419.537.537,0,0,0-.3-.461l-3.306-1.909a.93.93,0,0,0-.87-.022l-5.052,2.917a.481.481,0,0,0-.258.419.539.539,0,0,0,.3.461l3.308,1.909A.948.948,0,0,0,480.752,132.006Zm.075-.666a.309.309,0,0,1-.217-.022l-3.107-1.794,4.813-2.779a.31.31,0,0,1,.217.023l3.106,1.794Z"
                              transform="translate(-476.556 -126.081)" fill="#140f0c"/>
                    </g>
                    <g id="Group_5798" data-name="Group 5798" transform="translate(30.948 22.2)">
                        <path id="Path_12376" data-name="Path 12376"
                              d="M494.657,141.665l5.052-2.917c.139-.081.122-.221-.039-.314l-3.307-1.909a.6.6,0,0,0-.543-.022l-5.052,2.917c-.139.081-.122.221.039.314l3.307,1.909A.6.6,0,0,0,494.657,141.665Z"
                              transform="translate(-490.674 -134.621)" fill="#54c5d0"/>
                        <path id="Path_12377" data-name="Path 12377"
                              d="M493.458,139.34a.808.808,0,0,0,.4-.1h0l5.052-2.917a.482.482,0,0,0,.257-.42.537.537,0,0,0-.3-.46l-3.307-1.909a.921.921,0,0,0-.869-.023l-5.053,2.917a.48.48,0,0,0-.257.419.539.539,0,0,0,.3.461l3.308,1.91A.949.949,0,0,0,493.458,139.34Zm.075-.665a.309.309,0,0,1-.216-.022l-3.109-1.794,4.815-2.779a.3.3,0,0,1,.216.022l3.108,1.794Z"
                              transform="translate(-489.262 -133.415)" fill="#140f0c"/>
                    </g>
                    <g id="Group_5799" data-name="Group 5799" transform="translate(23.134 26.711)">
                        <path id="Path_12378" data-name="Path 12378"
                              d="M507.628,149.154l5.052-2.917c.139-.08.122-.22-.039-.313l-3.307-1.909a.6.6,0,0,0-.543-.023l-5.053,2.917c-.139.08-.122.22.039.313l3.308,1.909A.6.6,0,0,0,507.628,149.154Z"
                              transform="translate(-503.645 -142.111)" fill="#54c5d0"/>
                        <path id="Path_12379" data-name="Path 12379"
                              d="M506.428,146.83a.81.81,0,0,0,.4-.1l5.052-2.917a.482.482,0,0,0,.258-.42.538.538,0,0,0-.3-.46l-3.307-1.909a.923.923,0,0,0-.87-.022l-5.052,2.917a.481.481,0,0,0-.257.419.537.537,0,0,0,.3.461l3.306,1.909A.953.953,0,0,0,506.428,146.83Zm.075-.665a.3.3,0,0,1-.217-.022l-3.106-1.794,4.813-2.779a.308.308,0,0,1,.216.023l3.107,1.794Z"
                              transform="translate(-502.233 -140.905)" fill="#140f0c"/>
                    </g>
                    <g id="Group_5805" data-name="Group 5805" transform="translate(28.912 16.575)">
                        <g id="Group_5801" data-name="Group 5801" transform="translate(23.225)">
                            <path id="Path_12380" data-name="Path 12380"
                                  d="M459.479,132.326l5.052-2.917c.139-.08.122-.22-.039-.313l-3.307-1.909a.6.6,0,0,0-.543-.022l-5.052,2.917c-.139.08-.122.22.039.313l3.307,1.909A.605.605,0,0,0,459.479,132.326Z"
                                  transform="translate(-455.496 -125.282)" fill="#54c5d0"/>
                            <path id="Path_12381" data-name="Path 12381"
                                  d="M458.28,130a.8.8,0,0,0,.4-.1l5.052-2.917a.481.481,0,0,0,.257-.419.537.537,0,0,0-.3-.461l-3.306-1.909a.926.926,0,0,0-.87-.022l-5.052,2.917a.481.481,0,0,0-.258.419.54.54,0,0,0,.3.461l3.308,1.909A.95.95,0,0,0,458.28,130Zm.075-.666a.3.3,0,0,1-.216-.022l-3.108-1.794,4.814-2.779a.308.308,0,0,1,.216.023l3.107,1.794Z"
                                  transform="translate(-454.085 -124.076)" fill="#140f0c"/>
                        </g>
                        <g id="Group_5802" data-name="Group 5802" transform="translate(15.467 4.479)">
                            <path id="Path_12382" data-name="Path 12382"
                                  d="M472.358,139.762l5.053-2.917c.139-.08.122-.22-.039-.313l-3.308-1.909a.6.6,0,0,0-.543-.023l-5.052,2.917c-.139.08-.122.22.039.313l3.307,1.909A.6.6,0,0,0,472.358,139.762Z"
                                  transform="translate(-468.375 -132.718)" fill="#54c5d0"/>
                            <path id="Path_12383" data-name="Path 12383"
                                  d="M471.158,137.437a.808.808,0,0,0,.4-.1l5.052-2.917a.482.482,0,0,0,.258-.419.537.537,0,0,0-.3-.461l-3.307-1.909a.923.923,0,0,0-.87-.022l-5.052,2.917a.482.482,0,0,0-.257.42.537.537,0,0,0,.3.46l3.306,1.909A.949.949,0,0,0,471.158,137.437Zm.075-.666a.308.308,0,0,1-.217-.022l-3.108-1.794,4.813-2.779a.307.307,0,0,1,.217.023l3.106,1.794Z"
                                  transform="translate(-466.963 -131.512)" fill="#140f0c"/>
                        </g>
                        <g id="Group_5803" data-name="Group 5803" transform="translate(7.814 8.897)">
                            <path id="Path_12384" data-name="Path 12384"
                                  d="M481.269,150.359l5.015-2.895a.165.165,0,0,0,0-.313l-9.126-5.2a.6.6,0,0,0-.542,0l-5.014,2.895a.165.165,0,0,0,0,.313l9.126,5.2A.6.6,0,0,0,481.269,150.359Z"
                                  transform="translate(-471.489 -140.054)" fill="#54c5d0"/>
                            <path id="Path_12385" data-name="Path 12385"
                                  d="M480.034,148.044a.876.876,0,0,0,.435-.109l5.014-2.895a.488.488,0,0,0,0-.879l-9.126-5.206a.92.92,0,0,0-.867,0l-5.015,2.895a.489.489,0,0,0,0,.879l9.127,5.206A.879.879,0,0,0,480.034,148.044Zm.108-.675a.287.287,0,0,1-.214,0l-8.905-5.079,4.794-2.767a.288.288,0,0,1,.215,0l8.9,5.078Z"
                                  transform="translate(-470.076 -138.847)" fill="#140f0c"/>
                        </g>
                        <g id="Group_5804" data-name="Group 5804" transform="translate(0 13.409)">
                            <path id="Path_12386" data-name="Path 12386"
                                  d="M498.035,154.586l5.052-2.917c.139-.08.122-.22-.039-.313l-3.307-1.91a.6.6,0,0,0-.543-.023l-5.053,2.917c-.139.081-.122.221.039.314l3.307,1.909A.6.6,0,0,0,498.035,154.586Z"
                                  transform="translate(-494.052 -147.543)" fill="#54c5d0"/>
                            <path id="Path_12387" data-name="Path 12387"
                                  d="M496.836,152.262a.809.809,0,0,0,.4-.1l5.053-2.917a.482.482,0,0,0,.257-.419.539.539,0,0,0-.3-.461l-3.308-1.909a.923.923,0,0,0-.87-.022l-5.052,2.917a.481.481,0,0,0-.258.419.538.538,0,0,0,.3.461l3.307,1.909A.953.953,0,0,0,496.836,152.262Zm.075-.665a.3.3,0,0,1-.217-.022l-3.107-1.794L498.4,147a.3.3,0,0,1,.216.022l3.108,1.794Z"
                                  transform="translate(-492.64 -146.337)" fill="#140f0c"/>
                        </g>
                    </g>
                    <g id="Group_5809" data-name="Group 5809" transform="translate(34.635 19.878)">
                        <g id="Group_5806" data-name="Group 5806" transform="translate(23.225)">
                            <path id="Path_12388" data-name="Path 12388"
                                  d="M449.978,137.811l5.053-2.917c.139-.081.122-.221-.039-.314l-3.308-1.909a.6.6,0,0,0-.543-.022l-5.052,2.917c-.139.08-.122.221.039.314l3.307,1.909A.6.6,0,0,0,449.978,137.811Z"
                                  transform="translate(-445.995 -130.767)" fill="#54c5d0"/>
                            <path id="Path_12389" data-name="Path 12389"
                                  d="M448.778,135.486a.805.805,0,0,0,.4-.1h0l5.052-2.917a.481.481,0,0,0,.258-.419.539.539,0,0,0-.3-.461l-3.308-1.909a.919.919,0,0,0-.869-.023l-5.052,2.917a.484.484,0,0,0-.257.42.537.537,0,0,0,.3.46l3.307,1.909A.951.951,0,0,0,448.778,135.486Zm.075-.665a.307.307,0,0,1-.216-.022L445.529,133l4.813-2.779a.311.311,0,0,1,.216.023l3.108,1.794Z"
                                  transform="translate(-444.583 -129.561)" fill="#140f0c"/>
                        </g>
                        <g id="Group_5807" data-name="Group 5807" transform="translate(15.467 4.48)">
                            <path id="Path_12390" data-name="Path 12390"
                                  d="M462.858,145.247l5.052-2.917c.139-.081.122-.221-.039-.314l-3.308-1.91a.6.6,0,0,0-.543-.022L458.969,143c-.139.081-.122.22.039.314l3.308,1.909A.6.6,0,0,0,462.858,145.247Z"
                                  transform="translate(-458.875 -138.203)" fill="#54c5d0"/>
                            <path id="Path_12391" data-name="Path 12391"
                                  d="M461.658,142.922a.807.807,0,0,0,.4-.1h0l5.053-2.917a.483.483,0,0,0,.257-.419.54.54,0,0,0-.3-.46l-3.308-1.909a.922.922,0,0,0-.869-.023l-5.052,2.917a.483.483,0,0,0-.258.42.539.539,0,0,0,.3.46l3.307,1.909A.952.952,0,0,0,461.658,142.922Zm.075-.665a.308.308,0,0,1-.217-.022l-3.108-1.794,4.814-2.779a.3.3,0,0,1,.215.022l3.109,1.794Z"
                                  transform="translate(-457.462 -136.997)" fill="#140f0c"/>
                        </g>
                        <g id="Group_5808" data-name="Group 5808" transform="translate(0 13.409)">
                            <path id="Path_12392" data-name="Path 12392"
                                  d="M488.535,160.072l5.052-2.917c.139-.08.122-.22-.039-.313l-3.307-1.909a.605.605,0,0,0-.543-.023l-5.052,2.917c-.139.08-.122.22.039.313l3.307,1.909A.605.605,0,0,0,488.535,160.072Z"
                                  transform="translate(-484.552 -153.028)" fill="#54c5d0"/>
                            <path id="Path_12393" data-name="Path 12393"
                                  d="M487.335,157.747a.808.808,0,0,0,.4-.1h0l5.052-2.917a.482.482,0,0,0,.258-.419.539.539,0,0,0-.3-.461l-3.307-1.909a.925.925,0,0,0-.87-.022l-5.053,2.917a.482.482,0,0,0-.257.419.54.54,0,0,0,.3.461l3.308,1.909A.949.949,0,0,0,487.335,157.747Zm.075-.664a.316.316,0,0,1-.216-.022l-3.109-1.794,4.814-2.779a.3.3,0,0,1,.216.023l3.108,1.794Z"
                                  transform="translate(-483.139 -151.822)" fill="#140f0c"/>
                        </g>
                    </g>
                    <g id="Group_5814" data-name="Group 5814" transform="translate(40.414 23.15)">
                        <g id="Group_5810" data-name="Group 5810" transform="translate(23.224 0)">
                            <path id="Path_12394" data-name="Path 12394"
                                  d="M440.385,143.243l5.052-2.917c.139-.081.122-.221-.039-.314l-3.308-1.909a.6.6,0,0,0-.543-.022L436.5,141c-.14.081-.122.22.039.314l3.307,1.909A.6.6,0,0,0,440.385,143.243Z"
                                  transform="translate(-436.402 -136.199)" fill="#54c5d0"/>
                            <path id="Path_12395" data-name="Path 12395"
                                  d="M439.186,140.918a.809.809,0,0,0,.4-.1l5.052-2.917a.481.481,0,0,0,.257-.419.539.539,0,0,0-.3-.461l-3.308-1.909a.92.92,0,0,0-.869-.023l-5.053,2.917a.482.482,0,0,0-.257.42.537.537,0,0,0,.3.46l3.307,1.909A.954.954,0,0,0,439.186,140.918Zm.074-.665a.3.3,0,0,1-.216-.022l-3.108-1.794,4.814-2.779a.3.3,0,0,1,.215.022l3.109,1.794Z"
                                  transform="translate(-434.99 -134.993)" fill="#140f0c"/>
                        </g>
                        <g id="Group_5811" data-name="Group 5811" transform="translate(15.467 4.479)">
                            <path id="Path_12396" data-name="Path 12396"
                                  d="M453.265,150.679l5.052-2.917c.139-.08.122-.22-.039-.313l-3.308-1.909a.6.6,0,0,0-.543-.022l-5.052,2.917c-.139.081-.122.221.039.314l3.307,1.909A.605.605,0,0,0,453.265,150.679Z"
                                  transform="translate(-449.282 -143.636)" fill="#54c5d0"/>
                            <path id="Path_12397" data-name="Path 12397"
                                  d="M452.065,148.354a.8.8,0,0,0,.4-.1h0l5.052-2.917a.481.481,0,0,0,.258-.419.539.539,0,0,0-.3-.461l-3.308-1.909a.923.923,0,0,0-.87-.023l-5.053,2.917a.483.483,0,0,0-.257.419.54.54,0,0,0,.3.461l3.308,1.909A.954.954,0,0,0,452.065,148.354Zm.075-.665a.314.314,0,0,1-.218-.022l-3.107-1.794,4.813-2.779a.31.31,0,0,1,.217.023l3.108,1.794Z"
                                  transform="translate(-447.869 -142.429)" fill="#140f0c"/>
                        </g>
                        <g id="Group_5812" data-name="Group 5812" transform="translate(7.814 8.898)">
                            <path id="Path_12398" data-name="Path 12398"
                                  d="M465.97,158.014l5.053-2.917c.139-.08.122-.221-.039-.313l-3.308-1.909a.6.6,0,0,0-.543-.023l-5.052,2.917c-.139.08-.122.22.039.313l3.307,1.909A.6.6,0,0,0,465.97,158.014Z"
                                  transform="translate(-461.987 -150.971)" fill="#54c5d0"/>
                            <path id="Path_12399" data-name="Path 12399"
                                  d="M464.771,155.69a.81.81,0,0,0,.4-.1l5.052-2.917a.483.483,0,0,0,.257-.419.537.537,0,0,0-.3-.461l-3.306-1.909a.927.927,0,0,0-.871-.022l-5.052,2.917a.481.481,0,0,0-.258.419.539.539,0,0,0,.3.461l3.308,1.909A.947.947,0,0,0,464.771,155.69Zm.075-.665a.306.306,0,0,1-.217-.022l-3.108-1.794,4.814-2.779a.3.3,0,0,1,.216.023l3.106,1.794Z"
                                  transform="translate(-460.576 -149.765)" fill="#140f0c"/>
                        </g>
                        <g id="Group_5813" data-name="Group 5813" transform="translate(0 13.409)">
                            <path id="Path_12400" data-name="Path 12400"
                                  d="M478.942,165.5l5.052-2.917c.139-.08.122-.22-.039-.313l-3.307-1.909a.605.605,0,0,0-.543-.023l-5.052,2.917c-.139.08-.122.22.039.313l3.307,1.909A.605.605,0,0,0,478.942,165.5Z"
                                  transform="translate(-474.959 -158.46)" fill="#54c5d0"/>
                            <path id="Path_12401" data-name="Path 12401"
                                  d="M477.743,163.179a.8.8,0,0,0,.4-.1l5.052-2.916a.483.483,0,0,0,.257-.42.538.538,0,0,0-.3-.46l-3.307-1.909a.92.92,0,0,0-.869-.022l-5.053,2.917a.478.478,0,0,0-.257.419.538.538,0,0,0,.3.46l3.306,1.909A.943.943,0,0,0,477.743,163.179Zm.075-.665a.313.313,0,0,1-.216-.022l-3.108-1.8,4.813-2.779a.306.306,0,0,1,.216.023l3.108,1.794Z"
                                  transform="translate(-473.547 -157.253)" fill="#140f0c"/>
                        </g>
                    </g>
                    <g id="Group_5815" data-name="Group 5815" transform="translate(31.772 6.382)">
                        <path id="Path_12402" data-name="Path 12402"
                              d="M497.389,111.475l1.929-1.114c.25-.145.219-.4-.07-.563l-3.4-1.964a1.084,1.084,0,0,0-.974-.04l-1.929,1.114c-.25.144-.219.4.07.562l3.4,1.964A1.084,1.084,0,0,0,497.389,111.475Z"
                              transform="translate(-492.449 -107.371)" fill="#54c5d0"/>
                        <path id="Path_12403" data-name="Path 12403"
                              d="M496.748,111.684a1.183,1.183,0,0,0,.588-.142l1.93-1.114a.611.611,0,0,0,.332-.528.713.713,0,0,0-.4-.6l-3.4-1.964a1.4,1.4,0,0,0-1.3-.04l-1.929,1.114a.611.611,0,0,0-.332.527.714.714,0,0,0,.4.6l3.4,1.964A1.449,1.449,0,0,0,496.748,111.684Zm2.149-1.8-1.888,1.093a.77.77,0,0,1-.646-.041l-3.4-1.964-.028-.017,1.887-1.093a.769.769,0,0,1,.647.04l3.4,1.964Z"
                              transform="translate(-492.233 -107.155)" fill="#140f0c"/>
                    </g>
                    <g id="Group_5816" data-name="Group 5816" transform="translate(27.661 8.756)">
                        <path id="Path_12404" data-name="Path 12404"
                              d="M504.215,115.416l1.929-1.114c.25-.145.219-.4-.07-.563l-3.4-1.964a1.084,1.084,0,0,0-.974-.04l-1.929,1.114c-.25.144-.219.4.07.562l3.4,1.964A1.084,1.084,0,0,0,504.215,115.416Z"
                              transform="translate(-499.276 -111.312)" fill="#54c5d0"/>
                        <path id="Path_12405" data-name="Path 12405"
                              d="M503.574,115.625a1.192,1.192,0,0,0,.589-.142l1.929-1.114a.611.611,0,0,0,.332-.528.714.714,0,0,0-.4-.6l-3.4-1.964a1.406,1.406,0,0,0-1.3-.04l-1.93,1.114a.612.612,0,0,0-.331.528.712.712,0,0,0,.4.6l3.4,1.964A1.448,1.448,0,0,0,503.574,115.625Zm2.149-1.8-1.887,1.093a.772.772,0,0,1-.647-.04l-3.4-1.964-.028-.017,1.888-1.093a.77.77,0,0,1,.647.041l3.4,1.963Z"
                              transform="translate(-499.059 -111.096)" fill="#140f0c"/>
                    </g>
                    <g id="Group_5817" data-name="Group 5817" transform="translate(23.549 11.13)">
                        <path id="Path_12406" data-name="Path 12406"
                              d="M511.041,119.357l1.93-1.114c.249-.144.218-.4-.07-.562l-3.4-1.964a1.084,1.084,0,0,0-.974-.04l-1.929,1.114c-.249.144-.218.4.07.562l3.4,1.964A1.084,1.084,0,0,0,511.041,119.357Z"
                              transform="translate(-506.1 -115.253)" fill="#54c5d0"/>
                        <path id="Path_12407" data-name="Path 12407"
                              d="M510.4,119.566a1.187,1.187,0,0,0,.588-.141l1.931-1.114a.613.613,0,0,0,.331-.528.716.716,0,0,0-.4-.6l-3.4-1.963a1.4,1.4,0,0,0-1.3-.04l-1.929,1.114a.612.612,0,0,0-.333.527.714.714,0,0,0,.4.6l3.4,1.964A1.453,1.453,0,0,0,510.4,119.566Zm.261-.707a.779.779,0,0,1-.647-.04l-3.4-1.964-.027-.017,1.887-1.093a.772.772,0,0,1,.647.04l3.4,1.964.028.017Z"
                              transform="translate(-505.885 -115.037)" fill="#140f0c"/>
                    </g>
                    <g id="Group_5818" data-name="Group 5818" transform="translate(19.437 13.504)">
                        <path id="Path_12408" data-name="Path 12408"
                              d="M517.867,123.3l1.93-1.114c.249-.144.218-.4-.07-.562l-3.4-1.964a1.084,1.084,0,0,0-.974-.04l-1.93,1.114c-.249.145-.218.4.07.563l3.4,1.964A1.082,1.082,0,0,0,517.867,123.3Z"
                              transform="translate(-512.926 -119.194)" fill="#54c5d0"/>
                        <path id="Path_12409" data-name="Path 12409"
                              d="M517.225,123.507a1.192,1.192,0,0,0,.589-.141l1.929-1.114a.612.612,0,0,0,.332-.527.714.714,0,0,0-.4-.6l-3.4-1.964a1.4,1.4,0,0,0-1.3-.04l-1.931,1.114a.612.612,0,0,0-.332.528.714.714,0,0,0,.4.6l3.4,1.964A1.448,1.448,0,0,0,517.225,123.507Zm.262-.707a.772.772,0,0,1-.647-.04l-3.4-1.964-.028-.017,1.888-1.093a.768.768,0,0,1,.646.04l3.4,1.964.027.017Z"
                              transform="translate(-512.71 -118.978)" fill="#140f0c"/>
                    </g>
                    <g id="Group_5819" data-name="Group 5819" transform="translate(15.326 15.877)">
                        <path id="Path_12410" data-name="Path 12410"
                              d="M524.692,127.239l1.93-1.114c.25-.144.219-.4-.07-.562l-3.4-1.964a1.082,1.082,0,0,0-.974-.04l-1.93,1.114c-.249.145-.218.4.07.563l3.4,1.964A1.084,1.084,0,0,0,524.692,127.239Z"
                              transform="translate(-519.752 -123.134)" fill="#54c5d0"/>
                        <path id="Path_12411" data-name="Path 12411"
                              d="M524.052,127.447a1.19,1.19,0,0,0,.588-.141l1.929-1.114a.611.611,0,0,0,.332-.527.714.714,0,0,0-.4-.6l-3.4-1.964a1.4,1.4,0,0,0-1.3-.04l-1.929,1.114a.611.611,0,0,0-.332.528.715.715,0,0,0,.4.6l3.4,1.964A1.452,1.452,0,0,0,524.052,127.447Zm.261-.707a.772.772,0,0,1-.647-.041l-3.4-1.964-.028-.017,1.887-1.093a.77.77,0,0,1,.647.04l3.4,1.964.027.017Z"
                              transform="translate(-519.537 -122.918)" fill="#140f0c"/>
                    </g>
                    <g id="Group_5820" data-name="Group 5820" transform="translate(11.215 18.251)">
                        <path id="Path_12412" data-name="Path 12412"
                              d="M531.518,131.179l1.929-1.114c.25-.144.219-.4-.07-.562l-3.4-1.964a1.08,1.08,0,0,0-.974-.04l-1.93,1.114c-.25.144-.219.4.07.563l3.4,1.963A1.08,1.08,0,0,0,531.518,131.179Z"
                              transform="translate(-526.578 -127.075)" fill="#54c5d0"/>
                        <path id="Path_12413" data-name="Path 12413"
                              d="M530.877,131.388a1.2,1.2,0,0,0,.589-.141l1.929-1.114a.611.611,0,0,0,.332-.527.714.714,0,0,0-.4-.6l-3.4-1.964a1.4,1.4,0,0,0-1.3-.041l-1.929,1.114a.611.611,0,0,0-.332.528.713.713,0,0,0,.4.6l3.4,1.964A1.448,1.448,0,0,0,530.877,131.388Zm.262-.708a.767.767,0,0,1-.647-.04l-3.4-1.964-.028-.018,1.887-1.092a.769.769,0,0,1,.647.04l3.4,1.964.028.017Z"
                              transform="translate(-526.362 -126.859)" fill="#140f0c"/>
                    </g>
                    <path id="Path_12414" data-name="Path 12414"
                          d="M527.382,155.425V158.6l-2.207-.628-42.111-24.288-.322-.963-.2-2.663,42.2,24.53,1.676.686Z"
                          transform="translate(-482.404 -109.88)" fill="#130e0c"/>
                    <path id="Path_12415" data-name="Path 12415" d="M521.71,150.651l.629.363v2.421l-.629-.363Z"
                          transform="translate(-500.957 -118.069)" fill="#002292"/>
                    <path id="Path_12416" data-name="Path 12416" d="M539.054,140.634l.629.363v2.421l-.629-.363Z"
                          transform="translate(-528.748 -114.086)" fill="#002292"/>
                </g>
            </g>
            <g id="Group_5838" data-name="Group 5838" transform="translate(1.057 96.078)">
                <g id="Group_5837" data-name="Group 5837" transform="translate(0 0)">
                    <path id="Path_12493" data-name="Path 12493"
                          d="M490.323,227.033l22.724,13.12,22.724-13.12-22.724-13.12Z"
                          transform="translate(-489.995 -212.951)" fill="#54c5d0"/>
                    <path id="Path_12494" data-name="Path 12494" d="M513.046,235.694v5.33l-22.724,13.12v-5.33Z"
                          transform="translate(-467.271 -221.612)" fill="#54c5d0"/>
                    <g id="Group_5825" data-name="Group 5825" transform="translate(0 0.585)">
                        <path id="Path_12495" data-name="Path 12495" d="M528.048,235.694v5.33l22.724,13.12v-5.33Z"
                              transform="translate(-527.72 -222.197)" fill="#15100c"/>
                        <path id="Path_12496" data-name="Path 12496"
                              d="M489.779,226.595l.327-.189,22.724-13.119,22.724,13.119.328.189V232.3l-22.724,13.119-.327.189-.327-.189L489.943,232.4l-.164-.094v-5.708Zm23.051-12.553L490.76,226.783l10.28,5.936,11.79,6.807,21.1-12.18.973-.562Zm22.4,17.883v-4.574l-22.07,12.742v4.574Zm-44.794,0,22.07,12.742v-4.574l-22.07-12.742Z"
                              transform="translate(-489.779 -213.287)" fill="#140f0c"/>
                    </g>
                    <g id="Group_5826" data-name="Group 5826" transform="translate(0.12 0.585)">
                        <path id="Path_12497" data-name="Path 12497"
                              d="M515.136,213.913l14.318,8.267h0a6.637,6.637,0,0,0,7.119-.2c.418,4.18-3.923,7.741-5.739,9.038a5.238,5.238,0,0,1-.661.457l-15.037,8.682-22.724-13.12Z"
                              transform="translate(-492.205 -213.536)" fill="#54c5d0"/>
                        <path id="Path_12498" data-name="Path 12498"
                              d="M528.859,233.285l-15.037,8.682L493.4,230.173l20.262-11.7,14.317,8.266h0a6.619,6.619,0,0,0,6.84-.021c-1.113,2.855-3.924,5.128-5.3,6.108A5.238,5.238,0,0,1,528.859,233.285Z"
                              transform="translate(-491.012 -215.35)" fill="#fcebcc"/>
                        <path id="Path_12499" data-name="Path 12499"
                              d="M514.8,240.281,530,231.5a5.441,5.441,0,0,0,.7-.484c1.9-1.352,6.293-4.992,5.858-9.326l-.058-.576-.463.347a6.254,6.254,0,0,1-6.759.183L514.8,213.287,492.094,226.4a.447.447,0,0,0,0,.774ZM535.939,222.3c0,3.764-3.894,6.965-5.629,8.2a5.007,5.007,0,0,1-.635.44L514.8,239.526l-22.07-12.742L514.8,214.042l14.154,8.172A6.988,6.988,0,0,0,535.939,222.3Z"
                              transform="translate(-491.87 -213.287)" fill="#140f0c"/>
                    </g>
                    <g id="Group_5827" data-name="Group 5827" transform="translate(12.151)">
                        <path id="Path_12500" data-name="Path 12500"
                              d="M536.7,218.317a3.188,3.188,0,0,0,1.558-.377,1.17,1.17,0,0,0,0-2.178l-5.124-2.958a4.39,4.39,0,0,0-4.03,0,1.447,1.447,0,0,0,0,2.7l3.271,1.889.327-.566-3.271-1.888a.814.814,0,0,1,0-1.572,3.8,3.8,0,0,1,3.376,0l5.124,2.958c.263.152.414.342.414.522s-.151.37-.414.523a2.771,2.771,0,0,1-2.463,0l-4.591-2.65-.327.566,4.591,2.651A3.181,3.181,0,0,0,536.7,218.317Z"
                              transform="translate(-528.174 -212.315)" fill="#140f0c"/>
                    </g>
                    <g id="Group_5828" data-name="Group 5828" transform="translate(22.89 15.857)">
                        <path id="Path_12501" data-name="Path 12501"
                              d="M490.377,251.822,513.1,239l-.322-.362-22.724,12.82Z"
                              transform="translate(-490.055 -238.639)" fill="#140f0c"/>
                    </g>
                    <g id="Group_5829" data-name="Group 5829" transform="translate(22.888 17.696)">
                        <path id="Path_12502" data-name="Path 12502"
                              d="M490.378,255.114,513.1,242.053l-.326-.36-22.724,13.061Z"
                              transform="translate(-490.052 -241.693)" fill="#140f0c"/>
                    </g>
                    <g id="Group_5830" data-name="Group 5830" transform="translate(0.489 15.827)">
                        <path id="Path_12503" data-name="Path 12503" d="M550.716,251.984v-.574l-22.4-12.819.023.572Z"
                              transform="translate(-528.315 -238.591)" fill="#54c5d0"/>
                    </g>
                    <g id="Group_5831" data-name="Group 5831" transform="translate(0.489 17.571)">
                        <path id="Path_12504" data-name="Path 12504" d="M550.716,254.878V254.3l-22.4-12.819.023.572Z"
                              transform="translate(-528.315 -241.486)" fill="#54c5d0"/>
                    </g>
                    <g id="Group_5836" data-name="Group 5836" transform="translate(13.113 8.254)">
                        <g id="Group_5832" data-name="Group 5832" transform="translate(0 0.859)">
                            <path id="Path_12505" data-name="Path 12505"
                                  d="M521.864,238.993a13.983,13.983,0,0,0,6.845-1.635c1.89-1.091,2.931-2.561,2.931-4.141s-1.041-3.048-2.931-4.139a15.146,15.146,0,0,0-13.69,0c-1.89,1.091-2.931,2.561-2.931,4.139s1.041,3.05,2.931,4.141A14,14,0,0,0,521.864,238.993Zm0-10.9a13.335,13.335,0,0,1,6.519,1.556c1.679.97,2.6,2.238,2.6,3.574s-.925,2.605-2.6,3.575a14.431,14.431,0,0,1-13.036,0c-1.679-.97-2.6-2.238-2.6-3.575s.925-2.6,2.6-3.574h0A13.331,13.331,0,0,1,521.864,228.088Z"
                                  transform="translate(-512.088 -227.444)" fill="#002292"/>
                        </g>
                        <g id="Group_5833" data-name="Group 5833" transform="translate(5.327 2.529)">
                            <path id="Path_12506" data-name="Path 12506"
                                  d="M529.119,234.694l2.126-4.181-.583-.3-1.9,3.731-4.134-.9-.138.639Z"
                                  transform="translate(-524.493 -230.217)" fill="#002292"/>
                        </g>
                        <g id="Group_5834" data-name="Group 5834" transform="translate(0.163 0)">
                            <path id="Path_12507" data-name="Path 12507"
                                  d="M521.594,237.568a13.983,13.983,0,0,0,6.845-1.635c1.89-1.091,2.931-2.561,2.931-4.141s-1.041-3.049-2.931-4.14a15.15,15.15,0,0,0-13.69,0c-1.89,1.091-2.931,2.561-2.931,4.14s1.041,3.05,2.931,4.141A14,14,0,0,0,521.594,237.568Zm0-10.905a13.332,13.332,0,0,1,6.518,1.556c1.679.969,2.6,2.238,2.6,3.574s-.925,2.605-2.6,3.575a14.431,14.431,0,0,1-13.036,0c-1.679-.97-2.6-2.238-2.6-3.575s.925-2.6,2.6-3.574h0A13.334,13.334,0,0,1,521.594,226.663Z"
                                  transform="translate(-511.818 -226.019)" fill="#140f0c"/>
                        </g>
                        <g id="Group_5835" data-name="Group 5835" transform="translate(5.49 1.671)">
                            <path id="Path_12508" data-name="Path 12508"
                                  d="M528.849,233.269l2.126-4.181-.583-.3-1.9,3.731-4.134-.9-.138.639Z"
                                  transform="translate(-524.224 -228.792)" fill="#140f0c"/>
                        </g>
                    </g>
                </g>
            </g>
            <g id="Group_5862" data-name="Group 5862" transform="translate(37.67 60.699)">
                <g id="Group_5855" data-name="Group 5855" transform="translate(6.089 0)">
                    <g id="Group_5840" data-name="Group 5840" transform="translate(0 1.81)">
                        <path id="Path_13093" data-name="Path 13093"
                              d="M348.939,232.674l60.109-31.464-69.091-44-60.109,31.464Z"
                              transform="translate(-279.195 -156.834)" fill="#4870f5"/>
                        <path id="Path_13094" data-name="Path 13094"
                              d="M356.11,235.69,289.236,193.1,343.7,164.593l66.874,42.586Z"
                              transform="translate(-286.379 -159.769)" fill="#fdeccc"/>
                        <path id="Path_13095" data-name="Path 13095"
                              d="M348.492,232.8l60.778-31.814-69.728-44.4-.167.088L278.764,188.4Zm59.473-31.869-59.441,31.114-68.456-43.593,59.441-31.115Z"
                              transform="translate(-278.764 -156.585)" fill="#140f0c"/>
                    </g>
                    <g id="Group_5841" data-name="Group 5841" transform="translate(14.096)">
                        <path id="Path_13096" data-name="Path 13096"
                              d="M328.669,229.127l56.186-33.794-74.209-41.127L254.46,188Z"
                              transform="translate(-253.806 -153.829)" fill="#4870f5"/>
                        <path id="Path_13097" data-name="Path 13097"
                              d="M330.937,231.556l-70.776-39.224L312.913,160.6l70.776,39.224Z"
                              transform="translate(-256.073 -156.373)" fill="#fdeccc"/>
                        <path id="Path_13098" data-name="Path 13098"
                              d="M328.244,229.255l.162-.1,56.672-34.087L310.209,153.58l-.162.1-56.672,34.086Zm55.526-34.161L328.232,228.5,254.683,187.74l55.538-33.405Z"
                              transform="translate(-253.375 -153.58)" fill="#140f0c"/>
                    </g>
                    <g id="Group_5854" data-name="Group 5854" transform="translate(8.215 1.158)">
                        <g id="Group_5842" data-name="Group 5842">
                            <path id="Path_13099" data-name="Path 13099"
                                  d="M337.435,231.248l57.372-33.124L322.071,156.13,264.7,189.253Z"
                                  transform="translate(-264.045 -155.752)" fill="#4870f5"/>
                            <path id="Path_13100" data-name="Path 13100"
                                  d="M393.47,200.64l-53.436,30.852-68.8-39.722,53.436-30.852Z"
                                  transform="translate(-266.643 -157.656)" fill="#feedcc"/>
                            <path id="Path_13101" data-name="Path 13101"
                                  d="M337,231.376l.164-.095,57.862-33.407-.49-.283-72.9-42.089-.163.095L263.613,189l.49.283Zm56.717-33.5L337,230.621,264.921,189l56.718-32.746Z"
                                  transform="translate(-263.613 -155.503)" fill="#140f0c"/>
                        </g>
                        <g id="Group_5845" data-name="Group 5845" transform="translate(35.649 12.378)">
                            <g id="Group_5843" data-name="Group 5843" transform="translate(6.845)">
                                <path id="Path_13102" data-name="Path 13102"
                                      d="M369.181,191.055l-16.744-3.9a12.206,12.206,0,0,1,3.979-3.469c7.05-4.071,18.48-4.071,25.53,0s7.049,10.669,0,14.74-18.48,4.071-25.529,0a14.71,14.71,0,0,1-2.134-1.487Z"
                                      transform="translate(-351.813 -177.873)" fill="#54c5d0"/>
                                <path id="Path_13103" data-name="Path 13103"
                                      d="M369.313,197.532a26.431,26.431,0,0,0,12.929-3.088c3.515-2.029,5.451-4.747,5.451-7.652s-1.935-5.624-5.451-7.653c-7.129-4.117-18.728-4.117-25.857,0A12.5,12.5,0,0,0,352.3,182.7l-.276.4,16.194,3.772-14.434,5.7.419.354a15.137,15.137,0,0,0,2.181,1.519A26.444,26.444,0,0,0,369.313,197.532Zm0-20.836a25.776,25.776,0,0,1,12.6,3.009c3.3,1.908,5.124,4.425,5.124,7.087s-1.82,5.179-5.124,7.087c-6.95,4.012-18.255,4.011-25.2,0a14.675,14.675,0,0,1-1.655-1.106l15.351-6.062-17.28-4.026a12.309,12.309,0,0,1,3.584-2.981A25.776,25.776,0,0,1,369.314,176.7Z"
                                      transform="translate(-352.026 -176.052)" fill="#140f0c"/>
                            </g>
                            <g id="Group_5844" data-name="Group 5844" transform="translate(0 6.819)">
                                <path id="Path_13104" data-name="Path 13104"
                                      d="M410.033,195.938l-14.9,5.883c-3.451-2.906-4.069-6.6-1.846-9.783Z"
                                      transform="translate(-391.589 -189.228)" fill="#4870f5"/>
                                <path id="Path_13105" data-name="Path 13105"
                                      d="M393.7,197.9l16.055-6.34-17.98-4.189-.127.182c-2.336,3.348-1.608,7.264,1.9,10.221Zm13.866-6.179-13.741,5.427c-3.086-2.686-3.74-6.04-1.764-9.039Z"
                                      transform="translate(-390.297 -187.373)" fill="#140f0c"/>
                            </g>
                        </g>
                        <g id="Group_5846" data-name="Group 5846" transform="translate(45.063 25.792)">
                            <path id="Path_13106" data-name="Path 13106"
                                  d="M332.078,230.459l41.831-24.152c.8-.463.7-1.272-.225-1.808l-1.971-1.137a3.479,3.479,0,0,0-3.13-.13l-41.831,24.152c-.8.463-.7,1.272.225,1.807l1.97,1.138A3.481,3.481,0,0,0,332.078,230.459Z"
                                  transform="translate(-325.804 -200.15)" fill="#d1d1d1"/>
                            <path id="Path_13107" data-name="Path 13107"
                                  d="M330.631,226.83a3.1,3.1,0,0,0,1.527-.358l41.832-24.151a1.244,1.244,0,0,0,.7-1.067,1.6,1.6,0,0,0-.93-1.306l-1.971-1.138a3.783,3.783,0,0,0-3.457-.129l-41.832,24.152a1.243,1.243,0,0,0-.705,1.067,1.6,1.6,0,0,0,.93,1.306l1.971,1.137A3.942,3.942,0,0,0,330.631,226.83Zm39.224-27.852a3.329,3.329,0,0,1,1.611.4l1.972,1.137c.377.219.6.5.6.74a.643.643,0,0,1-.378.5l-41.832,24.152a3.176,3.176,0,0,1-2.8-.13l-1.971-1.138c-.378-.219-.6-.5-.6-.74a.641.641,0,0,1,.378-.5l41.832-24.152A2.446,2.446,0,0,1,369.856,198.978Z"
                                  transform="translate(-325.8 -198.321)" fill="#140f0c"/>
                        </g>
                        <g id="Group_5847" data-name="Group 5847" transform="translate(52.959 30.254)">
                            <path id="Path_13108" data-name="Path 13108"
                                  d="M318.97,237.867,360.8,213.715c.8-.463.7-1.272-.225-1.807l-1.971-1.138a3.48,3.48,0,0,0-3.13-.13l-41.832,24.152c-.8.463-.7,1.272.225,1.808l1.97,1.137A3.48,3.48,0,0,0,318.97,237.867Z"
                                  transform="translate(-312.697 -207.558)" fill="#d1d1d1"/>
                            <path id="Path_13109" data-name="Path 13109"
                                  d="M317.523,234.238a3.107,3.107,0,0,0,1.526-.357h0l41.832-24.152a1.245,1.245,0,0,0,.705-1.068,1.6,1.6,0,0,0-.93-1.305l-1.97-1.137a3.785,3.785,0,0,0-3.458-.13L313.4,230.24a1.244,1.244,0,0,0-.7,1.067,1.6,1.6,0,0,0,.93,1.306l1.97,1.137A3.951,3.951,0,0,0,317.523,234.238Zm1.2-.924a3.172,3.172,0,0,1-2.8-.129l-1.971-1.137c-.378-.219-.6-.5-.6-.74a.642.642,0,0,1,.378-.5l41.831-24.152a3.173,3.173,0,0,1,2.8.13l1.97,1.137c.378.219.6.5.6.74a.643.643,0,0,1-.378.5l-41.832,24.151Z"
                                  transform="translate(-312.692 -205.73)" fill="#140f0c"/>
                        </g>
                        <g id="Group_5848" data-name="Group 5848" transform="translate(60.812 34.74)">
                            <path id="Path_13110" data-name="Path 13110"
                                  d="M305.932,245.315l41.831-24.152c.8-.463.7-1.272-.225-1.808l-1.97-1.137a3.479,3.479,0,0,0-3.13-.13L300.606,242.24c-.8.463-.7,1.272.225,1.807l1.971,1.138A3.479,3.479,0,0,0,305.932,245.315Z"
                                  transform="translate(-299.658 -215.006)" fill="#d1d1d1"/>
                            <path id="Path_13111" data-name="Path 13111"
                                  d="M304.485,241.686a3.1,3.1,0,0,0,1.527-.358l41.831-24.151a1.247,1.247,0,0,0,.7-1.069,1.6,1.6,0,0,0-.929-1.3l-1.97-1.138a3.785,3.785,0,0,0-3.458-.13l-41.831,24.152a1.243,1.243,0,0,0-.705,1.067,1.6,1.6,0,0,0,.93,1.306l1.97,1.137A3.942,3.942,0,0,0,304.485,241.686Zm39.224-27.852a3.332,3.332,0,0,1,1.613.4l1.97,1.137c.377.218.6.495.6.739a.644.644,0,0,1-.378.5l-41.831,24.151a3.175,3.175,0,0,1-2.8-.13l-1.97-1.138c-.378-.218-.6-.5-.6-.74a.641.641,0,0,1,.378-.5L342.518,214.1A2.445,2.445,0,0,1,343.709,213.834Z"
                                  transform="translate(-299.654 -213.177)" fill="#140f0c"/>
                        </g>
                        <g id="Group_5849" data-name="Group 5849" transform="translate(68.708 39.203)">
                            <path id="Path_13112" data-name="Path 13112"
                                  d="M292.824,252.723l41.831-24.152c.8-.463.7-1.272-.225-1.807l-1.97-1.138a3.48,3.48,0,0,0-3.13-.13L287.5,249.648c-.8.463-.7,1.272.225,1.808l1.971,1.137A3.48,3.48,0,0,0,292.824,252.723Z"
                                  transform="translate(-286.55 -222.414)" fill="#d1d1d1"/>
                            <path id="Path_13113" data-name="Path 13113"
                                  d="M291.377,249.094a3.1,3.1,0,0,0,1.527-.358l41.831-24.152a1.245,1.245,0,0,0,.705-1.067,1.6,1.6,0,0,0-.93-1.306l-1.97-1.137a3.782,3.782,0,0,0-3.458-.13L287.251,245.1a1.245,1.245,0,0,0-.705,1.068,1.6,1.6,0,0,0,.93,1.305l1.97,1.137A3.942,3.942,0,0,0,291.377,249.094Zm1.2-.925a3.176,3.176,0,0,1-2.8-.13L287.8,246.9c-.378-.219-.6-.5-.6-.74a.644.644,0,0,1,.378-.5l41.831-24.151a3.173,3.173,0,0,1,2.8.13l1.97,1.137c.378.219.6.5.6.74a.64.64,0,0,1-.378.5Z"
                                  transform="translate(-286.546 -220.585)" fill="#140f0c"/>
                        </g>
                        <g id="Group_5850" data-name="Group 5850" transform="translate(34.86 37.216)">
                            <path id="Path_13114" data-name="Path 13114"
                                  d="M385.032,237.541l14.02-8.094c1.577-.91,1.379-2.5-.442-3.553l-12.476-7.2a6.837,6.837,0,0,0-6.153-.255l-14.02,8.094c-1.578.911-1.379,2.5.442,3.553l12.476,7.2A6.84,6.84,0,0,0,385.032,237.541Z"
                                  transform="translate(-364.568 -217.5)" fill="#fdeccc"/>
                            <path id="Path_13115" data-name="Path 13115"
                                  d="M384.657,243.79l14.02-8.094c1.577-.911,1.379-2.5-.442-3.553l-12.476-7.2a6.84,6.84,0,0,0-6.154-.255l-14.019,8.094c-1.578.911-1.379,2.5.442,3.553l12.476,7.2A6.84,6.84,0,0,0,384.657,243.79Z"
                                  transform="translate(-363.968 -219.985)" fill="#d1d1d1"/>
                            <path id="Path_13116" data-name="Path 13116"
                                  d="M382.145,238.265a5.782,5.782,0,0,0,2.835-.653L399,229.517a2.147,2.147,0,0,0,1.228-1.826,2.852,2.852,0,0,0-1.67-2.293l-12.477-7.2a7.2,7.2,0,0,0-6.48-.255l-14.02,8.094a2.149,2.149,0,0,0-1.229,1.826,2.851,2.851,0,0,0,1.67,2.293l12.477,7.2A7.487,7.487,0,0,0,382.145,238.265Zm2.508-1.219a6.492,6.492,0,0,1-5.827-.255l-12.477-7.2a2.246,2.246,0,0,1-1.343-1.727,1.533,1.533,0,0,1,.9-1.26l14.02-8.094a6.493,6.493,0,0,1,5.826.255l12.477,7.2a2.248,2.248,0,0,1,1.343,1.727,1.531,1.531,0,0,1-.9,1.26Z"
                                  transform="translate(-364.353 -217.288)" fill="#140f0c"/>
                        </g>
                        <g id="Group_5851" data-name="Group 5851" transform="translate(11.504 26.073)">
                            <path id="Path_13117" data-name="Path 13117"
                                  d="M429.814,216.526l10.859-6.269c1.372-.792,1.2-2.174-.384-3.089L428.042,200.1a5.947,5.947,0,0,0-5.351-.222l-10.859,6.269c-1.371.791-1.2,2.175.384,3.089l12.247,7.07A5.946,5.946,0,0,0,429.814,216.526Z"
                                  transform="translate(-410.41 -199.008)" fill="#fdeccc"/>
                            <path id="Path_13118" data-name="Path 13118"
                                  d="M430.639,221.655l10.859-6.269c1.372-.792,1.2-2.175-.384-3.089l-12.247-7.071a5.947,5.947,0,0,0-5.351-.222l-10.859,6.269c-1.371.792-1.2,2.175.384,3.089l12.247,7.07A5.948,5.948,0,0,0,430.639,221.655Z"
                                  transform="translate(-411.731 -201.047)" fill="#d1d1d1"/>
                            <path id="Path_13119" data-name="Path 13119"
                                  d="M427.27,217.174a5.07,5.07,0,0,0,2.493-.583h0l10.858-6.269a1.91,1.91,0,0,0,1.09-1.625,2.519,2.519,0,0,0-1.473-2.031l-12.246-7.07a6.22,6.22,0,0,0-5.678-.222l-10.859,6.269a1.908,1.908,0,0,0-1.089,1.625,2.519,2.519,0,0,0,1.474,2.03l12.246,7.071A6.517,6.517,0,0,0,427.27,217.174Zm2.166-1.15a5.6,5.6,0,0,1-5.024-.222l-12.247-7.071a1.914,1.914,0,0,1-1.146-1.464,1.274,1.274,0,0,1,.762-1.059l10.859-6.269a5.6,5.6,0,0,1,5.025.222l12.246,7.071a1.915,1.915,0,0,1,1.147,1.465,1.276,1.276,0,0,1-.763,1.059l-10.859,6.269Z"
                                  transform="translate(-410.194 -198.789)" fill="#140f0c"/>
                        </g>
                        <g id="Group_5852" data-name="Group 5852" transform="translate(92.331 35.322)">
                            <path id="Path_13120" data-name="Path 13120"
                                  d="M295.366,230.283l13.389-7.731c1.228-.709,1.074-1.947-.344-2.765l-7.651-4.418a5.325,5.325,0,0,0-4.79-.2l-13.389,7.73c-1.228.709-1.074,1.947.344,2.765l7.651,4.418A5.325,5.325,0,0,0,295.366,230.283Z"
                                  transform="translate(-281.425 -214.361)" fill="#fdeccc"/>
                            <path id="Path_13121" data-name="Path 13121"
                                  d="M295.366,234.769l13.389-7.73c1.228-.709,1.073-1.947-.344-2.766l-7.651-4.417a5.325,5.325,0,0,0-4.79-.2l-13.39,7.731c-1.228.709-1.073,1.947.344,2.765l7.651,4.417A5.324,5.324,0,0,0,295.366,234.769Z"
                                  transform="translate(-281.426 -216.145)" fill="#d1d1d1"/>
                            <path id="Path_13122" data-name="Path 13122"
                                  d="M293.064,230.874a4.565,4.565,0,0,0,2.25-.527l13.389-7.73a1.741,1.741,0,0,0,.992-1.484,2.285,2.285,0,0,0-1.337-1.847l-7.65-4.418a5.607,5.607,0,0,0-5.117-.2L282.2,222.4a1.74,1.74,0,0,0-.992,1.484,2.29,2.29,0,0,0,1.336,1.847l7.651,4.417A5.864,5.864,0,0,0,293.064,230.874Zm1.923-1.093a4.976,4.976,0,0,1-4.463-.2l-7.651-4.417c-.642-.37-1.009-.838-1.009-1.281a1.144,1.144,0,0,1,.666-.919l13.39-7.731a4.975,4.975,0,0,1,4.463.2l7.65,4.418c.642.37,1.01.837,1.01,1.281a1.141,1.141,0,0,1-.665.919Z"
                                  transform="translate(-281.209 -214.143)" fill="#140f0c"/>
                        </g>
                        <g id="Group_5853" data-name="Group 5853" transform="translate(40.368 3.42)">
                            <path id="Path_13123" data-name="Path 13123"
                                  d="M405.323,167.182a3.171,3.171,0,0,0,1.558-.378,1.17,1.17,0,0,0,0-2.176l-5.124-2.958a4.389,4.389,0,0,0-4.029,0,1.447,1.447,0,0,0,0,2.7L401,166.262l.327-.566-3.271-1.888a.814.814,0,0,1,0-1.573,3.8,3.8,0,0,1,3.375,0l5.124,2.959c.263.152.414.342.414.522s-.151.37-.414.522a2.762,2.762,0,0,1-2.462,0l-4.591-2.65-.327.566,4.591,2.65A3.171,3.171,0,0,0,405.323,167.182Z"
                                  transform="translate(-396.798 -161.18)" fill="#140f0c"/>
                        </g>
                    </g>
                </g>
                <g id="Group_5861" data-name="Group 5861" transform="translate(0 32.946)">
                    <g id="Group_5860" data-name="Group 5860" transform="translate(0 0)">
                        <g id="Group_5859" data-name="Group 5859">
                            <g id="Group_5856" data-name="Group 5856" transform="translate(29.001 11.613)">
                                <path id="Path_13124" data-name="Path 13124"
                                      d="M386.127,234.268l-.066-4.523,1.982-.029c.018-.022.037-.043.054-.065l1.656,4.738.674-.01,1.7,2.287,7.423,2.936,10.346.988,7.526-1.248,6.948-5.87c-.034-.193-.082-.385-.135-.576l2.047-3.822c.025.029.052.057.076.086l2.015-.03.074,5.121c0,.063,0,.125,0,.187l0,.235-.029.379c-.247,2.893-2.257,5.764-6.048,8.026-8.2,4.895-21.607,5.089-29.946.435-3.855-2.152-5.948-4.963-6.278-7.847h0l-.026-.093A8.136,8.136,0,0,1,386.127,234.268Z"
                                      transform="translate(-385.487 -228.158)" fill="#54c5d0"/>
                                <path id="Path_13125" data-name="Path 13125"
                                      d="M406.551,246.829a31.462,31.462,0,0,0,15.75-3.868c3.806-2.271,6.05-5.277,6.322-8.464l.03-.383-.086-6.161-2.314.034-.366-.431-.469.648-2.155,4.023.061.219c.02.07.039.14.057.21l-6.57,5.551-7.3,1.21-10.194-.974-7.2-2.847-1.773-2.391-.555.008-1.853-5.3-.526.641-2.287.033.074,5.062a8.341,8.341,0,0,0,0,1.354l.019.121c.376,3.187,2.708,6.127,6.575,8.285A30.932,30.932,0,0,0,406.551,246.829Zm20.9-17.728.073,4.976-.027.328c-.24,2.811-2.291,5.505-5.774,7.585-8.032,4.793-21.212,4.985-29.38.426-3.543-1.977-5.669-4.612-5.992-7.418l-.028-.125a7.407,7.407,0,0,1,.008-1.162l0-.055-.058-3.957,1.087-.016,1.633,4.674.791-.011,1.62,2.184,7.726,3.032,10.421,1,7.753-1.285,7.316-6.181-.057-.321c-.025-.137-.054-.272-.089-.408l1.738-3.243Z"
                                      transform="translate(-385.125 -227.554)" fill="#16110d"/>
                            </g>
                            <g id="Group_5857" data-name="Group 5857" transform="translate(30.426 0.894)">
                                <path id="Path_13126" data-name="Path 13126"
                                      d="M427.962,222.394c-.8,1.1-1.709,2.361-2.482,3.425-.5-2.088-2.157-4.09-4.968-5.659-6.766-3.777-17.645-3.619-24.3.352-2.736,1.633-4.328,3.657-4.789,5.736l-2.314-3.669q.334-.439.731-.867c-.5.225-.854.385-.99.457l0-.007c.674-.663,6.045-8.4,6.045-8.4l12.256-3.048,11.419,1.484,7.468,6.031.527,2.371.829.281C428.068,221.478,427.487,221.75,427.962,222.394Z"
                                      transform="translate(-388.103 -210.139)" fill="#16110d"/>
                                <path id="Path_13127" data-name="Path 13127"
                                      d="M391.259,227.335l.3-1.344c.446-2.013,2.01-3.871,4.526-5.372,6.49-3.872,17.136-4.027,23.733-.344,2.585,1.442,4.207,3.273,4.694,5.3l.287,1.193.722-.992c.774-1.064,1.687-2.322,2.484-3.426l.242-.336-.246-.333a.47.47,0,0,1-.1-.372,1.417,1.417,0,0,0-.554-1.23l-.192-.111-.526-.179-.5-2.252-7.746-6.256-11.684-1.519-12.567,3.124-.122.175c-2.064,2.975-5.512,7.866-5.975,8.321l-.348.342.322.443,0,0Zm17.08-10.841a25.636,25.636,0,0,0-12.836,3.153,10.859,10.859,0,0,0-4.668,4.894l-1.454-2.3q.214-.261.454-.518l1.894-2.034-1.49.664c1.578-2.165,3.924-5.533,4.575-6.469l11.945-2.971,11.156,1.45,7.189,5.808.554,2.488,1.016.345c.093.093.093.137.09.29a1.614,1.614,0,0,0,.107.686c-.525.726-1.089,1.5-1.623,2.241a10.706,10.706,0,0,0-4.883-4.929A25.2,25.2,0,0,0,408.339,216.495Z"
                                      transform="translate(-387.683 -209.76)" fill="#16110d"/>
                            </g>
                            <path id="Path_13128" data-name="Path 13128"
                                  d="M446.869,252.278l-3.22-5.542,3.724-2.418c.021-.014.041-.028.063-.041h0a1.605,1.605,0,0,1,1.588.145,5.012,5.012,0,0,1,2.325,3.9,1.7,1.7,0,0,1-.508,1.381h0a1.062,1.062,0,0,1-.19.123Z"
                                  transform="translate(-414.074 -222.532)" fill="#54c5d0"/>
                            <g id="Group_5858" data-name="Group 5858" transform="translate(28.969)">
                                <path id="Path_13129" data-name="Path 13129"
                                      d="M422.212,212.559c8.338,4.654,8.451,12.4.251,17.289s-21.607,5.089-29.945.435-8.451-12.4-.251-17.289S413.873,207.906,422.212,212.559Zm-26.895,16.053c6.766,3.776,17.645,3.618,24.3-.353s6.563-10.253-.2-14.029-17.645-3.619-24.3.352S388.551,224.836,395.317,228.613Z"
                                      transform="translate(-385.623 -208.64)" fill="#fec"/>
                                <path id="Path_13130" data-name="Path 13130"
                                      d="M406.63,233.838a31.456,31.456,0,0,0,15.749-3.869c4.148-2.475,6.4-5.753,6.354-9.229s-2.4-6.687-6.617-9.041h0c-8.482-4.735-22.171-4.535-30.511.444-4.148,2.475-6.4,5.752-6.353,9.228s2.4,6.687,6.617,9.041A30.938,30.938,0,0,0,406.63,233.838Zm.72-24.447a29.772,29.772,0,0,1,14.212,3.3c3.85,2.149,5.994,5.014,6.038,8.069s-2.015,5.981-5.8,8.24c-8.032,4.793-21.212,4.985-29.38.427-3.849-2.149-5.994-5.015-6.038-8.07s2.016-5.981,5.8-8.24A30.311,30.311,0,0,1,407.349,209.391Zm-.651,22.142a25.634,25.634,0,0,0,12.834-3.153c3.4-2.028,5.248-4.721,5.207-7.581s-1.968-5.5-5.424-7.427c-6.914-3.858-18.069-3.7-24.865.361-3.4,2.028-5.249,4.721-5.207,7.582s1.968,5.5,5.424,7.427A25.211,25.211,0,0,0,406.7,231.533Zm.584-19.837a24.049,24.049,0,0,1,11.481,2.664c3.089,1.723,4.809,4.016,4.845,6.455s-1.618,4.781-4.655,6.594c-6.489,3.871-17.136,4.027-23.733.345h0c-3.089-1.723-4.809-4.017-4.845-6.455s1.618-4.781,4.655-6.594A24.482,24.482,0,0,1,407.282,211.7Z"
                                      transform="translate(-385.25 -208.275)" fill="#16110d"/>
                            </g>
                            <path id="Path_13131" data-name="Path 13131"
                                  d="M451.308,245.95l-3.652,2.283-2.79-1.924,3.922-2.4Z"
                                  transform="translate(-414.765 -222.445)" fill="#fec"/>
                            <path id="Path_13132" data-name="Path 13132"
                                  d="M446.5,252.7l4.28-2.78a1.355,1.355,0,0,0,.243-.163,2.252,2.252,0,0,0,.712-1.826,5.564,5.564,0,0,0-2.614-4.381,2.144,2.144,0,0,0-2.144-.142l-.1.065-4.164,2.7Zm1.366-8.378a1.493,1.493,0,0,1,.7.216,4.461,4.461,0,0,1,2.034,3.409,1.177,1.177,0,0,1-.3.937l-.137.085L446.88,251.1l-2.651-4.563,3.273-2.124A.705.705,0,0,1,447.866,244.325Z"
                                  transform="translate(-413.894 -222.157)" fill="#16110d"/>
                            <path id="Path_13133" data-name="Path 13133"
                                  d="M458.461,248.37a1.621,1.621,0,0,1,1.556.16,5.014,5.014,0,0,1,2.325,3.9,1.579,1.579,0,0,1-.661,1.487h0l-6.781,5.863-4.912-7.76Z"
                                  transform="translate(-428.885 -224.166)" fill="#54c5d0"/>
                            <path id="Path_13134" data-name="Path 13134"
                                  d="M462.335,249.922l-7.672,4.2-3.255-2.467,8.66-3.495Z"
                                  transform="translate(-429.733 -224.135)" fill="#fec"/>
                            <path id="Path_13135" data-name="Path 13135"
                                  d="M454.666,260.26l7.278-6.293a2.1,2.1,0,0,0,.857-1.923,5.567,5.567,0,0,0-2.615-4.382,2.178,2.178,0,0,0-2.075-.177l-9.064,3.9Zm4.251-11.831a1.528,1.528,0,0,1,.717.221,4.46,4.46,0,0,1,2.035,3.41,1.075,1.075,0,0,1-.376.987l-6.373,5.5-4.2-6.645,7.9-3.4A.642.642,0,0,1,458.918,248.429Z"
                                  transform="translate(-428.779 -223.792)" fill="#16110d"/>
                            <path id="Path_13136" data-name="Path 13136"
                                  d="M465.676,263.048h0a1.2,1.2,0,0,1,.229-.124l11.363-8.24a2.292,2.292,0,0,1,2.391.166,7.326,7.326,0,0,1,3.4,5.691,2.375,2.375,0,0,1-.866,2.107h0a1.6,1.6,0,0,1-.355.181l-12.413,6.219a2.1,2.1,0,0,1-.238.12l-4.337,2.153-3.147-5.578Z"
                                  transform="translate(-456.654 -226.625)" fill="#54c5d0"/>
                            <path id="Path_13137" data-name="Path 13137"
                                  d="M483.368,256.646l-16.733,10.516-2.49-1.832,15.4-10.821,3.3,1.4Z"
                                  transform="translate(-458.438 -226.66)" fill="#fec"/>
                            <path id="Path_13138" data-name="Path 13138"
                                  d="M464.428,271.7l17.471-8.731a1.859,1.859,0,0,0,.417-.218,2.924,2.924,0,0,0,1.117-2.585,7.842,7.842,0,0,0-3.688-6.177,2.854,2.854,0,0,0-2.974-.147L460.759,265.2ZM478.01,254.61a2.5,2.5,0,0,1,1.183.363,6.811,6.811,0,0,1,3.108,5.206,1.858,1.858,0,0,1-.618,1.629,1,1,0,0,1-.228.117l-16.569,8.28-2.627-4.657,15.152-10.777A1.09,1.09,0,0,1,478.01,254.61Z"
                                  transform="translate(-456.464 -226.253)" fill="#16110d"/>
                            <path id="Path_13139" data-name="Path 13139"
                                  d="M490.661,275.526l3.612-2.362c.022-.015.045-.031.068-.044h0a1.6,1.6,0,0,1,1.587.145,5.011,5.011,0,0,1,2.325,3.9,1.517,1.517,0,0,1-.766,1.538l-3.714,2.423Z"
                                  transform="translate(-489.295 -234.001)" fill="#54c5d0"/>
                            <path id="Path_13140" data-name="Path 13140"
                                  d="M498.318,274.651l-3.891,2.594-2.17-2.1,3.859-2.159Z"
                                  transform="translate(-490.321 -234.008)" fill="#fec"/>
                            <path id="Path_13141" data-name="Path 13141"
                                  d="M493.759,281.307l3.848-2.511a2.026,2.026,0,0,0,1.021-2.021,5.56,5.56,0,0,0-2.615-4.38,2.136,2.136,0,0,0-2.143-.142l-.1.066-4.046,2.646Zm1-8.14a1.473,1.473,0,0,1,.7.216,4.458,4.458,0,0,1,2.035,3.409c.008.521-.147.89-.426,1.011l-3.288,2.138-2.561-4.606,3.171-2.074A.717.717,0,0,1,494.761,273.167Z"
                                  transform="translate(-489.105 -233.626)" fill="#16110d"/>
                            <path id="Path_13142" data-name="Path 13142"
                                  d="M496.979,276.374a2.119,2.119,0,0,1,2.17.128,5.56,5.56,0,0,1,2.617,4.381,2.128,2.128,0,0,1-.919,1.973,1.739,1.739,0,0,1-.9.241,2.633,2.633,0,0,1-1.273-.369,5.562,5.562,0,0,1-2.615-4.381A2.124,2.124,0,0,1,496.979,276.374Z"
                                  transform="translate(-496.058 -235.258)" fill="#16110d"/>
                        </g>
                        <path id="Path_13143" data-name="Path 13143"
                              d="M436.837,247.505V252.9l-6.867-.761-6.289-2.285.7-1.912-1.412-3.734,6.349,2.8,5.94.564Z"
                              transform="translate(-387.104 -222.563)" fill="#16110d"/>
                        <path id="Path_13144" data-name="Path 13144"
                              d="M452.661,239.811l-3.667,1.874-1.3-2.691V234.7l3.09,3.71Z"
                              transform="translate(-417.823 -218.783)" fill="#16110d"/>
                    </g>
                </g>
            </g>
        </g>
    </g>
</svg>
