<svg xmlns="http://www.w3.org/2000/svg" width="94" height="114" viewBox="0 0 94 114">
    <g id="invoice_1_" data-name="invoice(1)" transform="translate(-41.274)">
        <g id="Group_105" data-name="Group 105" transform="translate(43.899 2.63)">
            <path id="Path_74" data-name="Path 74"
                  d="M186.753,18.34V101.2a1.315,1.315,0,0,1-2.236,1.052l-8.68-8.154a1.578,1.578,0,0,0-1.841,0l-3.025,2.762V33.727a7.891,7.891,0,0,0-7.891-7.891H114.416v-7.5a7.891,7.891,0,0,1,7.891-7.891h56.554A7.892,7.892,0,0,1,186.753,18.34Z"
                  transform="translate(-98.009 -10.448)" fill="#00ceb4"/>
            <path id="Path_75" data-name="Path 75"
                  d="M124.044,142.475V162.3a1.316,1.316,0,0,1-2.236,1.05l-8.681-8.14a1.58,1.58,0,0,0-1.841,0l-10.39,9.322a1.317,1.317,0,0,1-1.841,0L88.8,155.21a1.58,1.58,0,0,0-1.841,0L76.7,164.532a1.317,1.317,0,0,1-1.841,0l-10.39-9.322a1.58,1.58,0,0,0-1.841,0l-8.681,8.14a1.315,1.315,0,0,1-2.236-1.05V79.453A7.885,7.885,0,0,1,59.6,71.575h56.554a7.885,7.885,0,0,1,7.891,7.878v63.022Z"
                  transform="translate(-51.702 -56.187)" fill="#d4e1f4"/>
        </g>
        <g id="Group_106" data-name="Group 106" transform="translate(41.274)">
            <path id="Path_76" data-name="Path 76"
                  d="M92.173,159.738a4.213,4.213,0,0,1-2.63-1.051l-9.469-8.535L70.6,158.688a3.95,3.95,0,0,1-5.261,0l-9.6-8.535-7.891,7.222a3.818,3.818,0,0,1-4.209.788,4.07,4.07,0,0,1-2.367-3.677V71.631A10.513,10.513,0,0,1,51.8,61.126H108.35a10.513,10.513,0,0,1,10.522,10.5v82.855a4.07,4.07,0,0,1-2.367,3.677,3.818,3.818,0,0,1-4.209-.788l-7.891-7.222-9.6,8.535A4.212,4.212,0,0,1,92.173,159.738Zm-12.1-15.232a3.553,3.553,0,0,1,2.63,1.051l9.469,8.4,9.6-8.535a3.819,3.819,0,0,1,5.261.131l6.576,6.04V71.631a5.256,5.256,0,0,0-5.261-5.252H51.8a5.256,5.256,0,0,0-5.261,5.252V151.6l6.576-6.04a3.819,3.819,0,0,1,5.261-.131l9.6,8.535,9.469-8.535A4.083,4.083,0,0,1,80.073,144.506Z"
                  transform="translate(-41.274 -45.738)" fill="#083863"/>
            <path id="Path_77" data-name="Path 77"
                  d="M139.629,162H122.794a2.63,2.63,0,1,1,0-5.261h16.835a2.63,2.63,0,1,1,0,5.261Z"
                  transform="translate(-100.131 -117.337)" fill="#083863"/>
            <path id="Path_78" data-name="Path 78"
                  d="M155.411,229.914H122.793a2.63,2.63,0,0,1,0-5.261h32.618a2.63,2.63,0,0,1,0,5.261Z"
                  transform="translate(-100.082 -168.182)" fill="#083863"/>
            <path id="Path_79" data-name="Path 79"
                  d="M155.411,297.832H122.793a2.63,2.63,0,0,1,0-5.261h32.618a2.63,2.63,0,1,1,0,5.261Z"
                  transform="translate(-100.082 -219.028)" fill="#083863"/>
            <path id="Path_80" data-name="Path 80"
                  d="M177.619,97.165a3.422,3.422,0,0,1-2.63-1.051L167.1,88.893l-2.236,1.97-3.42-3.939,3.025-2.757a3.819,3.819,0,0,1,5.261.131l6.576,6.04V10.5a5.256,5.256,0,0,0-5.261-5.252H114.489a5.256,5.256,0,0,0-5.261,5.252v7.484h-5.261V10.5A10.513,10.513,0,0,1,114.489,0h56.554a10.513,10.513,0,0,1,10.522,10.5V93.226A4.07,4.07,0,0,1,179.2,96.9,3.294,3.294,0,0,1,177.619,97.165Z"
                  transform="translate(-87.565)" fill="#083863"/>
        </g>
    </g>
</svg>
