<svg xmlns="http://www.w3.org/2000/svg" width="130" height="114" viewBox="0 0 130 114">
    <g id="wifi" transform="translate(0 -0.212)">
        <path id="Path_64" data-name="Path 64"
              d="M334.919,267.421a5.817,5.817,0,0,1,1.954,4.323,6.21,6.21,0,0,1-2,4.326,6.721,6.721,0,0,1-4.572,1.759,6.516,6.516,0,0,1-6.352-4.5,5.9,5.9,0,0,1,3.038-6.844,6.981,6.981,0,0,1,7.934.932Zm0,0"
              transform="translate(-229.899 -194.079)" fill="#fedb41"/>
        <path id="Path_65" data-name="Path 65"
              d="M116.589,56.491c-.125.005-.25.007-.375.007a6.581,6.581,0,0,1-6.79-6.247,6.832,6.832,0,1,1,7.165,6.24Zm0,0"
              transform="translate(-77.712 -31.93)" fill="#00acea"/>
        <path id="Path_66" data-name="Path 66" d="M66.094,362.152h94.182v14H66.094Zm0,0"
              transform="translate(-46.882 -264.626)" fill="#00acea"/>
        <path id="Path_67" data-name="Path 67"
              d="M35.97,257.938H23.676v-27.57c0-5.94,5.19-10.755,11.594-10.755h97.024c6.4,0,11.594,4.814,11.594,10.755v27.57Zm87.788-19.862a6.575,6.575,0,1,0-6.557,6.085,6.691,6.691,0,0,0,4.559-1.759A6.217,6.217,0,0,0,123.758,238.076Zm0,0"
              transform="translate(-16.794 -160.412)" fill="#00efd1"/>
        <g id="Group_104" data-name="Group 104" transform="translate(0 0.212)">
            <path id="Path_68" data-name="Path 68"
                  d="M125.207,80.82H51.475V51.061A8.992,8.992,0,0,0,57.833,40.83a9.631,9.631,0,0,0-9.949-7.367,9.5,9.5,0,0,0-9.347,8.017,9.1,9.1,0,0,0,7.141,9.776V80.82H28.17c-8,.008-14.485,6.022-14.494,13.443v27.57a2.8,2.8,0,0,0,2.9,2.689h9.4V135.83a2.8,2.8,0,0,0,2.9,2.689h94.268a2.8,2.8,0,0,0,2.9-2.689V124.522H136.8a2.8,2.8,0,0,0,2.9-2.689V94.263c-.009-7.421-6.493-13.435-14.494-13.443ZM44.269,42.541a3.6,3.6,0,0,1,1.952-3.2,4.2,4.2,0,0,1,3.96,0,3.6,3.6,0,0,1,1.952,3.2,3.716,3.716,0,0,1-3.691,3.641A4.132,4.132,0,0,1,45.415,45.1a3.494,3.494,0,0,1-1.146-2.56Zm75.971,90.6H31.769v-8.62H120.24Zm13.663-14H19.473V94.264c.006-4.453,3.9-8.061,8.7-8.066h97.037c4.8.005,8.691,3.613,8.7,8.066Zm0,0"
                  transform="translate(-9.7 -24.519)" fill="#083863"/>
            <path id="Path_69" data-name="Path 69"
                  d="M92.282,262.031a2.8,2.8,0,0,0-2.907,2.689v10.137a2.916,2.916,0,0,0,5.813,0V264.72A2.8,2.8,0,0,0,92.282,262.031Zm0,0"
                  transform="translate(-63.468 -191.636)" fill="#083863"/>
            <path id="Path_70" data-name="Path 70"
                  d="M323.216,255.664c-5.235,0-9.48,3.927-9.482,8.77s4.247,8.768,9.482,8.774a9.725,9.725,0,0,0,6.63-2.549,8.8,8.8,0,0,0,2.849-6.123c0-.034,0-.067,0-.1,0-4.843-4.247-8.768-9.482-8.77Zm2.52,11.193a3.773,3.773,0,0,1-5.907-1.117,3.207,3.207,0,0,1,.786-3.695,3.886,3.886,0,0,1,3.974-.754,3.409,3.409,0,0,1,2.295,3.094A3.615,3.615,0,0,1,325.735,266.857Zm0,0"
                  transform="translate(-222.822 -186.981)" fill="#083863"/>
            <path id="Path_71" data-name="Path 71"
                  d="M150.552,262.031a2.8,2.8,0,0,0-2.907,2.689v10.137a2.916,2.916,0,0,0,5.813,0V264.72A2.8,2.8,0,0,0,150.552,262.031Zm0,0"
                  transform="translate(-104.848 -191.636)" fill="#083863"/>
            <path id="Path_72" data-name="Path 72"
                  d="M53.835,45.305a2.918,2.918,0,0,0,2.685-1.659,2.541,2.541,0,0,0-.63-2.93,9.182,9.182,0,0,1,0-13.686,2.547,2.547,0,0,0-.031-3.773,3.079,3.079,0,0,0-4.08-.029,14.284,14.284,0,0,0,0,21.29,3.02,3.02,0,0,0,2.055.788Zm0,0"
                  transform="translate(-33.353 -16.485)" fill="#083863"/>
            <path id="Path_73" data-name="Path 73"
                  d="M9.37,34.735a2.917,2.917,0,0,0,2.685-1.66,2.545,2.545,0,0,0-.63-2.93,17.1,17.1,0,0,1,.016-25.357,2.549,2.549,0,0,0-.032-3.8,3.076,3.076,0,0,0-4.11.029,22.209,22.209,0,0,0,.016,32.934,3.02,3.02,0,0,0,2.055.788Zm0,0"
                  transform="translate(0 -0.212)" fill="#083863"/>
        </g>
    </g>
</svg>
