<svg xmlns="http://www.w3.org/2000/svg" viewBox="0 0 228.63 221.59">
    <defs>
        <style>
            .cls-1{fill:#f07e41;}.cls-2{fill:#f2a648;}.cls-3{fill:#195681;}.cls-4{fill:#f4aa47;}.cls-5{fill:#e21b22;}.cls-6{fill:#f0c53d;}.cls-7{fill:#f6ca3f;}.cls-8{fill:#f4ac46;}.cls-9{fill:#f2c73e;}.cls-10{fill:#ecce00;}.cls-11{fill:#f5b044;}.cls-12{fill:#ea1c24;}.cls-13{fill:#f2d300;}.cls-14{fill:#e51b23;}.cls-15{fill:#eacc01;}.cls-16{fill:#f6d600;}.cls-17{fill:#e81c23;}.cls-18{fill:#f8d800;}.cls-19{fill:#e7793f;}.cls-20{fill:#f0d100;}.cls-21{fill:#e3773e;}.cls-22{fill:#ed7d41;}.cls-23{fill:#f9cc3f;}.cls-24{fill:#df763d;}
        </style>
    </defs>
    <g id="Layer_2" data-name="Layer 2">
        <g id="Layer_1-2" data-name="Layer 1">
            <path class="cls-1"
                  d="M114.09,59.56c2.14-2.05,4.88-2.39,7.64-2.61a70.35,70.35,0,0,0,7.39-.62c7.31-1.34,11.87-5.8,14.22-12.71,1.25-3.7,1.6-7.56,2.13-11.39.26-1.9.6-3.78,1-5.65,1.47-6.24,5.82-9.45,11.63-11.16,3.05-.9,6.21-1.05,9.31-1.62a21.73,21.73,0,0,0,10-4.57c.6-.49,1-.6,1.56,0,2.29,2.56,4.61,5.1,7,7.59.64.68.48,1-.2,1.44-3.21,2.16-6.89,3.08-10.56,4.05-2.38.64-4.77,1.28-7.16,1.9-6.47,1.68-10,6-11.33,12.41a90.33,90.33,0,0,0-1.2,10.1c-.5,5.57-2.11,10.63-6.53,14.44-3.37,2.9-7.39,4.16-11.67,4.83-1.7.26-3.39.54-5.08.82a16.79,16.79,0,0,0-8.62,4.38c.42-1.64-.55-2.4-1.75-3.29s-1.48-2.29-2.66-3C117.07,63.55,115.93,61.23,114.09,59.56Z"/>
            <path class="cls-2"
                  d="M140.71,83.14c-3.67,3.21-4.82,7.47-5.07,12.12-.21,3.9-.11,7.83-1.17,11.64a14,14,0,0,1-5.11,7.61,30.48,30.48,0,0,1-16.05,6.6,4.72,4.72,0,0,1-3.65-1c-3.27-2.56-6.66-5-10-7.44l-1-.79a48.13,48.13,0,0,0,7.72-1,33.85,33.85,0,0,0,12.92-6c2.19-1.69,3.39-4.21,4.41-6.75A32.18,32.18,0,0,0,125.6,85.9a48.46,48.46,0,0,1,.42-6.81,8.7,8.7,0,0,1,3.81-6.37,2.7,2.7,0,0,1,2.34,1.41,26.88,26.88,0,0,0,4.43,4.17,38.86,38.86,0,0,1,3.56,3.35A1.48,1.48,0,0,1,140.71,83.14Z"/>
            <path class="cls-3" d="M76,26.09A14.55,14.55,0,1,1,61.37,11.46,14.48,14.48,0,0,1,76,26.09Z"/>
            <path class="cls-3" d="M14.59,92.66A14.63,14.63,0,1,1,0,107.26,14.57,14.57,0,0,1,14.59,92.66Z"/>
            <path class="cls-3" d="M164.9,199.23a14.58,14.58,0,1,1-14.38-14.71A14.53,14.53,0,0,1,164.9,199.23Z"/>
            <path class="cls-3" d="M88.35,206.89A14.55,14.55,0,1,1,103,221.59,14.51,14.51,0,0,1,88.35,206.89Z"/>
            <path class="cls-3" d="M57.26,205.43A14.64,14.64,0,1,1,71.8,190.86,14.58,14.58,0,0,1,57.26,205.43Z"/>
            <path class="cls-3" d="M27.71,46.08A14.65,14.65,0,1,1,13.08,60.71,14.55,14.55,0,0,1,27.71,46.08Z"/>
            <path class="cls-3" d="M25.41,169.05A14.64,14.64,0,1,1,39.9,154.16,14.62,14.62,0,0,1,25.41,169.05Z"/>
            <path class="cls-3" d="M202.8,169.3a14.58,14.58,0,1,1-14.63-14.65A14.67,14.67,0,0,1,202.8,169.3Z"/>
            <path class="cls-4"
                  d="M140.71,83.14c-.93-2-2.78-3.19-4.34-4.63s-3.17-2.36-4.28-4.08a5.47,5.47,0,0,0-2.26-1.71c1.77-2.1,4.2-2.77,6.78-3.08,3.09-.37,6.23-.22,9.28-.84,6.53-1.31,10.86-5.23,13.34-11.32a42,42,0,0,0,2.21-9.72.76.76,0,0,1,.95.29,29.77,29.77,0,0,0,3.67,3.06c1.33,1.09,2.23,2.58,3.45,3.78.41.4,1.14.6,1.17,1.35-.11,3.14.32,6.32-.36,9.43-1.28,5.8-5.27,9.19-10.51,11.36a32.4,32.4,0,0,1-8.25,1.88C147.59,79.44,143.81,80.4,140.71,83.14Z"/>
            <path class="cls-5"
                  d="M104.48,70.64A29,29,0,0,1,103.06,81a13.31,13.31,0,0,1-4.35,6C93.65,91,88.06,93.59,81.55,93.89A3.65,3.65,0,0,1,79,93.12c-3.69-2.79-7.43-5.51-11.38-8.42,1.58-.15,2.9-.24,4.21-.4a34.78,34.78,0,0,0,16.46-6.62A13,13,0,0,0,91.77,73c2.16-4,2.74-8.37,2.86-12.84,0-.52,0-1,.05-1.55a4.19,4.19,0,0,1,2.25,2,.67.67,0,0,1-.21,1c-1.11.48-.38.81.06,1.17a1.19,1.19,0,0,0,.52.28c.18,0,.17-.13.15-.25-.07-.45-.34-1,.38-1.16A.93.93,0,0,1,99,62.4c.12.53,0,1.19,1,.79.4-.17.45.37.47.65a3.07,3.07,0,0,0,.62,2c.36.39.13.74-.24,1-.6.41-.67.83-.14,1.36s1.17,1.36.42,2.29c.61,1.77-.57,1.41-1.55,1.31-.16,0-.29.1-.45.41.88-.35,1.43.06,2,.75.52-.92.85-1.84,1.76-2.26,0-.39-.39-.39-.53-.61a1.31,1.31,0,0,1,0-1.47,1.09,1.09,0,0,1,1.28-.41c.53.13,1,.36,1,1A3.26,3.26,0,0,1,104.48,70.64Z"/>
            <path class="cls-6"
                  d="M150,111.6l0,1.2c-.78.48-1.06,0-1.21-.65-.09-.41-.23-.87-.74-.71s-.16.64-.11,1c.12.84.43,1.51,1.43,1.58.38,0,.45.29.46.67s-.39.82,0,1.24c-.22,1.4-.21,2.83-.57,4.22a14.79,14.79,0,0,1-5.62,8.38c-5,3.76-10.52,6.15-16.87,6.36a3,3,0,0,1-2-.64c-3.8-2.84-7.62-5.65-11.67-8.64a38.42,38.42,0,0,0,8-1A34.44,34.44,0,0,0,133.4,119c2.85-2.09,4.21-5.24,5.35-8.46.31-.9.52-1.83.78-2.74.06-.47.32-.48.75-.48,1.16,0,1.61-.71,1.25-1.81a2.18,2.18,0,0,1-.2-.69c0-.61.08-1.36.65-1.56.72-.25.67.64.86,1,.33.64.38,1.2,1.35.55s1.9-.13,1.77,1.17c-.06.6,0,1,.6,1.17.78.18,1.4,1.26,2.36.39.39-.36.82-.69,1.36-.23l-.06,1.21C150.3,109.54,149.77,110.55,150,111.6Z"/>
            <path class="cls-7"
                  d="M186.74,66.3c-.36,3.8-.24,7.66-1.07,11.4-1.7,7.72-6.81,12.06-14.23,14-.81.2-1.64.3-2.46.45-3.07-2.57-5.89-5.4-8.86-8.08-.36-.32-.87-.61-.74-1.25a23.18,23.18,0,0,0,6.41-2.15c4.72-2.72,7.43-7,9.2-12a62,62,0,0,0,2.21-8.91c.89-.41.82.21.75.75s-.28,1.21.7,1.5c-.73-.83-.27-1.82-.66-2.7-.2-.47.46-.71,1-.63a2.25,2.25,0,0,1,1.63,2.63,2.28,2.28,0,0,1,2.6,1.38c.53,1.11,1.57,1.55,2.47,2.16C186.25,65.26,186.75,65.56,186.74,66.3Z"/>
            <path class="cls-8"
                  d="M170.68,56.24A14.67,14.67,0,0,1,167.51,53a13,13,0,0,0-2.41-2.28c-1.24-1-2.44-2-3.65-3a80.58,80.58,0,0,1,1.27-8,14.35,14.35,0,0,1,8.33-10.53A43.3,43.3,0,0,1,182.85,26a.41.41,0,0,1,.53.13c1.17,1.55,3,2.46,4,4.25.26.52.88.66,1.33,1,1.23.88,2.48,1.77,2.6,3.48-2,.55-4,1.15-6,1.64-6.17,1.48-10.08,5.43-12.46,11.17A32.2,32.2,0,0,0,170.68,56.24Z"/>
            <path class="cls-9"
                  d="M159.38,82.81c1.53,1.91,3.56,3.3,5.25,5,1.42,1.47,3.16,2.6,4.35,4.3-2.44.58-5,.74-7.39,1.39a14.81,14.81,0,0,0-11.11,13,5.85,5.85,0,0,1-.2.8c-.27,0-.69,0-.79.12-1.09,1.63-2.13.49-3.08-.09-.39-.23-.76,0-1.09-.22a4.31,4.31,0,0,0,.37-1c0-.42.22-1-.21-1.21a1.27,1.27,0,0,0-1.5.34c-.72.9-1.08.68-1.15-.39,0-.6-.84-.85-.65-1.57-.53.83-.85,1.6-.16,2.48a.76.76,0,0,1-.14,1.08c-.56.27-.86,1.26-1.69.74-.38-.23-.47,0-.66.17a73.87,73.87,0,0,0,.71-11.32,16.32,16.32,0,0,1,.58-4.73A11.35,11.35,0,0,1,150,83.58C153.06,82.94,156.25,83.11,159.38,82.81Z"/>
            <path class="cls-10"
                  d="M171,111.87c-3.49,4-3.74,8.89-3.92,13.81a31.94,31.94,0,0,1-1.44,10,12.29,12.29,0,0,1-3.57,5.27c-1.32-1.09-2.49-2.35-3.74-3.52-1.07-1-2.31-1.8-3.41-2.78a22.31,22.31,0,0,0-2.74-2.49.54.54,0,0,1-.24-.72c4.2-5.29,5.26-11.48,5.28-18a33.56,33.56,0,0,1,.52-7.62,7.86,7.86,0,0,1,1.95-4,1.38,1.38,0,0,1,1.28.72c1.46,1.86,3.52,3.1,5.06,4.83S169.53,110.14,171,111.87Z"/>
            <path class="cls-11"
                  d="M191.27,34.79a6.63,6.63,0,0,0-3.45-3.59c-1-.41-1.15-1.52-1.88-2.21a20.18,20.18,0,0,1-3.09-3,34.88,34.88,0,0,0,9.54-4,11.58,11.58,0,0,0,5.39-8.61A53.33,53.33,0,0,0,198,1.63c0-.46,0-.93,0-1.63l5.87,5.14A25.75,25.75,0,0,0,206.05,7a4.38,4.38,0,0,1,2,3.8,31.65,31.65,0,0,1-2.12,13.72,14.58,14.58,0,0,1-9.23,8.62C194.87,33.76,193.1,34.38,191.27,34.79Z"/>
            <path class="cls-12"
                  d="M126,34.61c4.06-5.93,5.15-12.8,6.27-19.67a25.82,25.82,0,0,1,1.89-7.27c1.11-2.29,1.39-2.32,3-.38q3.65,4.51,7.32,9c.35.43.56.71.07,1.26-2.24,2.53-3,5.64-3.38,8.91s-.29,6.79-1,10.13a15.41,15.41,0,0,1-3.36,7.29,24.8,24.8,0,0,1-3.95-3.2c-1.59-1.41-3.37-2.61-4.91-4.1C127.3,36,126.33,35.61,126,34.61Z"/>
            <path class="cls-13"
                  d="M201.62,85.51a27.28,27.28,0,0,1-.65,6.63c-1.63,6.42-6.12,10.13-12,12.43a13.74,13.74,0,0,1-4.15,1,4.65,4.65,0,0,1-1.82-1.33,64.86,64.86,0,0,0-4.77-4.46c-1-1-2.44-1.67-3.06-3.1,1-.19,2-.34,3-.59,7.14-1.75,11.27-6.52,13.34-13.34.56-1.87.85-3.81,1.23-5.72.45-.6.77-.13,1,.18a4.13,4.13,0,0,0,1.13,1.19,1,1,0,0,1,.31,1.37c-.39.85.28,1.24.68,1.74s.85,0,1.24-.14a1.14,1.14,0,0,1,1.34,0C199.78,82.59,201.33,83.57,201.62,85.51Z"/>
            <path class="cls-14"
                  d="M104.48,70.64c-.09-.82.32-1.86-.94-2.15-.47-.11-1-.18-1.18.45-.1.46-.29,1.08.54,1.19a.55.55,0,0,1,.55.53c0,.41-.35.31-.58.42a2.13,2.13,0,0,0-1.29,1.76c0,.24,0,.51-.31.57a.51.51,0,0,1-.58-.32c-.48-1-1.16-.94-2-.25,0-1.19.35-1.73,1.5-1.31.25.08.64.4.86,0s-.12-.56-.39-.75-.34-.48-.06-.57c1.26-.45.54-1.18.12-1.57-.89-.81-1.45-1.45.07-2.12.19-.08.38-.29.14-.45-1-.67-.69-1.7-.77-2.77-.31.4-.6.69-1.05.45s-.35-.58-.37-.94.08-.65-.26-.86-.48-.35-.76-.15-.14.43,0,.63.52.76.12,1-.69-.22-1-.44c-1-.69-1-.7-1.26-1.46.32-.37,1.18.21,1.2-.61a1.09,1.09,0,0,0-1-1.23c-.67-.08-.36-1.06-1-1.17a36.12,36.12,0,0,1,.64-8.1c.81-3.76,6.26-8.33,10.52-8,.34-.15.51.13.71.29,3.43,2.87,6.87,5.72,10.28,8.61.23.2.54.38.37.78A18.88,18.88,0,0,0,110,55.74,14.45,14.45,0,0,0,105,65.42C104.73,67.15,104.63,68.9,104.48,70.64Z"/>
            <path class="cls-15"
                  d="M151.92,131.44c2,1.68,3.7,3.8,6,5.2a14.12,14.12,0,0,1,2.73,2.78c.46.5,1.35.64,1.37,1.53a30.23,30.23,0,0,1-14.89,7.37,8.26,8.26,0,0,1-7.58-1.86c-2.87-2.49-6.09-4.59-9.37-7,2.2-.28,4.16-.33,6.09-.7a36.84,36.84,0,0,0,14.56-6.35A12.08,12.08,0,0,0,151.92,131.44Z"/>
            <path class="cls-16"
                  d="M201.62,85.51c-.36-.33-.89-.52-.76-1.19.08-.39-.2-.66-.49-.9a10.32,10.32,0,0,1-1.81-1.53c-.55-.69-1-.51-1.51-.1-.65.57-1,.63-1.55-.2s-1.2-1.26-.42-2.18c0,0,0-.15,0-.23a8,8,0,0,0-2.34-2.12c.52-4,.83-8.08,2.13-12a12.39,12.39,0,0,1,7.11-8c.7-.1,1.12.41,1.52.8,1.48,1.45,3.15,2.69,4.53,4.27.9,1,2.33,1.53,3.09,2.77.2.33.61.54.51,1a13.13,13.13,0,0,0-5.09,5,32.68,32.68,0,0,0-4.16,9.7C202.07,82.28,201.88,83.9,201.62,85.51Z"/>
            <path class="cls-17"
                  d="M117.2,52.18l-4.39-3.79-7-5.89a21.36,21.36,0,0,1,4.37-.41c4.5-.2,8.78-1.05,12.4-4A35.2,35.2,0,0,0,126,34.61c2.07,1.64,4.1,3.35,6.12,5a29.9,29.9,0,0,1,4.67,4.26,18.37,18.37,0,0,1-10.56,6.72A89.75,89.75,0,0,1,117.2,52.18Z"/>
            <path class="cls-18"
                  d="M211.66,66a31.21,31.21,0,0,0-3.51-3.29c-1.29-1.14-2.53-2.38-3.77-3.6a16.52,16.52,0,0,0-2.37-2c3.13-1.9,6.64-2.67,10.17-3.29a29.49,29.49,0,0,0,13.53-5.69,14.53,14.53,0,0,0,2.89-3.69v1.12c0,4.6,0,9.19,0,13.78A1.42,1.42,0,0,1,227.47,61c-2.81.92-5.68,1.61-8.52,2.37A38.52,38.52,0,0,0,211.66,66Z"/>
            <path class="cls-19"
                  d="M105.63,89.05c2.8-4.58,3.57-9.65,3.63-14.89,0-.71,0-1.43,0-2.15a4.26,4.26,0,0,0,.07-1.18c0-.3-.13-.69.29-.83a1,1,0,0,1,.89.26,17.09,17.09,0,0,1,1.81,1.9c1.93,2.13,4.06,4,6.06,6.12a3,3,0,0,1,.91,2.89c-.3,4.42,0,8.91-1.23,13.24a11.9,11.9,0,0,1-2.58,5,4.45,4.45,0,0,1-1.79-1.7c-1.23-1.7-3-2.77-4.5-4.16-.12-.1-.3-.16-.36-.31C108.2,91.55,106.55,90.58,105.63,89.05Z"/>
            <path class="cls-20"
                  d="M175.16,96.71c.86.19.84,1.19,1.5,1.6,1.54,1,2.72,2.43,4.14,3.49s2.07,2.4,3.47,3.17c.23.13.36.42.54.63a34.34,34.34,0,0,1-4.7,1.06,18.37,18.37,0,0,0-9.13,5.21c-.5,0-.75-.4-1.09-.67-1.75-1.36-3.26-3-4.95-4.42-1.86-1.56-3.44-3.4-5.27-5A12.38,12.38,0,0,1,168.94,97Z"/>
            <path class="cls-21"
                  d="M105.63,89.05a8.94,8.94,0,0,1,2.93,3.13,8,8,0,0,0,2.36,2.4,29.4,29.4,0,0,1,4.61,4.86A27.39,27.39,0,0,1,104,107c-.85-1.15-2-2-2.94-3-1.5-1.7-3.25-3.14-4.67-4.9-.56-.68-1.62-1-1.56-2.12,2.24-1.09,4.46-2.22,6.61-3.5A14.44,14.44,0,0,0,105.63,89.05Z"/>
            <path class="cls-22"
                  d="M119.34,81.17c.15-1.59-.9-2.54-1.91-3.47-1.51-1.39-2.86-3-4.41-4.31a10.85,10.85,0,0,1-2-2.27c-.3-.46-.68-1-1.17-.87s-.2.8-.31,1.22c0,.18-.13.36-.19.54a28.44,28.44,0,0,1,.51-6.38c.52-2.67,2.21-4.5,4.27-6.07a1.69,1.69,0,0,1,1.29.93c.57,1,1.64,1.6,2.15,2.77.3.67,1.49.88,2.12,1.58.42.46.88.89,1.27,1.4a7.78,7.78,0,0,0,2,2.1c1.53,1,1.45,1.1.77,2.89A14.81,14.81,0,0,0,119.57,80,2.59,2.59,0,0,1,119.34,81.17Z"/>
            <path class="cls-23"
                  d="M186.74,66.3c-.51-.46-.69-1.43-1.7-1.16,0-1.29-2-.71-2-2.21,0-.52-.86-1.17-1.58-1.47-.31-.12-.42,0-.5.27s-.3.52-.63.32-.18-.43-.05-.71A1.83,1.83,0,0,0,179,59c-.32-.08-.62-.23-.83.15s0,.52.27.69.47.51.23.81c-.41.51-.32.84.25,1.11.22.12.39.34.21.59s-.39,0-.6,0c-1.05-.18-1.29-.75-.93-1.69.15-.39.39-.9-.42-.85a6.39,6.39,0,0,1,.39-2c.39-.1,0-.28,0-.42a32.32,32.32,0,0,1,1.89-8.35,7.17,7.17,0,0,1,.48-1c1-1.64,1.15-1.67,2.31-.24,2.55,3.12,5.07,6.26,7.63,9.37.44.54.54.89,0,1.48C188,60.85,187.33,63.56,186.74,66.3Z"/>
            <path class="cls-24"
                  d="M94.81,96.94a52.6,52.6,0,0,0,4.7,4.86,4.15,4.15,0,0,1,1.12,1.21,3.11,3.11,0,0,0,1.5,1.45A3.74,3.74,0,0,1,104,107a26.37,26.37,0,0,1-8.29,1.63,1.78,1.78,0,0,1-1.27-.24c-4-2.94-8-5.88-11.92-9A41.26,41.26,0,0,0,94.81,96.94Z"/>
            <path class="cls-9"
                  d="M149.78,115.92l-.11,0c0-1.15-.62-1.63-1.58-2.18-.54-.31-.69-1.5-.8-2.32,0-.44.66-.35,1-.4.5-.08.79.37.77.84,0,.7.19,1.07.94,1A10.23,10.23,0,0,1,149.78,115.92Z"/>
            <path class="cls-9" d="M150,111.6c-.5-1.07.07-2.07.2-3.1A17.88,17.88,0,0,1,150,111.6Z"/>
            <path class="cls-7"
                  d="M177.64,57.4a4.87,4.87,0,0,1,.32.47c.11.22.13.53-.17.52s-.13-.37-.2-.57S177.62,57.54,177.64,57.4Z"/>
            <path class="cls-9"
                  d="M144.44,106.86c-.95.29-.66,1.49-1.42,2a.5.5,0,0,1-.66,0c-.17-.14-.25-.38-.08-.51a7,7,0,0,0,1.24-1.85c.11-.18.24-.34.47-.2A.79.79,0,0,1,144.44,106.86Z"/>
            <path class="cls-9"
                  d="M146.41,108.53a.76.76,0,0,1-.82.76c-.49,0-1.06-.11-1.07-.83,0-.31,0-.84.33-.74A3.76,3.76,0,0,1,146.41,108.53Z"/>
            <path class="cls-9"
                  d="M143.41,110a.85.85,0,0,1,.53.56.22.22,0,0,1-.27.27c-.34,0-.42-.31-.5-.55S143.22,110,143.41,110Z"/>
            <path class="cls-9"
                  d="M145.86,111.5a.26.26,0,0,1-.26.31.48.48,0,0,1-.48-.29c-.08-.18,0-.31.17-.35A.5.5,0,0,1,145.86,111.5Z"/>
            <path class="cls-5"
                  d="M102.44,67.9a.82.82,0,0,1-.87-.36c-.21-.29,0-.45.24-.53.72-.26.64-.65.23-1.13a.41.41,0,0,1,.1-.69c.23-.14.5-.14.59.14s.42.43.69.58c.1,0,.23.22.22.25C103.23,66.78,102.8,67.39,102.44,67.9Z"/>
            <path class="cls-13"
                  d="M196.23,81.48c0-.68-.75-.93-.42-1.56a.3.3,0,0,1,.5,0A1.07,1.07,0,0,1,196.23,81.48Z"/>
        </g>
    </g>
</svg>