<svg xmlns="http://www.w3.org/2000/svg" width="1646.624" height="161.769" viewBox="0 0 1646.624 161.769">
    <g id="header-charge" transform="translate(-241.022 -122.977)">
        <g id="_001-responsive" data-name="001-responsive"
           transform="matrix(0.966, -0.259, 0.259, 0.966, 241.022, 223.002)" opacity="0.38">
            <g id="Group_366" data-name="Group 366" transform="translate(0 0)">
                <g id="Group_365" data-name="Group 365" transform="translate(0 0)">
                    <path id="Path_295" data-name="Path 295"
                          d="M33.606,8.635h-5.4v-5.4A3.242,3.242,0,0,0,24.971,0H3.238A3.242,3.242,0,0,0,0,3.238V33.606a3.242,3.242,0,0,0,3.238,3.238H33.606a3.242,3.242,0,0,0,3.238-3.238V11.874A3.242,3.242,0,0,0,33.606,8.635ZM2.159,3.238A1.081,1.081,0,0,1,3.238,2.159H24.971A1.081,1.081,0,0,1,26.05,3.238V4.318H2.159ZM3.238,34.686a1.081,1.081,0,0,1-1.079-1.079V30.368H17.415v3.238a3.223,3.223,0,0,0,.186,1.079ZM17.415,11.874V28.209H2.159V6.477H26.05V8.635h-5.4A3.242,3.242,0,0,0,17.415,11.874ZM34.686,33.606a1.081,1.081,0,0,1-1.079,1.079H20.653a1.081,1.081,0,0,1-1.079-1.079V32.527H34.686Zm0-3.238H19.574V15.112H34.686Zm0-17.415H19.574V11.874a1.081,1.081,0,0,1,1.079-1.079H33.606a1.081,1.081,0,0,1,1.079,1.079Z"
                          fill="#fff"/>
                </g>
            </g>
            <g id="Group_368" data-name="Group 368" transform="translate(4.318 8.635)">
                <g id="Group_367" data-name="Group 367" transform="translate(0 0)">
                    <path id="Path_296" data-name="Path 296"
                          d="M9.715,0H1.079A1.079,1.079,0,0,0,0,1.079V7.556A1.079,1.079,0,0,0,1.079,8.635H9.715a1.079,1.079,0,0,0,1.079-1.079V1.079A1.079,1.079,0,0,0,9.715,0ZM8.635,6.477H2.159V2.159H8.635Z"
                          fill="#fff"/>
                </g>
            </g>
            <g id="Group_370" data-name="Group 370" transform="translate(4.318 19.43)">
                <g id="Group_369" data-name="Group 369" transform="translate(0)">
                    <path id="Path_297" data-name="Path 297"
                          d="M5.4,0H1.079a1.079,1.079,0,1,0,0,2.159H5.4A1.079,1.079,0,0,0,5.4,0Z" fill="#fff"/>
                </g>
            </g>
            <g id="Group_372" data-name="Group 372" transform="translate(21.732 17.271)">
                <g id="Group_371" data-name="Group 371" transform="translate(0)">
                    <path id="Path_298" data-name="Path 298"
                          d="M9.715,0H1.079a1.079,1.079,0,1,0,0,2.159H9.715A1.079,1.079,0,0,0,9.715,0Z" fill="#fff"/>
                </g>
            </g>
            <g id="Group_374" data-name="Group 374" transform="translate(21.732 21.589)">
                <g id="Group_373" data-name="Group 373">
                    <path id="Path_299" data-name="Path 299"
                          d="M5.4,0H1.079a1.079,1.079,0,1,0,0,2.159H5.4A1.079,1.079,0,0,0,5.4,0Z" fill="#fff"/>
                </g>
            </g>
        </g>
        <g id="_002-product" data-name="002-product" transform="translate(593.799 213.608) rotate(21)" opacity="0.38">
            <path id="Path_300" data-name="Path 300"
                  d="M42.387.69A1.429,1.429,0,0,0,41.164,0,12.073,12.073,0,0,0,30.878,5.717H13.925A7.1,7.1,0,0,0,8.872,7.811L.418,16.264a1.43,1.43,0,0,0,0,2.022c3.471,3.471,7.114,7.087,7.151,7.123a1.429,1.429,0,0,0,2.015,0l5.422-5.4H26.98a9.974,9.974,0,0,0,8.862-5.361c.044-.083,4.373-8.345,6.586-12.555a1.429,1.429,0,0,0-.042-1.4ZM33.31,13.324a7.123,7.123,0,0,1-6.33,3.829H14.416a1.429,1.429,0,0,0-1.008.416l-4.833,4.81c-1.139-1.132-3.1-3.081-5.124-5.1l7.442-7.442a4.26,4.26,0,0,1,3.032-1.256H29.343l-1.1,2.093a1.425,1.425,0,0,1-1.266.766H17.275a1.429,1.429,0,1,0,0,2.859H26.98a4.277,4.277,0,0,0,3.8-2.3l2.206-4.21a9.224,9.224,0,0,1,5.626-4.571c-2.281,4.345-5.264,10.039-5.3,10.109Zm0,0"
                  transform="translate(0 22.965)" fill="#fff"/>
            <path id="Path_301" data-name="Path 301"
                  d="M1.429,25.824H18.582a1.429,1.429,0,0,0,1.429-1.429V7.147a1.429,1.429,0,0,0-1.429-1.429H14.294V4.288a4.288,4.288,0,0,0-8.576,0V5.717H1.429A1.429,1.429,0,0,0,0,7.147V24.395A1.429,1.429,0,0,0,1.429,25.824ZM8.576,4.288a1.429,1.429,0,1,1,2.859,0V5.717H8.576ZM2.859,8.576H5.717v1.429a1.429,1.429,0,0,0,2.859,0V8.576h2.859v1.429a1.429,1.429,0,0,0,2.859,0V8.576h2.859V22.965H2.859Zm0,0"
                  transform="translate(11.557 0)" fill="#fff"/>
        </g>
        <g id="_003-antenna" data-name="003-antenna" transform="matrix(0.848, -0.53, 0.53, 0.848, 713.241, 147.552)"
           opacity="0.38">
            <path id="Path_302" data-name="Path 302"
                  d="M9.721,3.548A2.078,2.078,0,0,0,6.782.609a23.22,23.22,0,0,0,0,32.8,2.078,2.078,0,1,0,2.94-2.939A19.058,19.058,0,0,1,9.721,3.548Z"
                  transform="translate(0 0.001)" fill="#fff"/>
            <path id="Path_303" data-name="Path 303"
                  d="M3.549.609A2.079,2.079,0,0,0,.61,3.548a18.909,18.909,0,0,1,5.575,13.46A18.91,18.91,0,0,1,.609,30.469a2.078,2.078,0,0,0,2.939,2.94,23.04,23.04,0,0,0,6.794-16.4A23.041,23.041,0,0,0,3.549.609Z"
                  transform="translate(36.033 0)" fill="#fff"/>
            <path id="Path_304" data-name="Path 304"
                  d="M4.466,22.212a2.078,2.078,0,0,0,2.94-2.939,11.132,11.132,0,0,1,0-15.724A2.078,2.078,0,0,0,4.466.609,15.294,15.294,0,0,0,4.466,22.212Z"
                  transform="translate(7.915 5.599)" fill="#fff"/>
            <path id="Path_305" data-name="Path 305"
                  d="M.609,22.212a2.079,2.079,0,0,0,2.94,0,15.177,15.177,0,0,0,4.474-10.8A15.173,15.173,0,0,0,3.548.609,2.078,2.078,0,1,0,.609,3.548,11.044,11.044,0,0,1,3.866,11.41,11.047,11.047,0,0,1,.609,19.273,2.078,2.078,0,0,0,.609,22.212Z"
                  transform="translate(30.435 5.598)" fill="#fff"/>
            <path id="Path_306" data-name="Path 306"
                  d="M5.279,10.558A5.279,5.279,0,1,0,0,5.279,5.279,5.279,0,0,0,5.279,10.558Z"
                  transform="translate(17.902 11.73)" fill="#fff"/>
            <path id="Path_307" data-name="Path 307"
                  d="M13.067,1.438a2.079,2.079,0,0,0-3.955,0L.1,29.257a2.078,2.078,0,1,0,3.954,1.281l1.1-3.39H17.026l1.1,3.39a2.078,2.078,0,1,0,3.954-1.281ZM11.09,8.823l1.74,5.372H9.35ZM6.5,22.991,8,18.353h6.173l1.5,4.639Z"
                  transform="translate(12.091 23.784)" fill="#fff"/>
        </g>
        <g id="_004-sms" data-name="004-sms" transform="translate(998.012 142.481) rotate(-11)" opacity="0.38">
            <g id="Group_376" data-name="Group 376" transform="translate(0 0)">
                <g id="Group_375" data-name="Group 375" transform="translate(0 0)">
                    <path id="Path_308" data-name="Path 308"
                          d="M38.813,10.14H27.593V3.74A3.744,3.744,0,0,0,23.853,0H3.74A3.744,3.744,0,0,0,0,3.74V38.813a3.744,3.744,0,0,0,3.74,3.74H23.853a3.744,3.744,0,0,0,3.74-3.74V31.849l4.256-4.256h6.964a3.744,3.744,0,0,0,3.74-3.74V13.879A3.744,3.744,0,0,0,38.813,10.14ZM2.493,3.74A1.248,1.248,0,0,1,3.74,2.493H23.853A1.248,1.248,0,0,1,25.1,3.74V4.987H2.493ZM25.1,38.813a1.248,1.248,0,0,1-1.247,1.247H3.74a1.248,1.248,0,0,1-1.247-1.247v-3.74H25.1Zm0-6.233H2.493V7.48H25.1v2.66H23.853a3.744,3.744,0,0,0-3.74,3.74v9.973a3.744,3.744,0,0,0,3.74,3.74H25.1Zm14.96-8.727A1.248,1.248,0,0,1,38.813,25.1h-7.48a1.247,1.247,0,0,0-.881.365l-2.859,2.859V26.346h0A1.247,1.247,0,0,0,26.346,25.1H23.853a1.248,1.248,0,0,1-1.247-1.247V13.879a1.248,1.248,0,0,1,1.247-1.247h14.96a1.248,1.248,0,0,1,1.247,1.247Z"
                          fill="#fff"/>
                </g>
            </g>
            <g id="Group_378" data-name="Group 378" transform="translate(25.099 15.126)">
                <g id="Group_377" data-name="Group 377" transform="translate(0 0)">
                    <path id="Path_309" data-name="Path 309"
                          d="M11.22,0H1.247a1.247,1.247,0,0,0,0,2.493H11.22A1.247,1.247,0,0,0,11.22,0Z" fill="#fff"/>
                </g>
            </g>
            <g id="Group_380" data-name="Group 380" transform="translate(25.099 20.113)">
                <g id="Group_379" data-name="Group 379" transform="translate(0 0)">
                    <path id="Path_310" data-name="Path 310"
                          d="M6.233,0H1.247a1.247,1.247,0,0,0,0,2.493H6.233A1.247,1.247,0,1,0,6.233,0Z" fill="#fff"/>
                </g>
            </g>
        </g>
        <g id="_005-chat" data-name="005-chat" transform="translate(1442.983 138.049) rotate(34)" opacity="0.38">
            <g id="Group_382" data-name="Group 382" transform="translate(0 0)">
                <g id="Group_381" data-name="Group 381" transform="translate(0 0)">
                    <path id="Path_311" data-name="Path 311"
                          d="M39.7,10.2H30.778V3.826A3.83,3.83,0,0,0,26.952,0H3.826A3.83,3.83,0,0,0,0,3.826v15.3a3.83,3.83,0,0,0,3.826,3.826H5.1v3.826a1.277,1.277,0,0,0,1.983,1.061l5.669-3.779v5.269a3.83,3.83,0,0,0,3.826,3.826H29.116l7.331,4.887a1.276,1.276,0,0,0,1.983-1.061V33.158H39.7a3.83,3.83,0,0,0,3.826-3.826v-15.3A3.83,3.83,0,0,0,39.7,10.2ZM13.318,20.622l0,0L7.652,24.4V21.68a1.275,1.275,0,0,0-1.275-1.275H3.826A1.277,1.277,0,0,1,2.551,19.13V3.826A1.277,1.277,0,0,1,3.826,2.551H26.952a1.277,1.277,0,0,1,1.275,1.275v15.3a1.277,1.277,0,0,1-1.275,1.275H14.028A1.3,1.3,0,0,0,13.318,20.622ZM40.98,29.332A1.277,1.277,0,0,1,39.7,30.608H37.154a1.275,1.275,0,0,0-1.275,1.275V34.6L30.21,30.822a1.275,1.275,0,0,0-.707-.214H16.579A1.277,1.277,0,0,1,15.3,29.332V22.956H26.952a3.83,3.83,0,0,0,3.826-3.826V12.753H39.7a1.277,1.277,0,0,1,1.275,1.275Z"
                          transform="translate(0)" fill="#fff"/>
                </g>
            </g>
            <g id="Group_384" data-name="Group 384" transform="translate(5.101 12.753)">
                <g id="Group_383" data-name="Group 383" transform="translate(0 0)">
                    <path id="Path_312" data-name="Path 312"
                          d="M11.478,0H1.275a1.275,1.275,0,1,0,0,2.551h10.2a1.275,1.275,0,0,0,0-2.551Z" fill="#fff"/>
                </g>
            </g>
            <g id="Group_386" data-name="Group 386" transform="translate(5.101 7.652)">
                <g id="Group_385" data-name="Group 385" transform="translate(0 0)">
                    <path id="Path_313" data-name="Path 313"
                          d="M19.3,0H1.275a1.275,1.275,0,1,0,0,2.551H19.3A1.275,1.275,0,1,0,19.3,0Z" fill="#fff"/>
                </g>
            </g>
        </g>
        <g id="_006-ui" data-name="006-ui" transform="translate(1597.661 224.95) rotate(21)" opacity="0.38">
            <path id="Path_314" data-name="Path 314"
                  d="M16.485,0H3.925A3.93,3.93,0,0,0,0,3.925V28.265A3.93,3.93,0,0,0,3.925,32.19H16.485a3.93,3.93,0,0,0,3.925-3.925V3.925A3.93,3.93,0,0,0,16.485,0ZM2.617,22.21V7.851H17.793V22.21ZM3.925,2.617H16.485a1.31,1.31,0,0,1,1.308,1.308V5.234H2.617V3.925A1.31,1.31,0,0,1,3.925,2.617ZM16.485,29.573H3.925a1.31,1.31,0,0,1-1.308-1.308V24.827H8.9v1.308a1.308,1.308,0,1,0,2.617,0V24.827h6.28v3.437A1.31,1.31,0,0,1,16.485,29.573Z"
                  transform="translate(12.126 0)" fill="#fff"/>
            <path id="Path_315" data-name="Path 315"
                  d="M2.493.752A1.308,1.308,0,0,0,.125,1.866,22.878,22.878,0,0,1,2.313,11.68,22.876,22.876,0,0,1,.126,21.493a1.308,1.308,0,1,0,2.368,1.114A25.473,25.473,0,0,0,4.93,11.68,25.475,25.475,0,0,0,2.493.752Z"
                  transform="translate(39.732 4.415)" fill="#fff"/>
            <path id="Path_316" data-name="Path 316"
                  d="M.858.08A1.309,1.309,0,0,0,.081,1.76,17.579,17.579,0,0,1,1.156,7.834,17.578,17.578,0,0,1,.08,13.91a1.308,1.308,0,1,0,2.457.9A20.189,20.189,0,0,0,3.773,7.834,20.188,20.188,0,0,0,2.538.858,1.309,1.309,0,0,0,.858.08Z"
                  transform="translate(35.445 8.261)" fill="#fff"/>
            <path id="Path_317" data-name="Path 317"
                  d="M2.617,11.679A22.877,22.877,0,0,1,4.8,1.866,1.308,1.308,0,0,0,2.436.752a25.724,25.724,0,0,0,0,21.855A1.308,1.308,0,1,0,4.8,21.493a22.876,22.876,0,0,1-2.188-9.814Z"
                  transform="translate(0 4.415)" fill="#fff"/>
            <path id="Path_318" data-name="Path 318"
                  d="M2.915.08A1.308,1.308,0,0,0,1.236.858a20.314,20.314,0,0,0,0,13.954,1.309,1.309,0,0,0,2.457-.9,17.7,17.7,0,0,1,0-12.151A1.309,1.309,0,0,0,2.915.08Z"
                  transform="translate(5.444 8.258)" fill="#fff"/>
        </g>
        <g id="_008-credit-card-1" data-name="008-credit-card-1"
           transform="matrix(0.695, -0.719, 0.719, 0.695, 1836.912, 265.007)" opacity="0.38">
            <g id="Group_388" data-name="Group 388" transform="translate(0 0)">
                <g id="Group_387" data-name="Group 387" transform="translate(0 0)">
                    <path id="Path_332" data-name="Path 332"
                          d="M38.846,0H4.766A4.771,4.771,0,0,0,0,4.766V23.648a4.771,4.771,0,0,0,4.766,4.766h34.08a4.771,4.771,0,0,0,4.766-4.766V4.766A4.771,4.771,0,0,0,38.846,0ZM2.556,4.766a2.213,2.213,0,0,1,2.21-2.21h34.08a2.213,2.213,0,0,1,2.21,2.21V5.9H2.556Zm38.5,18.882a2.213,2.213,0,0,1-2.21,2.21H4.766a2.213,2.213,0,0,1-2.21-2.21V15.485h38.5v8.163Zm0-10.719H2.556V8.453h38.5v4.476Z"
                          fill="#fff"/>
                </g>
            </g>
            <g id="Group_390" data-name="Group 390" transform="translate(28.086 19.28)">
                <g id="Group_389" data-name="Group 389" transform="translate(0 0)">
                    <path id="Path_333" data-name="Path 333"
                          d="M7.3,0H1.278a1.278,1.278,0,1,0,0,2.556H7.3A1.278,1.278,0,1,0,7.3,0Z" fill="#fff"/>
                </g>
            </g>
            <g id="Group_392" data-name="Group 392" transform="translate(6.895 19.28)">
                <g id="Group_391" data-name="Group 391" transform="translate(0 0)">
                    <path id="Path_334" data-name="Path 334"
                          d="M18.264,0H1.278a1.278,1.278,0,0,0,0,2.556H18.264a1.278,1.278,0,0,0,0-2.556Z" fill="#fff"/>
                </g>
            </g>
        </g>
        <g id="_009-chip" data-name="009-chip" transform="matrix(0.921, -0.391, 0.391, 0.921, 1732.32, 153.552)"
           opacity="0.38">
            <path id="Path_335" data-name="Path 335"
                  d="M2.105,0A2.107,2.107,0,0,0,0,2.105V12.859a2.107,2.107,0,0,0,2.105,2.105h7.979a2.108,2.108,0,0,0,2.105-2.105V2.105A2.108,2.108,0,0,0,10.084,0ZM9.737,12.511H2.453V2.453H9.737Zm0,0"
                  transform="translate(4.998 21.74)" fill="#fff"/>
            <path id="Path_336" data-name="Path 336"
                  d="M21.509,4.919,17.267.677A2.3,2.3,0,0,0,15.632,0H2.311A2.314,2.314,0,0,0,0,2.311V24.968A2.314,2.314,0,0,0,2.311,27.28H19.875a2.314,2.314,0,0,0,2.311-2.311V6.554a2.3,2.3,0,0,0-.677-1.634ZM19.733,24.827H2.453V2.453H15.574l4.159,4.159Zm0,0"
                  transform="translate(0 14.587)" fill="#fff"/>
            <path id="Path_337" data-name="Path 337"
                  d="M8.675,3.657a1.227,1.227,0,0,0,.149-1.728A5.561,5.561,0,0,0,4.531,0H4.483A5.431,5.431,0,0,0,.276,1.943a1.227,1.227,0,1,0,1.9,1.55A2.99,2.99,0,0,1,4.5,2.453H4.53A3.163,3.163,0,0,1,6.947,3.508a1.227,1.227,0,0,0,1.728.149Zm0,0"
                  transform="translate(6.537 4.79)" fill="#fff"/>
            <path id="Path_338" data-name="Path 338"
                  d="M5.157.864A3.655,3.655,0,0,0,.482.827,1.227,1.227,0,1,0,1.971,2.777,1.233,1.233,0,0,1,3.653,2.8,1.227,1.227,0,0,0,5.157.864Zm0,0"
                  transform="translate(8.277 9.575)" fill="#fff"/>
            <path id="Path_339" data-name="Path 339"
                  d="M.441,4.787a1.226,1.226,0,0,0,1.727-.156A6.519,6.519,0,0,1,7.186,2.453a6.852,6.852,0,0,1,5.237,2.192,1.227,1.227,0,1,0,1.86-1.6A9.319,9.319,0,0,0,7.243,0H7.168A8.96,8.96,0,0,0,.285,3.059,1.226,1.226,0,0,0,.441,4.787Zm0,0"
                  transform="translate(3.803 0)" fill="#fff"/>
        </g>
        <g id="_010-credit-card-2" data-name="010-credit-card-2" transform="translate(403.786 139.884)" opacity="0.38">
            <path id="Path_340" data-name="Path 340"
                  d="M43.465,0H5.249A5.255,5.255,0,0,0,0,5.249V32a5.255,5.255,0,0,0,5.249,5.249H43.465A5.255,5.255,0,0,0,48.714,32V5.249A5.255,5.255,0,0,0,43.465,0ZM5.249,2.854H43.465A2.4,2.4,0,0,1,45.86,5.249V9.172H2.854V5.249A2.4,2.4,0,0,1,5.249,2.854Zm38.216,31.54H5.249A2.4,2.4,0,0,1,2.854,32V12.026H45.86V32a2.4,2.4,0,0,1-2.394,2.395Zm0,0"
                  fill="#fff"/>
            <path id="Path_341" data-name="Path 341"
                  d="M286.79,200.832H274.56a1.427,1.427,0,1,0,0,2.854H286.79a1.427,1.427,0,0,0,0-2.854Zm0,0"
                  transform="translate(-247.146 -181.724)" fill="#fff"/>
            <path id="Path_342" data-name="Path 342"
                  d="M330.406,281.168h-7.643a1.427,1.427,0,1,0,0,2.854h7.643a1.427,1.427,0,0,0,0-2.854Zm0,0"
                  transform="translate(-290.763 -254.416)" fill="#fff"/>
            <path id="Path_343" data-name="Path 343"
                  d="M90.415,201.251a1.427,1.427,0,0,0-1.009-.418H81.763a1.427,1.427,0,0,0-1.427,1.427V209.9a1.427,1.427,0,0,0,1.427,1.427h10.7A1.427,1.427,0,0,0,93.89,209.9v-4.586a1.428,1.428,0,0,0-.418-1.009Zm.621,7.225H83.19v-4.789h5.625l2.221,2.221Zm0,0"
                  transform="translate(-72.692 -181.724)" fill="#fff"/>
        </g>
        <g id="_007-credit-card" data-name="007-credit-card" transform="translate(1222.533 142.739) rotate(13)"
           opacity="0.38">
            <path id="Path_319" data-name="Path 319"
                  d="M45.609,0H3.448A3.452,3.452,0,0,0,0,3.448V32.527a3.452,3.452,0,0,0,3.448,3.448H45.609a3.452,3.452,0,0,0,3.448-3.448V3.448A3.452,3.452,0,0,0,45.609,0Zm1.813,32.527a1.815,1.815,0,0,1-1.813,1.813H3.448a1.815,1.815,0,0,1-1.813-1.813V3.448A1.815,1.815,0,0,1,3.448,1.635H45.609a1.815,1.815,0,0,1,1.813,1.813Z"
                  transform="translate(0 0)" fill="#fff"/>
            <path id="Path_320" data-name="Path 320" d="M0,6.541H8.994V0H0ZM1.635,1.635H7.359v3.27H1.635Z"
                  transform="translate(4.088 23.711)" fill="#fff"/>
            <path id="Path_321" data-name="Path 321" d="M0,6.541H8.994V0H0ZM1.635,1.635H7.359v3.27H1.635Z"
                  transform="translate(14.717 23.711)" fill="#fff"/>
            <path id="Path_322" data-name="Path 322" d="M0,6.541H8.994V0H0ZM1.635,1.635H7.359v3.27H1.635Z"
                  transform="translate(25.346 23.711)" fill="#fff"/>
            <path id="Path_323" data-name="Path 323" d="M0,6.541H8.994V0H0ZM1.635,1.635H7.359v3.27H1.635Z"
                  transform="translate(35.975 23.711)" fill="#fff"/>
            <path id="Path_324" data-name="Path 324"
                  d="M1.844,11.447h11.03A1.846,1.846,0,0,0,14.717,9.6V1.844A1.846,1.846,0,0,0,12.873,0H1.844A1.846,1.846,0,0,0,0,1.844V9.6A1.846,1.846,0,0,0,1.844,11.447ZM4.906,6.541H1.635V4.906h3.27ZM1.635,9.6V8.176h3.27V9.6a1.765,1.765,0,0,0,.021.208H1.844A.208.208,0,0,1,1.635,9.6ZM13.082,6.541H9.811V5.114a.208.208,0,0,1,.208-.208h2.853a1.766,1.766,0,0,0,.208-.021V6.541Zm-.208,3.27H9.79A1.766,1.766,0,0,0,9.811,9.6V8.176h3.27V9.6A.208.208,0,0,1,12.873,9.811Zm0-8.176a.208.208,0,0,1,.208.208V3.062a.208.208,0,0,1-.208.208H10.02A1.846,1.846,0,0,0,8.176,5.114V9.6a.208.208,0,0,1-.208.208H6.749A.208.208,0,0,1,6.541,9.6V1.844a.208.208,0,0,1,.208-.208Zm-11.03,0H4.927a1.765,1.765,0,0,0-.021.208V3.27H1.635V1.844A.208.208,0,0,1,1.844,1.635Z"
                  transform="translate(4.088 4.906)" fill="#fff"/>
            <path id="Path_325" data-name="Path 325"
                  d="M.818,1.635H8.176A.818.818,0,0,0,8.176,0H.818a.818.818,0,0,0,0,1.635Z"
                  transform="translate(25.346 4.906)" fill="#fff"/>
            <path id="Path_326" data-name="Path 326"
                  d="M8.176,0H.818a.818.818,0,0,0,0,1.635H8.176A.818.818,0,0,0,8.176,0Z"
                  transform="translate(35.975 4.906)" fill="#fff"/>
            <path id="Path_327" data-name="Path 327"
                  d="M.818,1.635h.818A.818.818,0,1,0,1.635,0H.818a.818.818,0,0,0,0,1.635Z"
                  transform="translate(25.346 8.994)" fill="#fff"/>
            <path id="Path_328" data-name="Path 328" d="M.818,0a.818.818,0,0,0,0,1.635H2.453A.818.818,0,1,0,2.453,0Z"
                  transform="translate(29.434 8.994)" fill="#fff"/>
            <path id="Path_329" data-name="Path 329"
                  d="M2.453.818A.817.817,0,0,0,1.635,0H.818a.818.818,0,1,0,0,1.635h.818A.817.817,0,0,0,2.453.818Z"
                  transform="translate(34.34 8.994)" fill="#fff"/>
            <path id="Path_330" data-name="Path 330"
                  d="M2.453,1.635A.818.818,0,0,0,2.453,0H.818a.818.818,0,1,0,0,1.635Z"
                  transform="translate(38.428 8.994)" fill="#fff"/>
            <path id="Path_331" data-name="Path 331"
                  d="M.237.227A.856.856,0,0,0,0,.807a.856.856,0,0,0,.237.581.841.841,0,0,0,.581.237A.86.86,0,0,0,1.4,1.388.86.86,0,0,0,1.635.807.86.86,0,0,0,1.4.227.856.856,0,0,0,.237.227Z"
                  transform="translate(43.334 9.004)" fill="#fff"/>
        </g>
    </g>
</svg>
