<svg xmlns="http://www.w3.org/2000/svg" width="240" height="162.501"
     viewBox="0 0 240 162.501">
    <defs>
        <clipPath id="clip-path">
            <rect id="Rectangle_1147" data-name="Rectangle 1147" width="18.851" height="19.843" fill="#0099f1"
                  stroke="#707070" stroke-width="1"/>
        </clipPath>
        <clipPath id="clip-path-2">
            <rect id="Rectangle_1147-2" data-name="Rectangle 1147" width="19.843" height="18.851" fill="#fc9209"
                  stroke="#707070" stroke-width="1"/>
        </clipPath>
        <clipPath id="clip-path-3">
            <rect id="Rectangle_1147-3" data-name="Rectangle 1147" width="20.835" height="18.851" fill="#f33d42"
                  stroke="#707070" stroke-width="1"/>
        </clipPath>
        <clipPath id="clip-path-4">
            <rect id="Rectangle_1147-4" data-name="Rectangle 1147" width="16.866" height="17.858" fill="#19d47d"
                  stroke="#707070" stroke-width="1"/>
        </clipPath>
    </defs>
    <g id="Group_967" data-name="Group 967" transform="translate(-91.71 -15.157)">
        <path id="Path_1247" data-name="Path 1247"
              d="M7190.111,904.09c-30.941,17.16-74.26-5.111-62.246-59.876s54.6-42.716,79.355-15.7,71.712,16.429,85.18,0,61.154-35.415,48.05,29.938-79.72,65.353-88.457,62.432"
              transform="translate(-7019.445 -790.023)" fill="none" stroke="#707070" stroke-width="1"
              stroke-dasharray="5"/>
        <path id="Path_1177" data-name="Path 1177"
              d="M324.106,104.944c0,4.423-42.145,8.011-94.136,8.011s-94.134-3.588-94.134-8.011,42.147-8.011,94.134-8.011S324.106,100.519,324.106,104.944Z"
              transform="translate(2.879 64.704)" fill="#d0cfd9"/>
        <g id="Group_956" data-name="Group 956" transform="translate(280.408 86.984)">
            <g id="Group_955" data-name="Group 955">
                <path id="Path_1208" data-name="Path 1208"
                      d="M219.2,74.315V72.067a9.539,9.539,0,0,1-4.027-1.018l.712-2.77a8.378,8.378,0,0,0,3.93,1.042c1.352,0,2.275-.522,2.275-1.468,0-.9-.76-1.468-2.51-2.06-2.533-.852-4.264-2.037-4.264-4.333,0-2.083,1.467-3.718,4-4.215v-2.25h2.322v2.083a8.511,8.511,0,0,1,3.433.783l-.687,2.675a7.876,7.876,0,0,0-3.412-.805c-1.537,0-2.035.663-2.035,1.327,0,.78.827,1.278,2.84,2.035,2.818,1,3.955,2.3,3.955,4.428,0,2.107-1.49,3.907-4.215,4.38v2.415Z"
                      transform="translate(-215.17 -54.993)" fill="#a9e8ef"/>
            </g>
        </g>
        <g id="Group_961" data-name="Group 961" transform="translate(148.942 70.447)">
            <g id="Group_959" data-name="Group 959">
                <path id="Rectangle_1140" data-name="Rectangle 1140"
                      d="M3,0H123.326a3,3,0,0,1,3,3V77.54a6,6,0,0,1-6,6H6a6,6,0,0,1-6-6V3A3,3,0,0,1,3,0Z"
                      fill="#fff1d6"/>
                <path id="Path_1210" data-name="Path 1210" d="M202.738,116.618H166.57l2.2-31.3h30.675Z"
                      transform="translate(-121.374 -14.955)" fill="#725559"/>
                <path id="Rectangle_1141" data-name="Rectangle 1141"
                      d="M3,0H123.326a3,3,0,0,1,3,3V77.54a6,6,0,0,1-6,6H6a6,6,0,0,1-6-6V3A3,3,0,0,1,3,0Z" fill="#333"/>
                <rect id="Rectangle_1142" data-name="Rectangle 1142" width="115.502" height="59.312"
                      transform="translate(4.943 5.555)" fill="#fff"/>
                <path id="Path_1239" data-name="Path 1239"
                      d="M0,0H115.5V27.729S87.218,42.018,58.342,42.018,0,27.729,0,27.729Z"
                      transform="translate(4.943 5.555)" fill="#4870f5"/>
                <path id="Path_1211" data-name="Path 1211"
                      d="M146.852,98.738H262.2a5.489,5.489,0,0,0,5.49-5.492V85.008H141.362v8.238A5.49,5.49,0,0,0,146.852,98.738Z"
                      transform="translate(-141.361 -15.199)" fill="#ffe9ba"/>
                <rect id="Rectangle_1143" data-name="Rectangle 1143" width="69.684" height="4.943"
                      transform="translate(27.576 96.72)" fill="#ffe9ba"/>
                <path id="Path_1240" data-name="Path 1240"
                      d="M5.056-7.631q0,.01.015.1t.031.237q.015.147.026.332.005.129.005.263v.134a2.81,2.81,0,0,1-.561,1.823v-.005a1.755,1.755,0,0,1-1.426.633A2.691,2.691,0,0,1,2.7-4.148a1.96,1.96,0,0,1-.394-.111l.041.283q.062.484.1,1T2.51-1.954q.023.512.031,1.009T2.548,0H1.524q0-.819-.015-1.63T1.426-3.206q-.067-.765-.2-1.462A7.042,7.042,0,0,0,.865-5.953q-.108-.278-.232-.53T.355-7l.86-.546q.082.134.152.27T1.506-7q.07.147.142.312t.16.355q.118.273.234.492a1.7,1.7,0,0,0,.268.378,1.05,1.05,0,0,0,.35.245,1.236,1.236,0,0,0,.487.085.785.785,0,0,0,.644-.263.949.949,0,0,0,.16-.265,2.07,2.07,0,0,0,.1-.322,2.568,2.568,0,0,0,.054-.35q.015-.18.015-.35A3.823,3.823,0,0,0,4.1-7.106q-.023-.206-.049-.34Zm4.9,3.841a3.311,3.311,0,0,1-.945-.136,2.01,2.01,0,0,1-.806-.456,5.484,5.484,0,0,1,.106.587q.044.335.072.713t.044.785q.015.407.023.8t.008.767q0,.371,0,.675H7.435q0-1-.036-2t-.16-1.9a11.9,11.9,0,0,0-.353-1.7,5.38,5.38,0,0,0-.615-1.4L7.126-7.6q.18.294.34.618a6.329,6.329,0,0,1,.278.654,2.117,2.117,0,0,1,.312-.566,2.24,2.24,0,0,1,.456-.445,2.208,2.208,0,0,1,.559-.3A2.143,2.143,0,0,1,9.7-7.755h.088a2.409,2.409,0,0,1,.669.1,2.648,2.648,0,0,1,.726.35,3.052,3.052,0,0,1,.381.283q.149.134.252.232l-.736.711-.051-.051q-.057-.051-.147-.129a2.7,2.7,0,0,0-.216-.165,2.031,2.031,0,0,0-.275-.16,1.978,1.978,0,0,0-.309-.118,1.018,1.018,0,0,0-.257-.031q-.051,0-.178.01a1.058,1.058,0,0,0-.33.1,1.159,1.159,0,0,0-.35.242,1.023,1.023,0,0,0-.224.345.893.893,0,0,0-.057.319q0,.057.005.113a1,1,0,0,0,.17.394.874.874,0,0,0,.286.247,1.14,1.14,0,0,0,.378.121,2.1,2.1,0,0,0,.335.026h.1q.191-.005.391-.028a3.212,3.212,0,0,0,.391-.07,2.528,2.528,0,0,0,.366-.118,1.57,1.57,0,0,0,.324-.18l.453.834a2.768,2.768,0,0,1-.927.453A3.87,3.87,0,0,1,9.958-3.79ZM12.682.777a4.547,4.547,0,0,1-.046-.644q0-.2.031-.548a4.8,4.8,0,0,1,.162-.832,6.247,6.247,0,0,1,.324-.909,7.319,7.319,0,0,1,.4-.78l.819.6a2.072,2.072,0,0,0-.154.265q-.088.173-.178.4t-.173.507a5.293,5.293,0,0,0-.136.574,4.734,4.734,0,0,0-.07.608q-.005.088-.005.17a3.02,3.02,0,0,0,.031.438,2.153,2.153,0,0,0,.08.319,1.852,1.852,0,0,0,.178.384,2.242,2.242,0,0,0,.3.389,2.011,2.011,0,0,0,.435.342,2.441,2.441,0,0,0,.6.247,2.916,2.916,0,0,0,.78.1,4.373,4.373,0,0,0,.989-.1,2.73,2.73,0,0,0,.778-.3,2.023,2.023,0,0,0,.561-.484,1.991,1.991,0,0,0,.34-.646,3.208,3.208,0,0,0,.149-.891V-.077a4.879,4.879,0,0,0-.067-.814,4.9,4.9,0,0,0-.188-.754Q18.5-2,18.383-2.268a4.231,4.231,0,0,0-.209-.417,1.411,1.411,0,0,0-.1-.152l.855-.546.124.209q.108.183.252.492a5.442,5.442,0,0,0,.536.85,2.463,2.463,0,0,0,.479.474,1.2,1.2,0,0,0,.43.2,1.827,1.827,0,0,0,.384.044h.113V-.1h-.113A2.443,2.443,0,0,1,19.9-.417Q19.9-.3,19.9-.18a5.477,5.477,0,0,1-.039.613,3.873,3.873,0,0,1-.173.752,3.078,3.078,0,0,1-.548,1,3.131,3.131,0,0,1-.821.7,3.71,3.71,0,0,1-1.038.409,5.236,5.236,0,0,1-1.2.134,4.519,4.519,0,0,1-1.233-.162,3.186,3.186,0,0,1-1.022-.489,2.736,2.736,0,0,1-.744-.826A3.239,3.239,0,0,1,12.682.777ZM17.131-3.43l-.839.839-.844-.844.839-.839Zm4.006,2.317a1.8,1.8,0,0,0,.762-.142,1.614,1.614,0,0,0,.518-.376,2.515,2.515,0,0,0,.371-.536q.157-.3.317-.62.139-.288.3-.569a2.715,2.715,0,0,1,.355-.5,1.674,1.674,0,0,1,.453-.355,1.242,1.242,0,0,1,.595-.136,1.533,1.533,0,0,1,.718.162,1.741,1.741,0,0,1,.533.425,2.12,2.12,0,0,1,.353.6,3.116,3.116,0,0,1,.183.68,2.475,2.475,0,0,1,.026.36,3.949,3.949,0,0,1-.031.433,2.215,2.215,0,0,1-.165.59,1.783,1.783,0,0,1-.366.561,1.229,1.229,0,0,1-.566.332,1.623,1.623,0,0,1-.422.057,2.932,2.932,0,0,1-.317-.026,2.225,2.225,0,0,1-.515-.142A3.691,3.691,0,0,1,23.655-.6q-.278-.167-.515-.342a2.1,2.1,0,0,1-.42.438,1.735,1.735,0,0,1-.466.252,2.343,2.343,0,0,1-.525.118,5.371,5.371,0,0,1-.592.031h-.1V-1.112Zm2.6-.664a3.974,3.974,0,0,0,.855.5,1.265,1.265,0,0,0,.463.1.742.742,0,0,0,.18-.021.329.329,0,0,0,.17-.118.876.876,0,0,0,.142-.252,1.541,1.541,0,0,0,.085-.355,1.327,1.327,0,0,0,.01-.165,1.828,1.828,0,0,0-.021-.268q-.005-.036-.026-.124a1.847,1.847,0,0,0-.059-.2,1.676,1.676,0,0,0-.1-.224,1.02,1.02,0,0,0-.149-.211.745.745,0,0,0-.206-.157.582.582,0,0,0-.273-.062.345.345,0,0,0-.193.059.729.729,0,0,0-.18.183,2.769,2.769,0,0,0-.191.309q-.1.185-.229.438ZM30.35-.1a3.055,3.055,0,0,1-.965-.134,1.711,1.711,0,0,1-.677-.412,1.268,1.268,0,0,1-.26-.366,1.988,1.988,0,0,1-.134-.386,1.873,1.873,0,0,1-.049-.363q-.005-.173-.005-.3,0-.041,0-.245t.008-.523q.005-.319.005-.731t-.005-.86q0-.443-.01-.922t-.033-.927q-.023-.448-.057-.826t-.08-.62L29.1-7.9q.046.263.08.644t.057.829q.023.448.036.935t.013.95v2.585a2.782,2.782,0,0,0,.018.327.429.429,0,0,0,.136.265.8.8,0,0,0,.353.185,2.05,2.05,0,0,0,.559.067h.1V-.1Zm-.1-1.009h.6q.3,0,.551-.013a1.938,1.938,0,0,0,.458-.075,1.082,1.082,0,0,0,.36-.183.922.922,0,0,0,.257-.337,1,1,0,0,0,.077-.273,1.642,1.642,0,0,0,.015-.232q0-.067-.01-.2a2.593,2.593,0,0,0-.067-.376,3.349,3.349,0,0,0-.165-.5l-.448-1.1.917-.453s.015.039.046.106.071.157.121.27.1.245.162.394.113.308.165.476A5.751,5.751,0,0,1,33.552-2.3q.005.082.005.165a2.051,2.051,0,0,1-.154.824,1.973,1.973,0,0,1-.378.582,1.764,1.764,0,0,1-.518.371,2.385,2.385,0,0,1-.657.2,5.1,5.1,0,0,1-.785.057h-.819Zm2.5,2.853-.839.839-.844-.844L31.9.9Z"
                      transform="translate(46.107 57.966)" fill="#4870f5"/>
                <g id="logo-baman" transform="translate(47.66 15.918)">
                    <path id="Path_1237" data-name="Path 1237"
                          d="M-835.057-645.664l.005.077a14.871,14.871,0,0,1-7.4-12.864,14.878,14.878,0,0,1,14.879-14.879,14.853,14.853,0,0,1,4.493.691c-1.769,1.15-13.21,8.6-13.647,8.9-.273.331.187.633.187.633s1.309.388,3.784,1.166C-840.928-654.49-835.057-645.664-835.057-645.664Z"
                          transform="translate(842.45 673.33)" fill="#fff"/>
                    <path id="Path_1238" data-name="Path 1238"
                          d="M-656.7-642.618q0,.7-.065,1.393c-5.838-1.522-8.423,2.741-9.368,4.544a5.665,5.665,0,0,1-8.672,1.266c-4.01-4.163-1.115-9.914-1.115-9.914s.991,3.07,1.221,3.689c.437.264.6-.063.6-.063l7.8-14.827A14.884,14.884,0,0,1-656.7-642.618Z"
                          transform="translate(686.459 657.497)" fill="#fff"/>
                </g>
            </g>
        </g>
        <g id="Group_966" data-name="Group 966" transform="translate(248.978 68.507)">
            <path id="Path_1215" data-name="Path 1215" d="M220.137,98.474l.289,3.218-2.982-.533-.176-4.134Z"
                  transform="translate(-182.35 -3.731)" fill="#ffd9a7"/>
            <path id="Path_1216" data-name="Path 1216"
                  d="M237.147,62.994s1.922,7.568-6.031,15l-9.368,18.695s4.391,18.876,2.883,27.595c-.577,3.342-4.289,2.2-4.739.957-3.179-8.74-9.287-26.277-6.632-36.572A37.847,37.847,0,0,1,220.735,74.1Z"
                  transform="translate(-186.044 -30.714)" fill="#3a79a9"/>
            <path id="Path_1217" data-name="Path 1217"
                  d="M221.159,98.721a2.2,2.2,0,0,0,3.112.145s2.41,4.947-1.086,5.648-9.856-.029-10.7-1.545C211.271,100.783,216.942,99.327,221.159,98.721Z"
                  transform="translate(-186.273 -2.386)" fill="#b1a6f3"/>
            <path id="Path_1218" data-name="Path 1218" d="M234.352,97.349l1.337,2.941-2.994.479-1.527-3.845Z"
                  transform="translate(-171.327 -3.81)" fill="#ffd9a7"/>
            <path id="Path_1219" data-name="Path 1219"
                  d="M236.723,73.615l-2.689,20.737s10.359,16.378,11.81,25.106c.558,3.346-3.322,3.487-4.158,2.465-5.881-7.206-17.42-21.753-18.309-32.348-.755-9.045-6.236-18.89-6.236-18.89S236.533,61.4,236.723,73.615Z"
                  transform="translate(-182.45 -27.294)" fill="#4a98d4"/>
            <path id="Path_1220" data-name="Path 1220"
                  d="M234.9,98.924a2.2,2.2,0,0,0,2.989-.887s3.9,3.876.832,5.689-9.316,3.22-10.609,2.064C226.239,104.128,231.112,100.884,234.9,98.924Z"
                  transform="translate(-174.082 -2.928)" fill="#b1a6f3"/>
            <path id="Path_1221" data-name="Path 1221"
                  d="M228.146,53.682c.827-.6,2.553-1.5,3.184.706s-6.021,13.6-8.068,15.322S207.691,75.1,207.691,75.1s-1.465-.16-.4-1.933l12.85-5.8S225.274,55.771,228.146,53.682Z"
                  transform="translate(-190.567 -38.655)" fill="#e1e1e1"/>
            <path id="Path_1222" data-name="Path 1222"
                  d="M231.22,54.485c3.195,2.666,5.755,8.909,6.288,29.059.117,4.434-21.162,3.874-20.324-.48,2.454-12.721-3.948-20.253,2.048-27.908C219.231,55.155,224.88,49.2,231.22,54.485Z"
                  transform="translate(-182.896 -39.196)" fill="#f7f7f7"/>
            <path id="Path_1223" data-name="Path 1223"
                  d="M224.147,49.3s-1.235,3.294,0,5.4c.787,1.339-5.137,5.847-5.011,4.041.163-2.327,1.275-3.758.013-6.376Z"
                  transform="translate(-180.87 -41.574)" fill="#efc18f"/>
            <path id="Path_1224" data-name="Path 1224"
                  d="M220.12,46.652c-1.879,1.954-3.593,10.241-1.433,11.937.936.737,4.611-.332,6.786-4.038a6.863,6.863,0,0,0,.314-7.057C225.048,46.264,222.307,44.376,220.12,46.652Z"
                  transform="translate(-182.022 -44.518)" fill="#ffd9a8"/>
            <path id="Path_1225" data-name="Path 1225"
                  d="M218.214,46.475s-.611,4.059,2.426,3.319c3.484-.848,3.629.088,3.351.839-.816,2.207,3.233.018.5,4.832-1.395,2.451.988.271,1.262-.129s2.831-3.677.88-7.328S220.839,44.27,218.214,46.475Z"
                  transform="translate(-181.639 -44.979)" fill="#5a5a5a"/>
            <g id="Group_964" data-name="Group 964" transform="translate(0 22.828)">
                <path id="Path_1226" data-name="Path 1226"
                      d="M232.164,74.907a17.186,17.186,0,1,1-17.183-17.185A17.185,17.185,0,0,1,232.164,74.907Z"
                      transform="translate(-197.792 -57.722)" fill="#0099f1"/>
                <path id="Path_1227" data-name="Path 1227"
                      d="M230.9,74.521a16.312,16.312,0,1,1-16.31-16.312A16.312,16.312,0,0,1,230.9,74.521Z"
                      transform="translate(-197.405 -57.336)" fill="#7bcaff"/>
                <path id="Path_1228" data-name="Path 1228"
                      d="M225.916,72.992a12.853,12.853,0,1,1-12.851-12.855A12.853,12.853,0,0,1,225.916,72.992Z"
                      transform="translate(-195.876 -55.807)" fill="#0099f1"/>
                <path id="Path_1229" data-name="Path 1229"
                      d="M225.136,73.053a12.314,12.314,0,1,1-12.31-12.312A12.313,12.313,0,0,1,225.136,73.053Z"
                      transform="translate(-195.638 -55.328)" fill="#7dfdf0"/>
                <g id="Mask_Group_52" data-name="Mask Group 52" transform="translate(7.842 7.22)"
                   clip-path="url(#clip-path)">
                    <g id="water" transform="translate(-0.895 0.147)">
                        <g id="Group_968" data-name="Group 968" transform="translate(0)">
                            <path id="Path_1241" data-name="Path 1241"
                                  d="M17.246,3.178C16.065,1.578,14.9.3,14.852.25a.771.771,0,0,0-1.137,0C13.666.3,12.5,1.578,11.321,3.178q-.773,1.047-1.3,1.931C8.709,3.416,7.564,2.161,7.508,2.1a.771.771,0,0,0-1.137,0c-.064.07-1.587,1.738-3.136,3.836A27.946,27.946,0,0,0,1.054,9.31,7.362,7.362,0,0,0,0,12.6v.189a6.947,6.947,0,0,0,12.4,4.3.771.771,0,1,0-1.215-.95A5.355,5.355,0,0,1,6.94,18.2a5.41,5.41,0,0,1-5.4-5.41V12.6c0-.661.38-2.284,2.926-5.735.94-1.274,1.89-2.406,2.472-3.077.546.63,1.415,1.665,2.3,2.843a4.584,4.584,0,0,0-.408,1.719v.144a5.453,5.453,0,0,0,9.278,3.9.771.771,0,1,0-1.082-1.1,3.911,3.911,0,0,1-6.654-2.8V8.347c0-.479.284-1.667,2.184-4.243.64-.868,1.286-1.648,1.729-2.165.441.515,1.083,1.29,1.722,2.155C17.912,6.677,18.2,7.868,18.2,8.347v.144a.771.771,0,0,0,1.542,0V8.347C19.739,7.141,18.924,5.451,17.246,3.178Z"
                                  transform="translate(0 0)" fill="#0099f1"/>
                        </g>
                    </g>
                </g>
            </g>
            <g id="Group_965" data-name="Group 965" transform="translate(24.509 17.012)">
                <path id="Path_1231" data-name="Path 1231"
                      d="M216.265,67.283s-6.033-.663-4.576.547,2.75,2.169,5.51.991Z"
                      transform="translate(-211.462 -44.469)" fill="#efc18f"/>
                <path id="Path_1232" data-name="Path 1232"
                      d="M232.73,55.523c.719-.732,2.562-2.017,3.258.176,1.1,3.478-3.711,14.4-5.449,16.434s-15.641,6.96-15.641,6.96a1.593,1.593,0,0,1-.755-2.1l13.5-7.593S230.24,58.055,232.73,55.523Z"
                      transform="translate(-209.468 -54.478)" fill="#e1e1e1"/>
            </g>
            <path id="Path_1233" data-name="Path 1233"
                  d="M217.53,47.45c-.106,1.065.5,3.745,3.353,2.842,2.87-.909,2.87-.909,3.356-.654s.385.432.326.721,2.442-5.128-2.146-5.345C222.419,45.014,217.81,44.576,217.53,47.45Z"
                  transform="translate(-182.151 -44.99)" fill="#5a5a5a"/>
            <path id="Path_1234" data-name="Path 1234"
                  d="M224.258,48.437s-.235,3.473-.891,4.014-.965,1.477-2.388,1.676-3.286.624-3.272-.54c0,0-.6,3.527,2.022,3.27,0,0,3.839-.4,5.544-3.5,0,0-1.42-.2-.167-4.411C225.249,48.462,224.319,49.1,224.258,48.437Z"
                  transform="translate(-182.048 -42.256)" fill="#5a5a5a"/>
        </g>
        <path id="Path_1235" data-name="Path 1235"
              d="M203.87,59.645a15.891,15.891,0,0,0,1.578-3.073,15.9,15.9,0,0,0,1.736,2.983,15.89,15.89,0,0,0,3.073,1.578,15.9,15.9,0,0,0-2.983,1.736,15.858,15.858,0,0,0-1.576,3.075,15.931,15.931,0,0,0-1.737-2.985,15.891,15.891,0,0,0-3.073-1.578A15.9,15.9,0,0,0,203.87,59.645Z"
              transform="translate(54.102 33.259)" fill="#f7f7fc"/>
        <g id="Group_969" data-name="Group 969" transform="translate(91.71 66.766)">
            <path id="Path_1226-2" data-name="Path 1226"
                  d="M232.164,74.907a17.186,17.186,0,1,1-17.183-17.185A17.185,17.185,0,0,1,232.164,74.907Z"
                  transform="translate(-197.792 -57.722)" fill="#fc9209"/>
            <path id="Path_1227-2" data-name="Path 1227"
                  d="M230.9,74.521a16.312,16.312,0,1,1-16.31-16.312A16.312,16.312,0,0,1,230.9,74.521Z"
                  transform="translate(-197.405 -57.336)" fill="#fed150"/>
            <path id="Path_1228-2" data-name="Path 1228"
                  d="M225.916,72.992a12.853,12.853,0,1,1-12.851-12.855A12.853,12.853,0,0,1,225.916,72.992Z"
                  transform="translate(-195.876 -55.807)" fill="#fc9209"/>
            <path id="Path_1229-2" data-name="Path 1229"
                  d="M225.136,73.053a12.314,12.314,0,1,1-12.31-12.312A12.313,12.313,0,0,1,225.136,73.053Z"
                  transform="translate(-195.638 -55.328)" fill="#ffe984"/>
            <g id="Mask_Group_55" data-name="Mask Group 55" transform="translate(8.997 8.082)"
               clip-path="url(#clip-path-2)">
                <g id="gas-cylinder-outline" transform="translate(0.405 0.017)">
                    <g id="Group_974" data-name="Group 974" transform="translate(0 0)">
                        <path id="Path_1245" data-name="Path 1245"
                              d="M2.22,4.763A2.229,2.229,0,0,0,0,6.99v7.88A2.23,2.23,0,0,0,2.227,17.1h7.881a2.23,2.23,0,0,0,2.227-2.228V6.99a2.229,2.229,0,0,0-2.22-2.227V3.13c3.3.183,4.641,4.174,7.955,4.788.708.131,1.011-.952.3-1.084C14.9,6.191,13.76,2.131,10.115,2V.267H6.938V.829a.77.77,0,1,1-1.54,0V.267H2.22v4.5h0ZM11.211,6.99v7.881a1.1,1.1,0,0,1-1.1,1.1H2.227a1.1,1.1,0,0,1-1.1-1.1V6.99a1.1,1.1,0,0,1,1.1-1.1h7.881A1.1,1.1,0,0,1,11.211,6.99Zm-7.867-5.6H4.358a1.894,1.894,0,0,0,3.618,0H8.991V4.6H3.344Z"
                              transform="translate(0 -0.267)" fill="#fc9209"/>
                        <path id="Path_1246" data-name="Path 1246"
                              d="M2.1,18.536a.562.562,0,0,0,0,1.124h8.325a.562.562,0,0,0,0-1.124H2.1Z"
                              transform="translate(-0.094 -1.386)" fill="#fc9209"/>
                    </g>
                </g>
            </g>
        </g>
        <g id="Group_970" data-name="Group 970" transform="translate(175.339 26.371)">
            <path id="Path_1226-3" data-name="Path 1226"
                  d="M232.164,74.907a17.186,17.186,0,1,1-17.183-17.185A17.185,17.185,0,0,1,232.164,74.907Z"
                  transform="translate(-197.792 -57.722)" fill="#f33d42"/>
            <path id="Path_1227-3" data-name="Path 1227"
                  d="M230.9,74.521a16.312,16.312,0,1,1-16.31-16.312A16.312,16.312,0,0,1,230.9,74.521Z"
                  transform="translate(-197.405 -57.336)" fill="#ff5a90"/>
            <path id="Path_1228-3" data-name="Path 1228"
                  d="M225.916,72.992a12.853,12.853,0,1,1-12.851-12.855A12.853,12.853,0,0,1,225.916,72.992Z"
                  transform="translate(-195.876 -55.807)" fill="#f33d42"/>
            <path id="Path_1229-3" data-name="Path 1229"
                  d="M225.136,73.053a12.314,12.314,0,1,1-12.31-12.312A12.313,12.313,0,0,1,225.136,73.053Z"
                  transform="translate(-195.638 -55.328)" fill="#ffacc7"/>
            <g id="Mask_Group_53" data-name="Mask Group 53" transform="translate(6.461 7.87)"
               clip-path="url(#clip-path-3)">
                <path id="power-station"
                      d="M19.511,9.8a.771.771,0,0,1-1.09,0l-.61-.614V11.99a.771.771,0,1,1-1.542,0V7.631l-5.864-5.9a.77.77,0,0,0-1,0L3.469,7.65c0,.007,0,.015,0,.022v8.173a1.544,1.544,0,0,0,1.542,1.542h9.715a1.544,1.544,0,0,0,1.542-1.542.771.771,0,1,1,1.542,0,3.088,3.088,0,0,1-3.084,3.084H5.012a3.088,3.088,0,0,1-3.084-3.084V9.188L1.316,9.8A.771.771,0,0,1,.226,8.708L8.334.616l.032-.03a2.311,2.311,0,0,1,3.084.006l.032.03L19.515,8.71a.771.771,0,0,1,0,1.09ZM8.4,14.921c0,.121.1.193.239.193a.382.382,0,0,0,.261-.1l3.64-4.164a.565.565,0,0,0-.424-.936H10.335l1.411-2.275H9.009L7.232,10.8a.774.774,0,0,0,.683,1.15H9.464L8.428,14.824a.237.237,0,0,0-.024.1Zm0,0"
                      transform="translate(0.486 -0.099)" fill="#f33d42"/>
            </g>
        </g>
        <g id="Group_971" data-name="Group 971" transform="translate(297.339 19.463)">
            <path id="Path_1226-4" data-name="Path 1226"
                  d="M232.164,74.907a17.186,17.186,0,1,1-17.183-17.185A17.185,17.185,0,0,1,232.164,74.907Z"
                  transform="translate(-197.792 -57.722)" fill="#19d47d"/>
            <path id="Path_1227-4" data-name="Path 1227"
                  d="M230.9,74.521a16.312,16.312,0,1,1-16.31-16.312A16.312,16.312,0,0,1,230.9,74.521Z"
                  transform="translate(-197.405 -57.336)" fill="#33fc9e"/>
            <path id="Path_1228-4" data-name="Path 1228"
                  d="M225.916,72.992a12.853,12.853,0,1,1-12.851-12.855A12.853,12.853,0,0,1,225.916,72.992Z"
                  transform="translate(-195.876 -55.807)" fill="#19d47d"/>
            <path id="Path_1229-4" data-name="Path 1229"
                  d="M225.136,73.053a12.314,12.314,0,1,1-12.31-12.312A12.313,12.313,0,0,1,225.136,73.053Z"
                  transform="translate(-195.638 -55.328)" fill="#bbffdf"/>
            <g id="Mask_Group_54" data-name="Mask Group 54" transform="translate(8.095 7.833)"
               clip-path="url(#clip-path-4)">
                <g id="phone-call_1_" data-name="phone-call(1)" transform="translate(0.007 0.689)">
                    <g id="Group_973" data-name="Group 973" transform="translate(0 0)">
                        <g id="Group_972" data-name="Group 972">
                            <path id="Path_1242" data-name="Path 1242"
                                  d="M10.368,2.185H10.4a6.18,6.18,0,0,1,6.192,6.223.681.681,0,0,0,.678.684h0a.681.681,0,0,0,.681-.678A7.541,7.541,0,0,0,10.4.824h-.037a.681.681,0,0,0,0,1.362Z"
                                  transform="translate(-1.246 -0.106)" fill="#19d47d"/>
                            <path id="Path_1243" data-name="Path 1243"
                                  d="M17.426,14.043a2.578,2.578,0,0,0-.791-1.771,6.332,6.332,0,0,0-2.507-1.665,2.806,2.806,0,0,0-2.881.817l0,0-.921.914a13.707,13.707,0,0,1-2.9-2.246l-.09-.09A13.793,13.793,0,0,1,5.087,7.1L6,6.184l0,0A2.806,2.806,0,0,0,6.822,3.3,6.332,6.332,0,0,0,5.156.792a2.59,2.59,0,0,0-3.6-.13L1.542.68,1.515.706A5.523,5.523,0,0,0,0,4.751c.014,2.8,1.552,6,4.115,8.562l.006.006a16.613,16.613,0,0,0,1.626,1.415.681.681,0,0,0,.828-1.08,15.223,15.223,0,0,1-1.5-1.3l-.006-.006c-2.311-2.313-3.7-5.154-3.709-7.6a4.206,4.206,0,0,1,1.1-3.064l.005,0a1.225,1.225,0,0,1,1.706.062c1.763,1.828,1.635,2.691.856,3.489L3.771,6.5a.681.681,0,0,0-.139.757,13.755,13.755,0,0,0,2.737,3.715l.09.089A13.755,13.755,0,0,0,10.173,13.8a.681.681,0,0,0,.757-.139L12.2,12.4c.8-.779,1.662-.907,3.49.856a1.225,1.225,0,0,1,.062,1.706l0,.005a4.193,4.193,0,0,1-3.033,1.1h-.031a8.828,8.828,0,0,1-3.359-.8.681.681,0,0,0-.539,1.25,10.043,10.043,0,0,0,3.892.907h.038a5.511,5.511,0,0,0,4.008-1.515l.025-.027.018-.02A2.578,2.578,0,0,0,17.426,14.043Z"
                                  transform="translate(0 0)" fill="#19d47d"/>
                            <path id="Path_1244" data-name="Path 1244"
                                  d="M14.044,5.415A3.741,3.741,0,0,0,12.276,4.4a.681.681,0,1,0-.363,1.312,2.381,2.381,0,0,1,1.168.668,2.433,2.433,0,0,1,.661,1.147l.01.033a.681.681,0,1,0,1.306-.386l-.009-.031A3.747,3.747,0,0,0,14.044,5.415Z"
                                  transform="translate(-1.468 -0.562)" fill="#19d47d"/>
                        </g>
                    </g>
                </g>
            </g>
        </g>
    </g>
</svg>
