<svg xmlns="http://www.w3.org/2000/svg" width="478" height="340" viewBox="0 0 478 340">
    <g id="Group_1106" data-name="Group 1106" transform="translate(-479 -1255.69)">
        <path id="Path_1595" data-name="Path 1595"
              d="M7193.177,1595.136c-109.987-27.144-207.333-2.525-280.025,4.419s-125.158-32.194-75.221-130.671,118.837-125.62,166.246-105.42,134.64,5.05,170.67-25.25,167.069-6.324,104.931,119.939C7251.14,1525.709,7303.165,1622.28,7193.177,1595.136Z"
              transform="translate(-6339.256 -50.779)" fill="#f1f1f1"/>
        <g id="Group_1105" data-name="Group 1105" transform="translate(585.636 1255.69)">
            <g id="Group_1078" data-name="Group 1078" transform="translate(94.873 45.773)">
                <g id="Group_1074" data-name="Group 1074" transform="translate(0 0)">
                    <path id="Path_1381" data-name="Path 1381"
                          d="M365.961,185.317l16.9-9.755-16.9-9.755-16.9,9.755h0l-16.9,9.755,16.9,9.755h0l16.9,9.755,16.9-9.755-16.9-9.755Z"
                          transform="translate(-332.17 -69.975)" fill="#d4ecff"/>
                    <path id="Path_1382" data-name="Path 1382" d="M361.383,172.681V101.147l16.9-9.755v71.534Z"
                          transform="translate(-327.591 -81.638)" fill="#173d7a"/>
                    <path id="Path_1383" data-name="Path 1383" d="M363.672,101.147l-16.9-9.755v71.534l16.9,9.755Z"
                          transform="translate(-329.88 -81.638)" fill="#396caa"/>
                    <path id="Path_1384" data-name="Path 1384" d="M380.567,92.714l-16.9-9.755-16.9,9.755,16.9,9.755Z"
                          transform="translate(-329.88 -82.96)" fill="#d4ecff"/>
                </g>
                <g id="Group_1075" data-name="Group 1075" transform="translate(33.791 84.54)">
                    <path id="Path_1385" data-name="Path 1385" d="M378.278,165.8l-16.9-9.755v6.5l16.9,9.755Z"
                          transform="translate(-361.383 -156.046)" fill="#95d359"/>
                </g>
                <g id="Group_1076" data-name="Group 1076" transform="translate(0 29.264)">
                    <path id="Path_1386" data-name="Path 1386" d="M346.776,178.471V126.446l16.9-9.755v52.025Z"
                          transform="translate(-329.88 -106.937)" fill="#c13d1a"/>
                    <path id="Path_1387" data-name="Path 1387" d="M349.065,126.446l-16.9-9.755v52.025l16.9,9.755Z"
                          transform="translate(-332.17 -106.937)" fill="#db5126"/>
                    <path id="Path_1388" data-name="Path 1388" d="M365.961,118.013l-16.9-9.755-16.9,9.755,16.9,9.755Z"
                          transform="translate(-332.17 -108.258)" fill="#ef602e"/>
                    <path id="Path_1389" data-name="Path 1389" d="M346.776,178.471V126.446l16.9-9.755v52.025Z"
                          transform="translate(-329.88 -106.937)" fill="#396caa"/>
                    <path id="Path_1390" data-name="Path 1390" d="M349.065,126.446l-16.9-9.755v52.025l16.9,9.755Z"
                          transform="translate(-332.17 -106.937)" fill="#5793ce"/>
                    <path id="Path_1391" data-name="Path 1391" d="M365.961,118.013l-16.9-9.755-16.9,9.755,16.9,9.755Z"
                          transform="translate(-332.17 -108.258)" fill="#d4ecff"/>
                </g>
                <g id="Group_1077" data-name="Group 1077" transform="translate(16.896 61.78)">
                    <path id="Path_1392" data-name="Path 1392" d="M361.383,183.82V154.556l16.9-9.755v29.264Z"
                          transform="translate(-344.487 -135.047)" fill="#173d7a"/>
                    <path id="Path_1393" data-name="Path 1393" d="M363.672,154.556l-16.9-9.755v29.264l16.9,9.755Z"
                          transform="translate(-346.776 -135.047)" fill="#396caa"/>
                    <path id="Path_1394" data-name="Path 1394" d="M380.567,146.123l-16.9-9.755-16.9,9.755,16.9,9.755Z"
                          transform="translate(-346.776 -136.368)" fill="#d4ecff"/>
                </g>
            </g>
            <g id="Group_1079" data-name="Group 1079" transform="translate(335.425 192.458)">
                <rect id="Rectangle_1183" data-name="Rectangle 1183" width="2.024" height="5.88"
                      transform="translate(14.413 0) rotate(75.627)" fill="#5793ce"/>
                <rect id="Rectangle_1184" data-name="Rectangle 1184" width="2.024" height="5.88"
                      transform="translate(11.507 2.834) rotate(75.624)" fill="#5793ce"/>
                <rect id="Rectangle_1185" data-name="Rectangle 1185" width="2.024" height="5.88"
                      transform="translate(8.602 5.669) rotate(75.624)" fill="#5793ce"/>
                <rect id="Rectangle_1186" data-name="Rectangle 1186" width="2.024" height="5.88"
                      transform="translate(5.696 8.503) rotate(75.627)" fill="#5793ce"/>
            </g>
            <g id="Group_1085" data-name="Group 1085" transform="translate(69.596 59.107)">
                <g id="Group_1082" data-name="Group 1082">
                    <path id="Path_1395" data-name="Path 1395"
                          d="M440.354,354.122l-127.6-73.67c-3.609-2.083-3.157-5.723,1.012-8.131l86.885-50.146c4.168-2.406,10.473-2.667,14.082-.583l127.6,73.668c3.61,2.084,3.158,5.725-1.011,8.131l-86.885,50.146C450.268,355.945,443.963,356.207,440.354,354.122Z"
                          transform="translate(-310.318 -74.636)" fill="#d4ecff"/>
                    <g id="Group_1080" data-name="Group 1080" transform="translate(95.398)">
                        <path id="Path_1396" data-name="Path 1396"
                              d="M533.76,170.067l-129.7-74.822a4.969,4.969,0,0,0-4.441-.6l0-.015-.213.1c-.016.008-.035.015-.051.024l-4.223,1.987,4.584,2.281c0,.087-.009.167-.009.253l.039,106.532c0,5.331,3.3,11.556,7.371,13.9l126.245,72.827.717,5.942,4.61-2.2c1.519-.893,2.481-2.909,2.48-5.781l-.041-106.531C541.128,178.638,537.828,172.414,533.76,170.067Z"
                              transform="translate(-392.423 -94.357)" fill="#173d7a"/>
                        <path id="Path_1397" data-name="Path 1397"
                              d="M533.76,170.067l-129.7-74.822a4.969,4.969,0,0,0-4.441-.6l0-.015-.213.1c-.016.008-.035.015-.051.024l-4.223,1.987,4.584,2.281c0,.087-.009.167-.009.253l.027,70.211,59.028,46.639,80.147-40.335A14.553,14.553,0,0,0,533.76,170.067Z"
                              transform="translate(-392.423 -94.357)" fill="#396caa"/>
                        <path id="Path_1398" data-name="Path 1398"
                              d="M518.572,161.258l-12.711,5.348,9.6,7.394,8.014-3.412A18.654,18.654,0,0,0,518.572,161.258Z"
                              transform="translate(-375.069 -83.871)" fill="#274f89"/>
                        <path id="Path_1399" data-name="Path 1399"
                              d="M529.9,297.645,400.2,222.822c-4.068-2.346-7.368-8.57-7.37-13.9l-.04-106.531c0-5.331,3.294-7.751,7.363-5.4l129.7,74.822c4.068,2.347,7.367,8.571,7.369,13.9l.039,106.531C537.268,297.572,533.972,299.992,529.9,297.645Z"
                              transform="translate(-392.79 -94.085)" fill="#d4ecff"/>
                        <path id="Path_1400" data-name="Path 1400"
                              d="M524.928,288.662,403.791,218.816c-3.722-2.148-6.743-7.844-6.744-12.723l-.037-97.484c0-4.879,3.016-7.093,6.738-4.945l121.137,69.847c3.722,2.147,6.743,7.843,6.744,12.722l.037,97.484C531.667,288.6,528.65,290.81,524.928,288.662Z"
                              transform="translate(-392.129 -93.027)" fill="#fff"/>
                        <path id="Path_1401" data-name="Path 1401"
                              d="M524.928,288.662,403.791,218.816c-3.722-2.148-6.743-7.844-6.744-12.723l-.037-97.484c0-4.879,3.016-7.093,6.738-4.945l121.137,69.847c3.722,2.147,6.743,7.843,6.744,12.722l.037,97.484C531.667,288.6,528.65,290.81,524.928,288.662Z"
                              transform="translate(-392.129 -93.027)" fill="#fff"/>
                    </g>
                    <path id="Path_1402" data-name="Path 1402"
                          d="M544.766,282.506l-17.442-2.3-112.591-65c-3.609-2.083-9.914-1.822-14.082.584l-79.782,46.045-10.547-1.393v5.985h.01c-.069,1.382.718,2.714,2.421,3.7l127.6,73.668c3.609,2.084,9.914,1.823,14.082-.583l86.885-50.146c2.345-1.355,3.514-3.1,3.446-4.737h0Z"
                          transform="translate(-310.317 -75.638)" fill="#173d7a"/>
                    <path id="Path_1403" data-name="Path 1403"
                          d="M460.169,238.313l-8-4.619H364.224l-43.355,25.014-10.547-1.393V263.3h.01c-.069,1.382.718,2.714,2.421,3.7l127.6,73.668a13.2,13.2,0,0,0,7.268,1.363Z"
                          transform="translate(-310.317 -72.519)" fill="#396caa"/>
                    <path id="Path_1404" data-name="Path 1404"
                          d="M315,254.734l-4.68-.619V260.1h.01c-.069,1.382.718,2.714,2.421,3.7L315,265.1Z"
                          transform="translate(-310.317 -69.318)" fill="#5793ce"/>
                    <path id="Path_1405" data-name="Path 1405"
                          d="M423.846,328.6a16.339,16.339,0,0,0,11.965-.743V314.508H423.846Z"
                          transform="translate(-292.525 -59.853)" fill="#274f89"/>
                    <path id="Path_1406" data-name="Path 1406"
                          d="M440.354,339.153l-127.6-73.67c-3.609-2.083-3.157-5.724,1.012-8.131l86.885-50.146c4.168-2.406,10.473-2.667,14.082-.583l127.6,73.668c3.61,2.084,3.158,5.725-1.011,8.131l-86.885,50.146C450.268,340.976,443.963,341.238,440.354,339.153Z"
                          transform="translate(-310.318 -76.982)" fill="#d4ecff"/>
                    <path id="Path_1407" data-name="Path 1407"
                          d="M541.32,278.7l-86.885,50.146c-4.168,2.406-10.473,2.667-14.082.584l-127.6-73.67a4.754,4.754,0,0,1-2.244-2.455c-.564,1.707.156,3.433,2.244,4.641l127.6,73.668c3.609,2.084,9.914,1.823,14.082-.583l86.885-50.148c2.8-1.617,3.917-3.791,3.255-5.676A6.784,6.784,0,0,1,541.32,278.7Z"
                          transform="translate(-310.317 -69.445)" fill="#fff"/>
                    <g id="Group_1081" data-name="Group 1081" transform="translate(50.62 132.771)">
                        <path id="Path_1408" data-name="Path 1408"
                              d="M360.166,237.395l-5.773-3.334c-.464-.267-.406-.734.13-1.043l6.814-3.935a2.009,2.009,0,0,1,1.809-.074l5.773,3.333c.464.268.4.736-.13,1.045l-6.815,3.934A2.011,2.011,0,0,1,360.166,237.395Z"
                              transform="translate(-354.079 -206.052)" fill="#173d7a"/>
                        <path id="Path_1409" data-name="Path 1409"
                              d="M367.874,241.845l-5.773-3.334c-.464-.267-.406-.734.13-1.043l6.814-3.935a2.009,2.009,0,0,1,1.809-.074l5.773,3.333c.463.268.4.736-.131,1.045l-6.814,3.934A2.011,2.011,0,0,1,367.874,241.845Z"
                              transform="translate(-352.871 -205.355)" fill="#173d7a"/>
                        <path id="Path_1410" data-name="Path 1410"
                              d="M375.581,246.295l-5.773-3.333c-.463-.268-.4-.736.131-1.045l6.814-3.934a2,2,0,0,1,1.808-.075l5.773,3.333c.464.268.406.736-.13,1.045l-6.814,3.934A2.01,2.01,0,0,1,375.581,246.295Z"
                              transform="translate(-351.663 -204.658)" fill="#173d7a"/>
                        <path id="Path_1411" data-name="Path 1411"
                              d="M386.242,242.534l-5.773-3.334c-.464-.267-.406-.734.13-1.043l5.72-3.3a2.006,2.006,0,0,1,1.809-.075l5.773,3.333c.463.268.4.736-.131,1.045l-5.72,3.3A2.011,2.011,0,0,1,386.242,242.534Z"
                              transform="translate(-349.992 -205.148)" fill="#173d7a"/>
                        <path id="Path_1412" data-name="Path 1412"
                              d="M393.948,246.984l-5.773-3.333c-.463-.268-.4-.736.131-1.045l5.72-3.3a2.011,2.011,0,0,1,1.808-.075l5.773,3.334c.464.267.406.735-.13,1.043l-5.72,3.3A2.01,2.01,0,0,1,393.948,246.984Z"
                              transform="translate(-348.784 -204.45)" fill="#173d7a"/>
                        <path id="Path_1413" data-name="Path 1413"
                              d="M401.657,251.434l-5.773-3.333c-.464-.268-.4-.736.13-1.044l5.721-3.3a2.011,2.011,0,0,1,1.808-.075l5.773,3.334c.464.267.406.734-.13,1.043l-5.72,3.3A2.006,2.006,0,0,1,401.657,251.434Z"
                              transform="translate(-347.576 -203.753)" fill="#173d7a"/>
                        <path id="Path_1414" data-name="Path 1414"
                              d="M409.365,255.884l-5.773-3.333c-.464-.268-.406-.736.13-1.045l5.72-3.3a2.013,2.013,0,0,1,1.809-.075l5.773,3.334c.464.267.4.735-.13,1.043l-5.721,3.3A2.007,2.007,0,0,1,409.365,255.884Z"
                              transform="translate(-346.368 -203.056)" fill="#173d7a"/>
                        <path id="Path_1415" data-name="Path 1415"
                              d="M417.073,260.334,411.3,257c-.464-.268-.406-.736.13-1.045l5.72-3.3a2.013,2.013,0,0,1,1.809-.075l5.773,3.334c.464.267.4.735-.13,1.043l-5.721,3.3A2.007,2.007,0,0,1,417.073,260.334Z"
                              transform="translate(-345.16 -202.358)" fill="#173d7a"/>
                        <path id="Path_1416" data-name="Path 1416"
                              d="M424.779,264.785l-5.773-3.334c-.463-.268-.4-.736.131-1.045l5.72-3.3a2.011,2.011,0,0,1,1.808-.075l5.774,3.334c.463.267.4.734-.131,1.043l-5.72,3.3A2.013,2.013,0,0,1,424.779,264.785Z"
                              transform="translate(-343.952 -201.661)" fill="#173d7a"/>
                        <path id="Path_1417" data-name="Path 1417"
                              d="M432.488,269.234l-5.773-3.333c-.464-.267-.4-.736.13-1.045l5.721-3.3a2.011,2.011,0,0,1,1.808-.075l5.773,3.334c.464.267.406.735-.13,1.043l-5.72,3.3A2.009,2.009,0,0,1,432.488,269.234Z"
                              transform="translate(-342.744 -200.963)" fill="#173d7a"/>
                        <path id="Path_1418" data-name="Path 1418"
                              d="M440.2,273.685l-5.773-3.334c-.464-.267-.406-.736.13-1.044l5.72-3.3a2.014,2.014,0,0,1,1.809-.075l5.773,3.334c.464.267.406.735-.13,1.045L442,273.61A2.011,2.011,0,0,1,440.2,273.685Z"
                              transform="translate(-341.536 -200.266)" fill="#173d7a"/>
                        <path id="Path_1419" data-name="Path 1419"
                              d="M447.9,278.135,442.13,274.8c-.464-.267-.406-.735.13-1.045l5.72-3.3a2.013,2.013,0,0,1,1.809-.075l5.773,3.334c.464.267.4.736-.13,1.045l-5.721,3.3A2.011,2.011,0,0,1,447.9,278.135Z"
                              transform="translate(-340.328 -199.568)" fill="#173d7a"/>
                        <path id="Path_1420" data-name="Path 1420"
                              d="M455.611,282.585l-5.773-3.334c-.463-.267-.4-.734.131-1.043l5.72-3.3a2.007,2.007,0,0,1,1.808-.074l5.774,3.333c.463.267.4.736-.131,1.044l-5.72,3.3A2.013,2.013,0,0,1,455.611,282.585Z"
                              transform="translate(-339.12 -198.871)" fill="#173d7a"/>
                        <path id="Path_1421" data-name="Path 1421"
                              d="M397.6,240.427l-5.774-3.333c-.463-.268-.4-.736.131-1.045l5.72-3.3a2.014,2.014,0,0,1,1.809-.075l5.773,3.334c.463.267.4.735-.131,1.043l-5.72,3.3A2,2,0,0,1,397.6,240.427Z"
                              transform="translate(-348.212 -205.478)" fill="#396caa"/>
                        <path id="Path_1422" data-name="Path 1422"
                              d="M389.776,235.911,384,232.578c-.464-.267-.406-.735.13-1.043l5.72-3.3a2.013,2.013,0,0,1,1.809-.075l5.773,3.334c.464.267.4.736-.13,1.045l-5.721,3.3A2.011,2.011,0,0,1,389.776,235.911Z"
                              transform="translate(-349.438 -206.186)" fill="#396caa"/>
                        <path id="Path_1423" data-name="Path 1423"
                              d="M382.842,231.908l-12.434-7.179c-.464-.268-.406-.736.13-1.045l5.72-3.3a2.013,2.013,0,0,1,1.809-.075l12.434,7.179c.464.268.406.736-.13,1.044l-5.72,3.3A2.013,2.013,0,0,1,382.842,231.908Z"
                              transform="translate(-351.569 -207.416)" fill="#173d7a"/>
                        <path id="Path_1424" data-name="Path 1424"
                              d="M388,226.223l-10.09-5.825c-.464-.268-.406-.736.13-1.045l5.72-3.3a2.013,2.013,0,0,1,1.809-.075l10.09,5.826c.464.267.406.734-.13,1.043l-5.72,3.3A2.009,2.009,0,0,1,388,226.223Z"
                              transform="translate(-350.393 -208.095)" fill="#173d7a"/>
                        <path id="Path_1425" data-name="Path 1425"
                              d="M405.306,244.877l-5.773-3.333c-.464-.268-.4-.736.13-1.045l5.721-3.3a2.011,2.011,0,0,1,1.808-.075l5.773,3.334c.464.267.406.735-.13,1.043l-5.72,3.3A2.006,2.006,0,0,1,405.306,244.877Z"
                              transform="translate(-347.005 -204.781)" fill="#396caa"/>
                        <path id="Path_1426" data-name="Path 1426"
                              d="M413.014,249.327l-5.773-3.332c-.464-.268-.4-.736.13-1.045l5.721-3.3a2.011,2.011,0,0,1,1.808-.075l5.773,3.334c.464.267.406.735-.13,1.043l-5.72,3.3A2.009,2.009,0,0,1,413.014,249.327Z"
                              transform="translate(-345.796 -204.083)" fill="#173d7a"/>
                        <path id="Path_1427" data-name="Path 1427"
                              d="M420.722,253.777l-5.773-3.333c-.464-.267-.406-.736.13-1.045l5.72-3.3a2.013,2.013,0,0,1,1.809-.075l5.773,3.334c.464.267.4.735-.13,1.045l-5.721,3.3A2.007,2.007,0,0,1,420.722,253.777Z"
                              transform="translate(-344.588 -203.386)" fill="#173d7a"/>
                        <path id="Path_1428" data-name="Path 1428"
                              d="M428.43,258.228l-5.774-3.334c-.463-.267-.4-.736.131-1.045l5.72-3.3a2.013,2.013,0,0,1,1.809-.075l5.773,3.334c.463.267.4.735-.131,1.045l-5.72,3.3A2.011,2.011,0,0,1,428.43,258.228Z"
                              transform="translate(-343.38 -202.688)" fill="#173d7a"/>
                        <path id="Path_1429" data-name="Path 1429"
                              d="M436.137,262.678l-5.773-3.334c-.463-.267-.4-.735.131-1.045l5.72-3.3a2.011,2.011,0,0,1,1.808-.075l5.773,3.334c.464.267.406.735-.13,1.045l-5.72,3.3A2.013,2.013,0,0,1,436.137,262.678Z"
                              transform="translate(-342.172 -201.991)" fill="#173d7a"/>
                        <path id="Path_1430" data-name="Path 1430"
                              d="M443.845,267.128l-5.773-3.334c-.464-.267-.4-.734.13-1.044l5.721-3.3a2.011,2.011,0,0,1,1.808-.075l5.773,3.334c.464.267.406.734-.13,1.044l-5.72,3.3A2.014,2.014,0,0,1,443.845,267.128Z"
                              transform="translate(-340.964 -201.294)" fill="#173d7a"/>
                        <path id="Path_1431" data-name="Path 1431"
                              d="M451.553,271.578l-5.773-3.334c-.464-.267-.406-.734.13-1.045l5.72-3.3a2.009,2.009,0,0,1,1.809-.074l5.773,3.333c.464.268.4.736-.13,1.044l-5.721,3.3A2.011,2.011,0,0,1,451.553,271.578Z"
                              transform="translate(-339.756 -200.596)" fill="#173d7a"/>
                        <path id="Path_1432" data-name="Path 1432"
                              d="M459.261,276.028l-5.773-3.334c-.464-.267-.406-.735.13-1.043l5.72-3.3a2.009,2.009,0,0,1,1.809-.074l5.773,3.333c.463.267.4.736-.131,1.044l-5.72,3.3A2.011,2.011,0,0,1,459.261,276.028Z"
                              transform="translate(-338.548 -199.899)" fill="#173d7a"/>
                        <path id="Path_1433" data-name="Path 1433"
                              d="M466.968,280.478l-5.773-3.334c-.463-.267-.4-.735.131-1.043l5.72-3.3a2,2,0,0,1,1.808-.075l5.773,3.333c.464.268.406.736-.13,1.045l-5.72,3.3A2.013,2.013,0,0,1,466.968,280.478Z"
                              transform="translate(-337.34 -199.201)" fill="#173d7a"/>
                        <path id="Path_1434" data-name="Path 1434"
                              d="M481.6,288.923,469,281.651c-.464-.268-.406-.736.13-1.045l5.721-3.3a2.011,2.011,0,0,1,1.808-.075l12.6,7.273c.464.267.406.735-.13,1.043l-5.72,3.3A2.009,2.009,0,0,1,481.6,288.923Z"
                              transform="translate(-336.117 -198.495)" fill="#173d7a"/>
                        <path id="Path_1435" data-name="Path 1435"
                              d="M496.335,280.105,485.7,273.968c-.463-.268-.4-.736.131-1.044l5.72-3.3a2.011,2.011,0,0,1,1.808-.075l10.633,6.139c.464.267.406.735-.13,1.043l-5.72,3.3A2.009,2.009,0,0,1,496.335,280.105Z"
                              transform="translate(-333.499 -199.699)" fill="#173d7a"/>
                        <path id="Path_1436" data-name="Path 1436"
                              d="M418.8,244.007l-5.773-3.334c-.464-.267-.4-.736.13-1.045l5.721-3.3a2.011,2.011,0,0,1,1.808-.075l5.773,3.334c.464.267.406.735-.13,1.045l-5.72,3.3A2.013,2.013,0,0,1,418.8,244.007Z"
                              transform="translate(-344.889 -204.917)" fill="#173d7a"/>
                        <path id="Path_1437" data-name="Path 1437"
                              d="M410.9,239.446l-5.773-3.334c-.464-.267-.406-.735.13-1.043l5.72-3.3a2.009,2.009,0,0,1,1.809-.074l5.773,3.333c.464.268.4.736-.13,1.045l-5.721,3.3A2.011,2.011,0,0,1,410.9,239.446Z"
                              transform="translate(-346.127 -205.632)" fill="#173d7a"/>
                        <path id="Path_1438" data-name="Path 1438"
                              d="M403,234.885l-5.773-3.333c-.464-.268-.4-.736.13-1.045l5.721-3.3a2,2,0,0,1,1.808-.075l5.773,3.333c.464.268.406.736-.13,1.044l-5.72,3.3A2.013,2.013,0,0,1,403,234.885Z"
                              transform="translate(-347.365 -206.347)" fill="#396caa"/>
                        <path id="Path_1439" data-name="Path 1439"
                              d="M395.106,230.324l-5.773-3.333c-.464-.268-.406-.736.13-1.045l5.72-3.3a2.013,2.013,0,0,1,1.809-.075l5.773,3.334c.464.267.4.735-.13,1.043l-5.721,3.3A2,2,0,0,1,395.106,230.324Z"
                              transform="translate(-348.603 -207.061)" fill="#173d7a"/>
                        <path id="Path_1440" data-name="Path 1440"
                              d="M426.512,248.457l-5.773-3.334c-.464-.267-.406-.735.13-1.045l5.721-3.3a2.011,2.011,0,0,1,1.808-.075l5.773,3.334c.464.267.406.735-.13,1.045l-5.721,3.3A2.011,2.011,0,0,1,426.512,248.457Z"
                              transform="translate(-343.681 -204.22)" fill="#173d7a"/>
                        <path id="Path_1441" data-name="Path 1441"
                              d="M434.22,252.907l-5.773-3.334c-.464-.267-.406-.735.13-1.043l5.72-3.3a2.009,2.009,0,0,1,1.809-.074l5.773,3.333c.464.267.4.736-.13,1.045l-5.721,3.3A2.011,2.011,0,0,1,434.22,252.907Z"
                              transform="translate(-342.473 -203.522)" fill="#173d7a"/>
                        <path id="Path_1442" data-name="Path 1442"
                              d="M441.928,257.357l-5.774-3.334c-.463-.267-.4-.735.131-1.043l5.72-3.3a2.01,2.01,0,0,1,1.809-.074l5.773,3.333c.463.268.4.736-.131,1.044l-5.72,3.3A2.011,2.011,0,0,1,441.928,257.357Z"
                              transform="translate(-341.265 -202.825)" fill="#173d7a"/>
                        <path id="Path_1443" data-name="Path 1443"
                              d="M449.635,261.807l-5.773-3.334c-.464-.267-.4-.735.13-1.043l5.721-3.3a2.007,2.007,0,0,1,1.808-.074l5.773,3.333c.464.268.406.736-.13,1.044l-5.72,3.3A2.013,2.013,0,0,1,449.635,261.807Z"
                              transform="translate(-340.057 -202.127)" fill="#173d7a"/>
                        <path id="Path_1444" data-name="Path 1444"
                              d="M457.343,266.257l-5.773-3.334c-.464-.267-.406-.734.13-1.043l5.721-3.3a2.007,2.007,0,0,1,1.808-.074L465,261.835c.464.268.406.736-.13,1.045l-5.72,3.3A2.013,2.013,0,0,1,457.343,266.257Z"
                              transform="translate(-338.849 -201.43)" fill="#173d7a"/>
                        <path id="Path_1445" data-name="Path 1445"
                              d="M465.051,270.707l-5.773-3.332c-.464-.268-.406-.736.13-1.045l5.72-3.3a2.006,2.006,0,0,1,1.809-.075l5.773,3.333c.464.268.4.736-.13,1.045l-5.721,3.3A2.01,2.01,0,0,1,465.051,270.707Z"
                              transform="translate(-337.641 -200.733)" fill="#173d7a"/>
                        <path id="Path_1446" data-name="Path 1446"
                              d="M472.759,275.157l-5.774-3.334c-.463-.267-.4-.735.131-1.043l5.72-3.3a2.01,2.01,0,0,1,1.809-.075l5.773,3.334c.463.267.4.734-.131,1.043l-5.72,3.3A2.007,2.007,0,0,1,472.759,275.157Z"
                              transform="translate(-336.433 -200.035)" fill="#173d7a"/>
                        <path id="Path_1447" data-name="Path 1447"
                              d="M480.466,279.607l-5.773-3.333c-.464-.268-.4-.736.13-1.044l5.721-3.3a2.011,2.011,0,0,1,1.808-.075l5.773,3.334c.464.267.406.734-.13,1.043l-5.72,3.3A2.006,2.006,0,0,1,480.466,279.607Z"
                              transform="translate(-335.225 -199.338)" fill="#173d7a"/>
                        <path id="Path_1448" data-name="Path 1448"
                              d="M488.174,284.057l-5.773-3.332c-.464-.268-.4-.736.13-1.045l5.721-3.3a2.011,2.011,0,0,1,1.808-.075l5.773,3.334c.464.267.406.735-.13,1.043l-5.72,3.3A2.006,2.006,0,0,1,488.174,284.057Z"
                              transform="translate(-334.017 -198.64)" fill="#173d7a"/>
                        <path id="Path_1449" data-name="Path 1449"
                              d="M414.746,233l-5.773-3.334c-.464-.267-.406-.735.13-1.045l5.72-3.3a2.013,2.013,0,0,1,1.809-.075l5.773,3.334c.463.267.4.735-.131,1.045l-5.72,3.3A2.011,2.011,0,0,1,414.746,233Z"
                              transform="translate(-345.525 -206.642)" fill="#173d7a"/>
                        <path id="Path_1450" data-name="Path 1450"
                              d="M407.076,228.572l-5.773-3.334c-.464-.267-.4-.735.13-1.045l5.721-3.3a2.011,2.011,0,0,1,1.808-.075l5.773,3.334c.464.267.406.735-.13,1.045l-5.72,3.3A2.013,2.013,0,0,1,407.076,228.572Z"
                              transform="translate(-346.727 -207.336)" fill="#173d7a"/>
                        <path id="Path_1451" data-name="Path 1451"
                              d="M399.407,224.144l-5.773-3.334c-.464-.267-.406-.735.129-1.045l5.72-3.3a2.013,2.013,0,0,1,1.809-.075l5.773,3.334c.464.268.4.736-.13,1.045l-5.721,3.3A2.011,2.011,0,0,1,399.407,224.144Z"
                              transform="translate(-347.929 -208.03)" fill="#173d7a"/>
                        <path id="Path_1452" data-name="Path 1452"
                              d="M391.736,219.716l-5.773-3.334c-.463-.267-.4-.735.131-1.045l5.72-3.3a2.011,2.011,0,0,1,1.808-.075l5.773,3.334c.464.268.406.736-.13,1.045l-5.72,3.3A2.014,2.014,0,0,1,391.736,219.716Z"
                              transform="translate(-349.131 -208.724)" fill="#173d7a"/>
                        <path id="Path_1453" data-name="Path 1453"
                              d="M399.624,214.864l-5.773-3.334c-.464-.267-.406-.736.13-1.045l1.891-1.092a2.007,2.007,0,0,1,1.808-.074l5.773,3.333c.464.268.406.736-.13,1.044l-1.891,1.092A2.011,2.011,0,0,1,399.624,214.864Z"
                              transform="translate(-347.895 -209.138)" fill="#173d7a"/>
                        <path id="Path_1454" data-name="Path 1454"
                              d="M409.632,220.642l-5.773-3.334c-.463-.267-.4-.734.131-1.043l1.89-1.092a2.013,2.013,0,0,1,1.809-.075l5.773,3.334c.464.267.4.735-.13,1.043l-1.891,1.092A2.013,2.013,0,0,1,409.632,220.642Z"
                              transform="translate(-346.326 -208.233)" fill="#173d7a"/>
                        <path id="Path_1455" data-name="Path 1455"
                              d="M417.27,225.051l-5.773-3.333c-.464-.267-.406-.736.13-1.045l1.891-1.092a2.007,2.007,0,0,1,1.808-.074l5.773,3.333c.464.267.406.736-.13,1.045l-1.891,1.092A2.007,2.007,0,0,1,417.27,225.051Z"
                              transform="translate(-345.129 -207.542)" fill="#173d7a"/>
                        <path id="Path_1456" data-name="Path 1456"
                              d="M424.907,229.461l-5.773-3.334c-.463-.267-.4-.735.131-1.043l1.89-1.092a2.013,2.013,0,0,1,1.809-.075l5.773,3.334c.464.267.4.735-.13,1.043l-1.891,1.092A2.013,2.013,0,0,1,424.907,229.461Z"
                              transform="translate(-343.932 -206.85)" fill="#173d7a"/>
                        <path id="Path_1457" data-name="Path 1457"
                              d="M432.545,233.87l-5.773-3.333c-.464-.268-.406-.736.13-1.045l1.891-1.092a2.007,2.007,0,0,1,1.808-.074l5.773,3.333c.464.267.406.736-.13,1.045l-1.891,1.092A2.007,2.007,0,0,1,432.545,233.87Z"
                              transform="translate(-342.736 -206.159)" fill="#173d7a"/>
                        <path id="Path_1458" data-name="Path 1458"
                              d="M475.184,258.488l-5.774-3.334c-.463-.267-.4-.735.131-1.043l1.891-1.092a2.011,2.011,0,0,1,1.808-.075l5.773,3.334c.464.267.406.734-.13,1.043l-1.891,1.092A2.011,2.011,0,0,1,475.184,258.488Z"
                              transform="translate(-336.053 -202.301)" fill="#173d7a"/>
                        <path id="Path_1459" data-name="Path 1459"
                              d="M482.821,262.9l-5.773-3.333c-.464-.268-.406-.736.13-1.044l1.891-1.092a2.011,2.011,0,0,1,1.808-.075l5.774,3.334c.463.268.4.736-.131,1.045l-1.891,1.092A2.007,2.007,0,0,1,482.821,262.9Z"
                              transform="translate(-334.856 -201.61)" fill="#173d7a"/>
                        <path id="Path_1460" data-name="Path 1460"
                              d="M490.458,267.307l-5.773-3.334c-.463-.267-.4-.734.131-1.043l1.89-1.092a2.013,2.013,0,0,1,1.809-.075l5.773,3.334c.464.267.4.735-.13,1.043l-1.891,1.092A2.013,2.013,0,0,1,490.458,267.307Z"
                              transform="translate(-333.659 -200.919)" fill="#173d7a"/>
                        <path id="Path_1461" data-name="Path 1461"
                              d="M498.1,271.716l-5.773-3.333c-.464-.268-.406-.736.13-1.044l1.891-1.092a2.011,2.011,0,0,1,1.808-.075l5.773,3.334c.464.268.406.736-.13,1.045l-1.891,1.092A2.007,2.007,0,0,1,498.1,271.716Z"
                              transform="translate(-332.462 -200.228)" fill="#173d7a"/>
                        <path id="Path_1462" data-name="Path 1462"
                              d="M422.452,237.45l-5.773-3.334c-.463-.267-.4-.734.131-1.044l5.72-3.3a2.011,2.011,0,0,1,1.808-.075l5.773,3.334c.464.267.406.736-.13,1.044l-5.72,3.3A2.013,2.013,0,0,1,422.452,237.45Z"
                              transform="translate(-344.317 -205.945)" fill="#173d7a"/>
                        <path id="Path_1463" data-name="Path 1463"
                              d="M430.161,241.9l-5.773-3.334c-.464-.267-.4-.734.13-1.044l5.721-3.3a2.007,2.007,0,0,1,1.808-.074l5.773,3.333c.464.268.406.736-.13,1.044l-5.72,3.3A2.013,2.013,0,0,1,430.161,241.9Z"
                              transform="translate(-343.109 -205.247)" fill="#173d7a"/>
                        <path id="Path_1464" data-name="Path 1464"
                              d="M437.869,246.35l-5.773-3.334c-.464-.267-.406-.735.13-1.043l5.72-3.3a2.01,2.01,0,0,1,1.809-.074l5.773,3.333c.464.268.4.736-.13,1.045l-5.721,3.3A2.011,2.011,0,0,1,437.869,246.35Z"
                              transform="translate(-341.901 -204.55)" fill="#173d7a"/>
                        <path id="Path_1465" data-name="Path 1465"
                              d="M445.577,250.8l-5.773-3.334c-.464-.267-.406-.735.13-1.043l5.72-3.3a2.006,2.006,0,0,1,1.809-.075l5.773,3.333c.463.268.4.736-.131,1.045l-5.72,3.3A2.011,2.011,0,0,1,445.577,250.8Z"
                              transform="translate(-340.693 -203.852)" fill="#173d7a"/>
                        <path id="Path_1466" data-name="Path 1466"
                              d="M453.284,255.25l-5.773-3.334c-.463-.267-.4-.735.131-1.043l5.72-3.3a2.007,2.007,0,0,1,1.808-.074l5.774,3.333c.463.268.4.736-.131,1.045l-5.72,3.3A2.013,2.013,0,0,1,453.284,255.25Z"
                              transform="translate(-339.485 -203.155)" fill="#173d7a"/>
                        <path id="Path_1467" data-name="Path 1467"
                              d="M460.992,259.7l-5.773-3.333c-.464-.268-.4-.736.13-1.045l5.721-3.3a2,2,0,0,1,1.808-.075l5.773,3.333c.464.268.406.736-.13,1.045l-5.72,3.3A2.014,2.014,0,0,1,460.992,259.7Z"
                              transform="translate(-338.277 -202.458)" fill="#173d7a"/>
                        <path id="Path_1468" data-name="Path 1468"
                              d="M468.7,264.15l-5.773-3.333c-.464-.268-.406-.736.13-1.045l5.72-3.3a2.01,2.01,0,0,1,1.809-.075l5.773,3.334c.464.267.406.735-.13,1.043l-5.721,3.3A2.007,2.007,0,0,1,468.7,264.15Z"
                              transform="translate(-337.069 -201.76)" fill="#173d7a"/>
                        <path id="Path_1469" data-name="Path 1469"
                              d="M476.408,268.6l-5.773-3.333c-.464-.268-.406-.736.13-1.045l5.72-3.3a2.013,2.013,0,0,1,1.809-.075l5.773,3.334c.464.267.4.735-.13,1.043l-5.721,3.3A2,2,0,0,1,476.408,268.6Z"
                              transform="translate(-335.861 -201.063)" fill="#173d7a"/>
                        <path id="Path_1470" data-name="Path 1470"
                              d="M484.115,273.05l-5.773-3.333c-.463-.268-.4-.736.131-1.044l5.72-3.3A2.011,2.011,0,0,1,486,265.3l5.774,3.334c.463.267.4.735-.131,1.043l-5.72,3.3A2.006,2.006,0,0,1,484.115,273.05Z"
                              transform="translate(-334.653 -200.365)" fill="#173d7a"/>
                        <path id="Path_1471" data-name="Path 1471"
                              d="M379.908,238.878l-17-9.816c-.464-.268-.406-.736.13-1.045l5.72-3.3a2.01,2.01,0,0,1,1.809-.075l17,9.817c.464.267.4.735-.13,1.043l-5.721,3.3A2,2,0,0,1,379.908,238.878Z"
                              transform="translate(-352.745 -206.737)" fill="#173d7a"/>
                        <path id="Path_1472" data-name="Path 1472"
                              d="M474.6,293.548l-17-9.816c-.463-.268-.4-.736.131-1.044l5.72-3.3a2.011,2.011,0,0,1,1.808-.075l17,9.817c.463.267.4.734-.131,1.043l-5.72,3.3A2.007,2.007,0,0,1,474.6,293.548Z"
                              transform="translate(-337.904 -198.169)" fill="#173d7a"/>
                        <path id="Path_1473" data-name="Path 1473"
                              d="M442.254,284.789l-5.773-3.334c-.464-.267-.4-.736.13-1.044l6.815-3.934a2.011,2.011,0,0,1,1.808-.075l5.773,3.334c.464.267.406.735-.13,1.044l-6.814,3.934A2.013,2.013,0,0,1,442.254,284.789Z"
                              transform="translate(-341.214 -198.625)" fill="#173d7a"/>
                        <path id="Path_1474" data-name="Path 1474"
                              d="M386.748,252.742l-9.233-5.33c-.464-.268-.4-.736.13-1.045l6.815-3.934a2,2,0,0,1,1.808-.075l9.233,5.33c.464.268.406.736-.13,1.045l-6.814,3.934A2.013,2.013,0,0,1,386.748,252.742Z"
                              transform="translate(-350.455 -203.96)" fill="#173d7a"/>
                        <path id="Path_1475" data-name="Path 1475"
                              d="M435.3,280.771l-9.234-5.331c-.463-.267-.4-.734.131-1.043l6.814-3.935a2.007,2.007,0,0,1,1.808-.074l9.234,5.33c.463.267.4.736-.131,1.045L437.1,280.7A2.011,2.011,0,0,1,435.3,280.771Z"
                              transform="translate(-342.846 -199.567)" fill="#173d7a"/>
                        <path id="Path_1476" data-name="Path 1476"
                              d="M397.869,259.164l-9.233-5.331c-.464-.267-.406-.735.13-1.045l6.814-3.934a2.014,2.014,0,0,1,1.809-.075l9.233,5.331c.464.267.4.735-.13,1.045l-6.815,3.934A2.011,2.011,0,0,1,397.869,259.164Z"
                              transform="translate(-348.712 -202.954)" fill="#173d7a"/>
                        <path id="Path_1477" data-name="Path 1477"
                              d="M397.4,248.786l40.143,23.176a.549.549,0,0,1,0,1.041l-6.95,4.013a2,2,0,0,1-1.8,0l-40.143-23.177Z"
                              transform="translate(-348.661 -202.924)" fill="#173d7a"/>
                        <path id="Path_1478" data-name="Path 1478"
                              d="M463.6,291.716l6.431,3.713c.379.22.332.6-.107.856l-2.788,1.609a1.647,1.647,0,0,1-1.483.061l-6.43-3.713c-.381-.219-.333-.6.106-.855l2.788-1.61A1.645,1.645,0,0,1,463.6,291.716Z"
                              transform="translate(-337.641 -196.219)" fill="#173d7a"/>
                        <path id="Path_1479" data-name="Path 1479"
                              d="M455.827,287.229l6.431,3.713c.379.22.332.6-.106.856l-2.788,1.609a1.645,1.645,0,0,1-1.482.061l-6.431-3.712c-.379-.22-.332-.6.106-.856l2.788-1.61A1.649,1.649,0,0,1,455.827,287.229Z"
                              transform="translate(-338.859 -196.923)" fill="#173d7a"/>
                        <path id="Path_1480" data-name="Path 1480"
                              d="M448.12,282.779l6.43,3.713c.381.22.333.6-.106.856l-2.788,1.609a1.645,1.645,0,0,1-1.482.061l-6.431-3.713c-.379-.219-.332-.6.106-.855l2.788-1.61A1.647,1.647,0,0,1,448.12,282.779Z"
                              transform="translate(-340.067 -197.62)" fill="#173d7a"/>
                        <path id="Path_1481" data-name="Path 1481"
                              d="M460.084,284.772l6.43,3.713c.381.219.333.6-.106.855l-2.788,1.61a1.645,1.645,0,0,1-1.482.061l-6.431-3.713c-.379-.22-.332-.6.106-.856l2.788-1.609A1.647,1.647,0,0,1,460.084,284.772Z"
                              transform="translate(-338.192 -197.308)" fill="#173d7a"/>
                    </g>
                </g>
                <g id="Group_1084" data-name="Group 1084" transform="translate(162.46 80.099)">
                    <g id="Group_1083" data-name="Group 1083">
                        <path id="Path_1482" data-name="Path 1482"
                              d="M468.607,175.959l-5.521-3.188a2.282,2.282,0,0,1-.949-1.781h0c-.01-.688.4-1.006.908-.71l5.521,3.188a2.282,2.282,0,0,1,.949,1.781h0C469.525,175.937,469.119,176.255,468.607,175.959Z"
                              transform="translate(-448.984 -162.574)" fill="#d4ecff"/>
                        <path id="Path_1483" data-name="Path 1483"
                              d="M480.333,182.728l-8.142-4.7a2.28,2.28,0,0,1-.947-1.781h0c-.012-.687.4-1.005.907-.71l8.142,4.7a2.282,2.282,0,0,1,.949,1.781h0C481.251,182.706,480.845,183.025,480.333,182.728Z"
                              transform="translate(-447.557 -161.75)" fill="#d4ecff"/>
                        <path id="Path_1484" data-name="Path 1484"
                              d="M466.242,201.415l-5.522-3.188a2.284,2.284,0,0,1-.947-1.781h0c-.012-.688.4-1.006.908-.71l5.521,3.188a2.282,2.282,0,0,1,.949,1.781h0C467.16,201.393,466.754,201.711,466.242,201.415Z"
                              transform="translate(-449.354 -158.585)" fill="#d4ecff"/>
                        <path id="Path_1485" data-name="Path 1485"
                              d="M476.733,207.471l-8.142-4.7a2.282,2.282,0,0,1-.947-1.781h0c-.012-.687.4-1.005.908-.709l8.141,4.7a2.283,2.283,0,0,1,.949,1.781h0C477.651,207.449,477.245,207.768,476.733,207.471Z"
                              transform="translate(-448.121 -157.872)" fill="#d4ecff"/>
                        <path id="Path_1486" data-name="Path 1486"
                              d="M455.237,172.709l-3.449-1.992a2.28,2.28,0,0,1-.949-1.781h0c-.01-.687.4-1.005.908-.709l3.449,1.991a2.277,2.277,0,0,1,.947,1.781h0C456.155,172.687,455.749,173.005,455.237,172.709Z"
                              transform="translate(-450.754 -162.896)" fill="#d4ecff"/>
                        <path id="Path_1487" data-name="Path 1487"
                              d="M466.38,183.614l-10.539-6.086a2.277,2.277,0,0,1-.947-1.781h0c-.012-.687.394-1.005.907-.709l10.539,6.084a2.282,2.282,0,0,1,.949,1.781h0C467.3,183.592,466.893,183.909,466.38,183.614Z"
                              transform="translate(-450.119 -161.828)" fill="#d4ecff"/>
                        <path id="Path_1488" data-name="Path 1488"
                              d="M459.437,188.545l-3.449-1.992a2.277,2.277,0,0,1-.947-1.781h0c-.012-.687.394-1.005.907-.71l3.449,1.992a2.282,2.282,0,0,1,.949,1.781h0C460.355,188.523,459.949,188.842,459.437,188.545Z"
                              transform="translate(-450.096 -160.414)" fill="#d4ecff"/>
                        <path id="Path_1489" data-name="Path 1489"
                              d="M480.4,218.528l-9.213-5.32a2.275,2.275,0,0,1-.947-1.781h0c-.012-.687.394-1.005.907-.71l9.213,5.32a2.277,2.277,0,0,1,.947,1.781h0C481.316,218.506,480.91,218.824,480.4,218.528Z"
                              transform="translate(-447.714 -156.237)" fill="#d4ecff"/>
                        <path id="Path_1490" data-name="Path 1490"
                              d="M458.349,196.857l-2.215-1.278a2.284,2.284,0,0,1-.947-1.781h0c-.012-.687.4-1.005.908-.71l2.214,1.279a2.278,2.278,0,0,1,.947,1.78h0C459.267,196.835,458.861,197.153,458.349,196.857Z"
                              transform="translate(-450.073 -159)" fill="#d4ecff"/>
                        <path id="Path_1491" data-name="Path 1491"
                              d="M459.03,206.192l-2.75-1.588a2.281,2.281,0,0,1-.949-1.781h0c-.01-.687.4-1.005.908-.71l2.75,1.588a2.277,2.277,0,0,1,.947,1.781h0C459.949,206.169,459.542,206.487,459.03,206.192Z"
                              transform="translate(-450.05 -157.585)" fill="#d4ecff"/>
                        <path id="Path_1492" data-name="Path 1492"
                              d="M468.888,211.883l-7.25-4.186a2.278,2.278,0,0,1-.947-1.78h0c-.012-.688.4-1.006.907-.71l7.25,4.185a2.281,2.281,0,0,1,.947,1.781h0C469.806,211.861,469.4,212.178,468.888,211.883Z"
                              transform="translate(-449.21 -157.1)" fill="#d4ecff"/>
                        <path id="Path_1493" data-name="Path 1493"
                              d="M461.566,212.125l-5.212-3.009a2.277,2.277,0,0,1-.947-1.781h0c-.012-.688.394-1.006.907-.71l5.212,3.01a2.275,2.275,0,0,1,.947,1.78h0C462.484,212.1,462.078,212.421,461.566,212.125Z"
                              transform="translate(-450.039 -156.878)" fill="#d4ecff"/>
                        <path id="Path_1494" data-name="Path 1494"
                              d="M486.441,222.036l-3.348-1.933a2.278,2.278,0,0,1-.947-1.78h0c-.012-.688.4-1.006.907-.71l3.348,1.933a2.28,2.28,0,0,1,.949,1.78h0C487.359,222.014,486.953,222.332,486.441,222.036Z"
                              transform="translate(-445.848 -155.156)" fill="#d4ecff"/>
                        <path id="Path_1495" data-name="Path 1495"
                              d="M471.311,195.4l-9.213-5.319a2.277,2.277,0,0,1-.947-1.781h0c-.012-.688.394-1.006.907-.71l9.213,5.32a2.275,2.275,0,0,1,.947,1.78h0C472.229,195.378,471.823,195.7,471.311,195.4Z"
                              transform="translate(-449.138 -159.861)" fill="#d4ecff"/>
                        <path id="Path_1496" data-name="Path 1496"
                              d="M471.972,191.312l-16.058-9.27a2.277,2.277,0,0,1-.947-1.781h0c-.012-.688.394-1.006.907-.71l16.058,9.271a2.277,2.277,0,0,1,.947,1.781h0C472.89,191.29,472.484,191.608,471.972,191.312Z"
                              transform="translate(-450.107 -161.121)" fill="#d4ecff"/>
                        <path id="Path_1497" data-name="Path 1497"
                              d="M465.274,196.385l-9.213-5.319a2.281,2.281,0,0,1-.947-1.781h0c-.012-.688.4-1.006.907-.71l9.213,5.32a2.279,2.279,0,0,1,.949,1.78h0C466.192,196.363,465.786,196.681,465.274,196.385Z"
                              transform="translate(-450.085 -159.707)" fill="#d4ecff"/>
                        <path id="Path_1498" data-name="Path 1498"
                              d="M476.557,198.429l-3.348-1.933a2.275,2.275,0,0,1-.947-1.78h0c-.012-.688.394-1.006.907-.71l3.348,1.933a2.279,2.279,0,0,1,.949,1.78h0C477.475,198.407,477.069,198.725,476.557,198.429Z"
                              transform="translate(-447.397 -158.856)" fill="#d4ecff"/>
                        <path id="Path_1499" data-name="Path 1499"
                              d="M503.384,196.037l-19.823-11.445a2.276,2.276,0,0,1-.947-1.781h0c-.012-.687.394-1.005.907-.709l19.823,11.445a2.28,2.28,0,0,1,.948,1.781h0C504.3,196.015,503.9,196.333,503.384,196.037Z"
                              transform="translate(-445.774 -160.721)" fill="#d4ecff"/>
                        <path id="Path_1500" data-name="Path 1500"
                              d="M467.282,206.485l-11.074-6.393a2.283,2.283,0,0,1-.949-1.781h0c-.01-.688.4-1.006.908-.71l11.075,6.394a2.277,2.277,0,0,1,.947,1.781h0C468.2,206.463,467.794,206.781,467.282,206.485Z"
                              transform="translate(-450.062 -158.292)" fill="#d4ecff"/>
                        <path id="Path_1501" data-name="Path 1501"
                              d="M459.857,170.907l-8.142-4.7a2.282,2.282,0,0,1-.949-1.781h0c-.01-.688.4-1.006.908-.71l8.142,4.7a2.281,2.281,0,0,1,.947,1.781h0C460.775,170.885,460.368,171.2,459.857,170.907Z"
                              transform="translate(-450.766 -163.603)" fill="#d4ecff"/>
                        <path id="Path_1502" data-name="Path 1502"
                              d="M461.875,216.774l-9.43-5.444a2.277,2.277,0,0,1-.947-1.781h0c-.012-.688.394-1.006.907-.71l9.43,5.445a2.28,2.28,0,0,1,.949,1.781h0C462.793,216.752,462.387,217.07,461.875,216.774Z"
                              transform="translate(-450.651 -156.531)" fill="#d4ecff"/>
                    </g>
                </g>
            </g>
            <g id="Group_1092" data-name="Group 1092" transform="translate(1.905 0)">
                <g id="Group_1086" data-name="Group 1086">
                    <path id="Path_1503" data-name="Path 1503"
                          d="M252.065,227.27l48.571-28.28c9.622-5.557,18.7-6.435,25.552-2.48s10.629,12.257,10.629,23.366v3.559c-.345.232-.7.459-1.071.684v-4.243c0-10.71-3.586-18.68-10.094-22.438s-15.2-2.877-24.481,2.479L252.6,228.2a.536.536,0,0,1-.536-.928Z"
                          transform="translate(-251.798 -19.773)" fill="#d4ecff"/>
                    <path id="Path_1504" data-name="Path 1504"
                          d="M386.243,217.2V107.739c0-21.908,15.438-48.647,34.413-59.6,9.292-5.365,18.058-6.215,24.68-2.392S455.6,57.582,455.6,68.313v7.632l-1.071,1.071v-8.7c0-10.332-3.456-18.017-9.733-21.64s-14.66-2.774-23.609,2.391c-18.68,10.785-33.877,37.107-33.877,58.675V217.2c0,18.161-10.686,39.655-25.176,52.588v-1.437C376.056,255.558,386.243,234.788,386.243,217.2Z"
                          transform="translate(-234.505 -43.389)" fill="#d4ecff"/>
                    <path id="Path_1505" data-name="Path 1505"
                          d="M443.085,75.91h0a42.99,42.99,0,0,1,21.927-10.734c13.553-2.072,19.154,13.778,19.154,13.778s1.569,8.232,1.512,13.106-.4,22.568-.4,22.568l-42.964-24.75V89.87a.532.532,0,0,1-.295-.472V76.836C442.371,76.479,442.728,76.267,443.085,75.91Z"
                          transform="translate(-221.986 -40.003)" fill="#173d7a"/>
                </g>
                <g id="Group_1090" data-name="Group 1090" transform="translate(0.206 0.2)">
                    <g id="Group_1088" data-name="Group 1088">
                        <path id="Path_1506" data-name="Path 1506"
                              d="M486.073,69.194,445.35,45.717l.16.585c-6.276-4.054-15.763-4.492-28.451,4.813-25.2,18.482-28.23,44.212-29.515,49.034s-.757,35.368-.757,35.368-.084,73.675-.168,82.244-2.578,18.183-7.393,28.563-17.18,22.976-17.18,22.976v15c1.973,16.214,8.863,19.994,19.111,20.919,8.272.745,17.085-5.227,24.127-11.736-.259.271-.427.443-.427.443v15c1.975,16.213,8.863,19.993,19.113,20.918s21.332-8.464,28.843-16.41,13.844-20.081,17.361-31.027,2.353-25.092,2.353-25.092.084-80.536.168-96.413.589-13.106,5.8-29.067,19.015-27.136,19.015-27.136l33.13-9.866Z"
                              transform="translate(-234.725 -43.561)" fill="#9fd4ff"/>
                        <path id="Path_1507" data-name="Path 1507"
                              d="M421.085,301.467c-.559-.759-7.815-5.625-9.663-14.193a66.881,66.881,0,0,1-.924-12.014s.03-4.03.127-7.693c.081-.072.164-.138.245-.209v-1.437c-.067.061-.135.116-.2.176.028-.827.059-1.6.095-2.261.21-3.809-2.6-11.929-2.6-11.929s-3.991-10.879-15.878-11.3c-10.554-.374-21.663,7.219-24.026,8.93v-4.913c-.156.106-.326.208-.488.312.013-.658.028-1.331.045-1.992.081-.071.164-.137.245-.208V241.3c-.066.06-.135.116-.2.176.028-.827.059-1.6.1-2.261.209-3.809-2.6-11.929-2.6-11.929s-3.991-10.88-15.877-11.3c-10.555-.372-21.663,7.22-24.026,8.931V220c-.345.232-.7.459-1.071.684v8.6c0,10.421,3.471,18.252,9.775,22.141l.025.029.22.127c.059.035.115.075.173.11.038.022.08.036.118.058l43.588,25.094c-.01-.015-.039-.04-.056-.058Z"
                              transform="translate(-240.63 -16.54)" fill="#173d7a"/>
                        <g id="Group_1087" data-name="Group 1087" transform="translate(0 174.56)">
                            <path id="Path_1508" data-name="Path 1508"
                                  d="M368.973,221.069s-.327-.168-.9-.4c-.177-.086-.348-.185-.527-.266L326.16,196.448a22.211,22.211,0,0,0-16.8-.629c-9.2,3.366-57.384,32.275-57.384,32.275l43.05,24.8.008,0a.475.475,0,0,0,.115.031l42.69,24.594S361.99,262.554,378.7,252.9l1.071-.618c6.832-3.928,12.257-6.862,13.959-7.313,10.3-2.73,17.469.6,19.336,1.621Z"
                                  transform="translate(-251.976 -194.47)" fill="#9fd4ff"/>
                            <path id="Path_1509" data-name="Path 1509"
                                  d="M391.239,239.529l.5.289S391.555,239.7,391.239,239.529Z"
                                  transform="translate(-230.15 -187.408)" fill="#9fd4ff"/>
                        </g>
                    </g>
                    <path id="Path_1510" data-name="Path 1510"
                          d="M480.1,97.195h0A42.989,42.989,0,0,1,502.024,86.46c13.553-2.072,19.154,13.778,19.154,13.778s1.567,8.232,1.512,13.106-.4,22.568-.4,22.568l-42.964-24.75v-.006a.53.53,0,0,1-.295-.472V98.121C479.382,97.764,479.74,97.552,480.1,97.195Z"
                          transform="translate(-216.391 -36.867)" fill="#173d7a"/>
                    <g id="Group_1089" data-name="Group 1089" transform="translate(85.588 49.18)">
                        <path id="Path_1511" data-name="Path 1511"
                              d="M429.207,323.772c4.737,0,9.981-1.581,15.406-4.715,18.838-10.876,34.163-37.421,34.163-59.171V150.429c0-21.568,15.2-47.89,33.878-58.676,8.948-5.164,17.331-6.015,23.608-2.392s9.733,11.31,9.733,21.642v24.469a.536.536,0,0,0,1.071,0V111c0-10.731-3.646-18.746-10.268-22.569s-15.387-2.973-24.679,2.392c-18.976,10.955-34.414,37.693-34.414,59.6V259.887c0,21.41-15.085,47.538-33.627,58.245-8.879,5.125-17.2,5.971-23.432,2.374s-9.66-11.225-9.66-21.479V286.182c0-11.11-3.774-19.409-10.629-23.366s-15.928-3.077-25.551,2.479l-48.571,28.281a.535.535,0,1,0,.536.927l48.571-28.28c9.276-5.356,17.971-6.237,24.48-2.479s10.094,11.727,10.094,22.438v12.843c0,10.653,3.621,18.611,10.2,22.407A17.966,17.966,0,0,0,429.207,323.772Z"
                              transform="translate(-325.968 -86.078)" fill="#396caa"/>
                    </g>
                </g>
                <path id="Path_1512" data-name="Path 1512"
                      d="M419.257,165.923l-7.18-4.146a2.968,2.968,0,0,1-1.233-2.317h0c-.014-.894.515-1.307,1.181-.923l7.18,4.146A2.963,2.963,0,0,1,420.437,165h0C420.452,165.894,419.923,166.307,419.257,165.923Z"
                      transform="translate(-226.871 -25.364)" fill="#5793ce"/>
                <path id="Path_1513" data-name="Path 1513"
                      d="M432.9,173.8l-10.588-6.113a2.963,2.963,0,0,1-1.232-2.316h0c-.015-.9.514-1.308,1.18-.924l10.588,6.113a2.961,2.961,0,0,1,1.232,2.316h0C434.094,173.771,433.566,174.184,432.9,173.8Z"
                      transform="translate(-225.267 -24.438)" fill="#5793ce"/>
                <path id="Path_1514" data-name="Path 1514"
                      d="M419.438,142.776l-13.7-7.913a2.961,2.961,0,0,1-1.232-2.316h0c-.015-.894.514-1.308,1.18-.923l13.7,7.912a2.963,2.963,0,0,1,1.232,2.317h0C420.633,142.747,420.1,143.16,419.438,142.776Z"
                      transform="translate(-227.865 -29.583)" fill="#5793ce"/>
                <path id="Path_1515" data-name="Path 1515"
                      d="M410.409,149.188l-4.486-2.59a2.969,2.969,0,0,1-1.232-2.316h0c-.015-.9.514-1.308,1.18-.924l4.486,2.59a2.963,2.963,0,0,1,1.232,2.317h0C411.6,149.159,411.075,149.572,410.409,149.188Z"
                      transform="translate(-227.836 -27.743)" fill="#5793ce"/>
                <path id="Path_1516" data-name="Path 1516"
                      d="M408.993,160l-2.879-1.662a2.967,2.967,0,0,1-1.233-2.317h0c-.014-.894.514-1.307,1.18-.923l2.879,1.662a2.967,2.967,0,0,1,1.233,2.317h0C410.187,159.968,409.659,160.381,408.993,160Z"
                      transform="translate(-227.806 -25.904)" fill="#5793ce"/>
                <path id="Path_1517" data-name="Path 1517"
                      d="M425.849,158.1l-11.98-6.917a2.965,2.965,0,0,1-1.233-2.316h0c-.014-.894.514-1.308,1.18-.923l11.98,6.916a2.967,2.967,0,0,1,1.233,2.317h0C427.043,158.074,426.516,158.487,425.849,158.1Z"
                      transform="translate(-226.59 -27.024)" fill="#5793ce"/>
                <path id="Path_1518" data-name="Path 1518"
                      d="M426.709,152.786,405.828,140.73a2.961,2.961,0,0,1-1.232-2.316h0c-.015-.9.514-1.308,1.18-.923l20.88,12.055a2.965,2.965,0,0,1,1.233,2.316h0C427.9,152.757,427.375,153.171,426.709,152.786Z"
                      transform="translate(-227.85 -28.663)" fill="#5793ce"/>
                <path id="Path_1519" data-name="Path 1519"
                      d="M418,159.384l-11.98-6.917a2.967,2.967,0,0,1-1.233-2.316h0c-.014-.9.514-1.308,1.18-.924l11.98,6.917a2.967,2.967,0,0,1,1.233,2.316h0C419.193,159.355,418.666,159.768,418,159.384Z"
                      transform="translate(-227.821 -26.824)" fill="#5793ce"/>
                <path id="Path_1520" data-name="Path 1520"
                      d="M432.671,162.041l-4.353-2.512a2.963,2.963,0,0,1-1.232-2.317h0c-.015-.894.514-1.307,1.18-.923l4.353,2.514a2.961,2.961,0,0,1,1.232,2.316h0C433.866,162.013,433.337,162.426,432.671,162.041Z"
                      transform="translate(-224.326 -25.717)" fill="#5793ce"/>
                <g id="Group_1091" data-name="Group 1091" transform="translate(170.427 84.865)">
                    <path id="Path_1521" data-name="Path 1521"
                          d="M422.333,132.821l-7.18-4.146a2.967,2.967,0,0,1-1.233-2.317h0c-.014-.894.514-1.307,1.18-.923l7.181,4.146a2.963,2.963,0,0,1,1.232,2.317h0C423.528,132.792,423,133.205,422.333,132.821Z"
                          transform="translate(-396.816 -115.417)" fill="#5793ce"/>
                    <path id="Path_1522" data-name="Path 1522"
                          d="M437.58,141.625l-10.587-6.113a2.961,2.961,0,0,1-1.232-2.316h0c-.015-.9.514-1.308,1.18-.923l10.588,6.112a2.962,2.962,0,0,1,1.232,2.316h0C438.775,141.6,438.247,142.009,437.58,141.625Z"
                          transform="translate(-394.961 -114.345)" fill="#5793ce"/>
                    <path id="Path_1523" data-name="Path 1523"
                          d="M419.257,165.923l-7.18-4.146a2.968,2.968,0,0,1-1.233-2.317h0c-.014-.894.515-1.307,1.181-.923l7.18,4.146A2.963,2.963,0,0,1,420.437,165h0C420.452,165.894,419.923,166.307,419.257,165.923Z"
                          transform="translate(-397.298 -110.229)" fill="#5793ce"/>
                    <path id="Path_1524" data-name="Path 1524"
                          d="M432.9,173.8l-10.588-6.113a2.963,2.963,0,0,1-1.232-2.316h0c-.015-.9.514-1.308,1.18-.924l10.588,6.113a2.961,2.961,0,0,1,1.232,2.316h0C434.094,173.771,433.566,174.184,432.9,173.8Z"
                          transform="translate(-395.694 -109.303)" fill="#5793ce"/>
                    <path id="Path_1525" data-name="Path 1525"
                          d="M404.947,128.6l-4.486-2.59a2.97,2.97,0,0,1-1.232-2.317h0c-.015-.894.514-1.307,1.18-.923l4.486,2.59a2.963,2.963,0,0,1,1.232,2.316h0C406.142,128.567,405.613,128.98,404.947,128.6Z"
                          transform="translate(-399.119 -115.835)" fill="#5793ce"/>
                    <path id="Path_1526" data-name="Path 1526"
                          d="M419.438,142.776l-13.7-7.913a2.961,2.961,0,0,1-1.232-2.316h0c-.015-.894.514-1.308,1.18-.923l13.7,7.912a2.963,2.963,0,0,1,1.232,2.317h0C420.633,142.747,420.1,143.16,419.438,142.776Z"
                          transform="translate(-398.293 -114.447)" fill="#5793ce"/>
                    <path id="Path_1527" data-name="Path 1527"
                          d="M410.409,149.188l-4.486-2.59a2.969,2.969,0,0,1-1.232-2.316h0c-.015-.9.514-1.308,1.18-.924l4.486,2.59a2.963,2.963,0,0,1,1.232,2.317h0C411.6,149.159,411.075,149.572,410.409,149.188Z"
                          transform="translate(-398.263 -112.608)" fill="#5793ce"/>
                    <path id="Path_1528" data-name="Path 1528"
                          d="M437.665,188.177l-11.98-6.917a2.967,2.967,0,0,1-1.233-2.316h0c-.014-.9.514-1.308,1.18-.923l11.98,6.916a2.968,2.968,0,0,1,1.233,2.317h0C438.859,188.148,438.332,188.561,437.665,188.177Z"
                          transform="translate(-395.166 -107.176)" fill="#5793ce"/>
                    <path id="Path_1529" data-name="Path 1529"
                          d="M408.993,160l-2.879-1.662a2.967,2.967,0,0,1-1.233-2.317h0c-.014-.894.514-1.307,1.18-.923l2.879,1.662a2.967,2.967,0,0,1,1.233,2.317h0C410.187,159.968,409.659,160.381,408.993,160Z"
                          transform="translate(-398.233 -110.769)" fill="#5793ce"/>
                    <path id="Path_1530" data-name="Path 1530"
                          d="M409.88,172.134l-3.575-2.065a2.965,2.965,0,0,1-1.233-2.316h0c-.014-.894.515-1.308,1.18-.923l3.577,2.065a2.962,2.962,0,0,1,1.232,2.316h0C411.074,172.105,410.546,172.519,409.88,172.134Z"
                          transform="translate(-398.203 -108.929)" fill="#5793ce"/>
                    <path id="Path_1531" data-name="Path 1531"
                          d="M422.7,179.535l-9.426-5.442a2.968,2.968,0,0,1-1.233-2.317h0c-.014-.894.514-1.307,1.18-.923l9.427,5.442a2.963,2.963,0,0,1,1.232,2.317h0C423.892,179.506,423.364,179.919,422.7,179.535Z"
                          transform="translate(-397.111 -108.299)" fill="#5793ce"/>
                    <path id="Path_1532" data-name="Path 1532"
                          d="M413.176,179.851l-6.777-3.913a2.965,2.965,0,0,1-1.233-2.316h0c-.014-.9.515-1.308,1.181-.923l6.777,3.913a2.965,2.965,0,0,1,1.233,2.316h0C414.371,179.822,413.843,180.236,413.176,179.851Z"
                          transform="translate(-398.188 -108.01)" fill="#5793ce"/>
                    <path id="Path_1533" data-name="Path 1533"
                          d="M425.849,158.1l-11.98-6.917a2.965,2.965,0,0,1-1.233-2.316h0c-.014-.894.514-1.308,1.18-.923l11.98,6.916a2.967,2.967,0,0,1,1.233,2.317h0C427.043,158.074,426.516,158.487,425.849,158.1Z"
                          transform="translate(-397.018 -111.889)" fill="#5793ce"/>
                    <path id="Path_1534" data-name="Path 1534"
                          d="M426.709,152.786,405.828,140.73a2.961,2.961,0,0,1-1.232-2.316h0c-.015-.9.514-1.308,1.18-.923l20.88,12.055a2.965,2.965,0,0,1,1.233,2.316h0C427.9,152.757,427.375,153.171,426.709,152.786Z"
                          transform="translate(-398.278 -113.528)" fill="#5793ce"/>
                    <path id="Path_1535" data-name="Path 1535"
                          d="M418,159.384l-11.98-6.917a2.967,2.967,0,0,1-1.233-2.316h0c-.014-.9.514-1.308,1.18-.924l11.98,6.917a2.967,2.967,0,0,1,1.233,2.316h0C419.193,159.355,418.666,159.768,418,159.384Z"
                          transform="translate(-398.248 -111.688)" fill="#5793ce"/>
                    <path id="Path_1536" data-name="Path 1536"
                          d="M432.671,162.041l-4.353-2.512a2.963,2.963,0,0,1-1.232-2.317h0c-.015-.894.514-1.307,1.18-.923l4.353,2.514a2.961,2.961,0,0,1,1.232,2.316h0C433.866,162.013,433.337,162.426,432.671,162.041Z"
                          transform="translate(-394.753 -110.581)" fill="#5793ce"/>
                    <path id="Path_1537" data-name="Path 1537"
                          d="M420.61,172.517l-14.4-8.315a2.967,2.967,0,0,1-1.233-2.317h0c-.014-.894.514-1.308,1.18-.923l14.4,8.315a2.967,2.967,0,0,1,1.233,2.316h0C421.8,172.488,421.277,172.9,420.61,172.517Z"
                          transform="translate(-398.218 -109.849)" fill="#5793ce"/>
                    <path id="Path_1538" data-name="Path 1538"
                          d="M410.953,126.251l-10.587-6.112a2.963,2.963,0,0,1-1.232-2.317h0c-.015-.894.514-1.307,1.18-.923l10.588,6.113a2.961,2.961,0,0,1,1.232,2.316h0C412.148,126.223,411.62,126.636,410.953,126.251Z"
                          transform="translate(-399.134 -116.755)" fill="#5793ce"/>
                    <path id="Path_1539" data-name="Path 1539"
                          d="M413.579,185.9l-12.262-7.08a2.961,2.961,0,0,1-1.232-2.316h0c-.015-.894.514-1.308,1.18-.923l12.262,7.079a2.963,2.963,0,0,1,1.232,2.317h0C414.774,185.868,414.246,186.281,413.579,185.9Z"
                          transform="translate(-398.985 -107.558)" fill="#5793ce"/>
                </g>
                <path id="Path_1540" data-name="Path 1540"
                      d="M417.8,221.607l-7.18-4.146a2.965,2.965,0,0,1-1.233-2.316h0c-.014-.9.515-1.308,1.18-.924l7.181,4.146a2.963,2.963,0,0,1,1.232,2.317h0C418.993,221.578,418.464,221.991,417.8,221.607Z"
                      transform="translate(-227.1 -16.637)" fill="#5793ce"/>
                <path id="Path_1541" data-name="Path 1541"
                      d="M431.441,229.484l-10.587-6.113a2.965,2.965,0,0,1-1.233-2.316h0c-.014-.894.515-1.308,1.181-.923l10.587,6.112a2.97,2.97,0,0,1,1.232,2.317h0C432.635,229.455,432.107,229.869,431.441,229.484Z"
                      transform="translate(-225.496 -15.711)" fill="#5793ce"/>
                <path id="Path_1542" data-name="Path 1542"
                      d="M417.979,198.459l-13.7-7.912a2.963,2.963,0,0,1-1.232-2.317h0c-.015-.894.514-1.307,1.18-.923l13.7,7.913a2.961,2.961,0,0,1,1.232,2.316h0C419.174,198.431,418.645,198.845,417.979,198.459Z"
                      transform="translate(-228.094 -20.855)" fill="#5793ce"/>
                <path id="Path_1543" data-name="Path 1543"
                      d="M408.95,204.872l-4.486-2.59a2.961,2.961,0,0,1-1.232-2.316h0c-.015-.894.514-1.308,1.18-.923l4.486,2.59a2.961,2.961,0,0,1,1.232,2.316h0C410.145,204.843,409.616,205.257,408.95,204.872Z"
                      transform="translate(-228.064 -19.016)" fill="#5793ce"/>
                <path id="Path_1544" data-name="Path 1544"
                      d="M407.534,215.681l-2.88-1.662a2.968,2.968,0,0,1-1.232-2.316h0c-.015-.9.514-1.308,1.18-.923l2.879,1.662a2.965,2.965,0,0,1,1.233,2.316h0C408.728,215.652,408.2,216.066,407.534,215.681Z"
                      transform="translate(-228.034 -17.177)" fill="#5793ce"/>
                <path id="Path_1545" data-name="Path 1545"
                      d="M424.39,213.786l-11.981-6.916a2.963,2.963,0,0,1-1.232-2.317h0c-.015-.894.514-1.307,1.18-.923l11.98,6.917a2.965,2.965,0,0,1,1.233,2.316h0C425.584,213.759,425.055,214.172,424.39,213.786Z"
                      transform="translate(-226.819 -18.297)" fill="#5793ce"/>
                <path id="Path_1546" data-name="Path 1546"
                      d="M425.249,208.471l-20.88-12.055a2.963,2.963,0,0,1-1.232-2.317h0c-.015-.894.514-1.307,1.18-.923l20.88,12.055a2.967,2.967,0,0,1,1.233,2.316h0C426.444,208.442,425.915,208.855,425.249,208.471Z"
                      transform="translate(-228.079 -19.936)" fill="#5793ce"/>
                <path id="Path_1547" data-name="Path 1547"
                      d="M416.54,215.068l-11.981-6.917a2.961,2.961,0,0,1-1.232-2.316h0c-.015-.9.514-1.308,1.18-.923l11.98,6.917a2.965,2.965,0,0,1,1.233,2.316h0C417.734,215.039,417.205,215.452,416.54,215.068Z"
                      transform="translate(-228.049 -18.097)" fill="#5793ce"/>
                <path id="Path_1548" data-name="Path 1548"
                      d="M431.212,217.726l-4.353-2.514a2.965,2.965,0,0,1-1.233-2.316h0c-.014-.894.515-1.308,1.181-.923l4.353,2.512a2.963,2.963,0,0,1,1.232,2.317h0C432.407,217.7,431.878,218.11,431.212,217.726Z"
                      transform="translate(-224.555 -16.99)" fill="#5793ce"/>
            </g>
            <g id="Group_1098" data-name="Group 1098" transform="translate(24.433 107.436)">
                <g id="Group_1097" data-name="Group 1097">
                    <g id="Group_1094" data-name="Group 1094" transform="translate(3.091)">
                        <path id="Path_1549" data-name="Path 1549"
                              d="M300.219,283.88s-4.105-2.071-6.627,1.012-6.125,10.36-6.236,15.277,3.891,4.585,6.271,3.422,9.33-11.247,9.751-13.223-.5-4.647-1.165-5.169S300.219,283.88,300.219,283.88Z"
                              transform="translate(-271.845 -113.089)" fill="#5793ce"/>
                        <path id="Path_1550" data-name="Path 1550"
                              d="M300.3,283.066l.19,4.253a2.41,2.41,0,0,1-1.2,2.212,4.726,4.726,0,0,1-3.166.493c-3.093-.5-3.368-1.38-3.589-5.632S300.3,283.066,300.3,283.066Z"
                              transform="translate(-271.034 -113.264)" fill="#d4ecff"/>
                        <g id="Group_1093" data-name="Group 1093" transform="translate(0 75.453)">
                            <path id="Path_1551" data-name="Path 1551"
                                  d="M287.228,276.811s-4.105-2.071-6.626,1.012-6.125,10.36-6.237,15.277,3.891,4.584,6.271,3.42,9.33-11.246,9.751-13.221-.5-4.648-1.165-5.169S287.228,276.811,287.228,276.811Z"
                                  transform="translate(-273.881 -189.65)" fill="#5793ce"/>
                            <path id="Path_1552" data-name="Path 1552"
                                  d="M287.312,276l.191,4.253a2.413,2.413,0,0,1-1.2,2.213,4.736,4.736,0,0,1-3.167.493c-3.092-.5-3.368-1.381-3.589-5.633S287.312,276,287.312,276Z"
                                  transform="translate(-273.07 -189.825)" fill="#d4ecff"/>
                            <path id="Path_1553" data-name="Path 1553"
                                  d="M324.819,209.458c-1.216-19.768-21.41,2.908-21.41,2.908l-13.821,13.548-12.446,13.673a12.265,12.265,0,0,0-3.091,9.855l5.034,38.336a3.768,3.768,0,0,0,3.778,3.275,12.913,12.913,0,0,0,1.866-.163,4.683,4.683,0,0,0,4.16-4.97l-.921-35.856,26.137-15.756S326.033,229.227,324.819,209.458Z"
                                  transform="translate(-273.946 -201.368)" fill="#173d7a"/>
                        </g>
                        <path id="Path_1554" data-name="Path 1554"
                              d="M337.809,215.969c-1.215-19.768-21.409,2.909-21.409,2.909l-13.822,13.546L290.133,246.1a12.266,12.266,0,0,0-3.092,9.855l5.035,38.337a3.768,3.768,0,0,0,3.778,3.275,12.762,12.762,0,0,0,1.865-.164,4.684,4.684,0,0,0,4.161-4.969l-.921-35.856L327.1,240.818S339.023,235.739,337.809,215.969Z"
                              transform="translate(-271.911 -124.894)" fill="#173d7a"/>
                        <path id="Path_1555" data-name="Path 1555"
                              d="M324.59,160.311c15.31,6.348,15,15.4,15,15.4s-3,33.178-1.975,55.337c.427,9.263-49.215,9.97-41.812-14.742,8.73-29.138,5.457-52.727,9.544-56.284S320.629,158.67,324.59,160.311Z"
                              transform="translate(-270.638 -132.694)" fill="#5793ce"/>
                        <path id="Path_1556" data-name="Path 1556"
                              d="M326.937,168.025c-.8,3.109-4.873,4.747-9.1,3.66s-7-4.49-6.2-7.6,4.873-4.747,9.1-3.659S327.737,164.917,326.937,168.025Z"
                              transform="translate(-268.06 -132.383)" fill="#ffc2b0"/>
                        <path id="Path_1557" data-name="Path 1557"
                              d="M320.524,172.848a11.09,11.09,0,0,1-2.767-.356,10.182,10.182,0,0,1-5.367-3.287,5.853,5.853,0,0,1-1.356-5.2c.9-3.5,5.38-5.374,9.988-4.184a10.184,10.184,0,0,1,5.367,3.286,5.854,5.854,0,0,1,1.356,5.2h0C327.028,171.091,324.038,172.848,320.524,172.848Zm-2.305-11.927c-2.843,0-5.22,1.322-5.767,3.447a4.433,4.433,0,0,0,1.073,3.911,8.718,8.718,0,0,0,4.6,2.8c3.822.984,7.506-.421,8.206-3.134h0a4.434,4.434,0,0,0-1.073-3.911,8.734,8.734,0,0,0-4.6-2.8A9.824,9.824,0,0,0,318.218,160.921Z"
                              transform="translate(-268.159 -132.482)" fill="#fff"/>
                        <path id="Path_1558" data-name="Path 1558"
                              d="M315.3,159.829a37.84,37.84,0,0,1-.133,5.466c-.083,1.526,5.257,2.951,6.638,1.57s.828-2.815,1.159-8.007S315.3,159.829,315.3,159.829Z"
                              transform="translate(-267.486 -132.902)" fill="#ffc2b0"/>
                        <path id="Path_1559" data-name="Path 1559" d="M322.963,158.576s-1.315,4.813-7.8,6.659l.1-4.375Z"
                              transform="translate(-267.486 -132.621)" fill="#ea9c92"/>
                        <circle id="Ellipse_116" data-name="Ellipse 116" cx="11.785" cy="11.785" r="11.785"
                                transform="translate(32.065 20.947) rotate(-59.844)" fill="#ffc2b0"/>
                        <path id="Path_1560" data-name="Path 1560"
                              d="M319.909,151.315s-6.488,2.78-10.981,2.811-3.5-3.73-3.5-3.73l13.337-1.927Z"
                              transform="translate(-269.027 -134.205)" fill="#ea9c92"/>
                        <path id="Path_1561" data-name="Path 1561"
                              d="M308.283,153.979s5.652-2.4,10.611-1.4a5.2,5.2,0,0,1,3,1.78,1.767,1.767,0,0,0,.907.656c.879.2,2.319-3.448,4.028-3.531s2.849,1.127,1.448,3.37-.928,4.755-.283,5.115,7.484-4.878,1.452-16.828-21.355-5.514-23.739-3.092c0,0-2.511,2.187-4.553.241C301.148,140.291,298.86,157.436,308.283,153.979Z"
                              transform="translate(-269.722 -136.137)" fill="#ff2c9c"/>
                        <path id="Path_1562" data-name="Path 1562"
                              d="M328.79,194.971v8.966a3.652,3.652,0,0,1-1.191,2.7l-18.417,16.791,2.094,3.2L335.6,208.988a4.947,4.947,0,0,0,2.014-3.485l1.644-15.634Z"
                              transform="translate(-268.424 -127.716)" fill="#ffc2b0"/>
                        <path id="Path_1563" data-name="Path 1563"
                              d="M333.608,169.449s5.587,8.4,7.668,30.52c0,0-9.544,3.087-14.961,1.335S333.608,169.449,333.608,169.449Z"
                              transform="translate(-265.949 -130.917)" fill="#5793ce"/>
                        <path id="Path_1564" data-name="Path 1564"
                              d="M325.565,178.634s-2.189,11.706-2.312,17.209a3.513,3.513,0,0,0,2.312,3.392h0Z"
                              transform="translate(-266.219 -129.477)" fill="#396caa"/>
                    </g>
                    <g id="Group_1095" data-name="Group 1095" transform="translate(2.944 89.016)">
                        <path id="Path_1565" data-name="Path 1565"
                              d="M328.534,231.131l-4.07-.538-26.276-15.17a3.652,3.652,0,0,0-3.286.136L276.281,226.3l-2.461-.325v2.45h0a.958.958,0,0,0,.566.863l29.779,17.192a3.652,3.652,0,0,0,3.286-.135l20.277-11.7a1.328,1.328,0,0,0,.8-1.1h0Z"
                              transform="translate(-273.819 -212.779)" fill="#5793ce"/>
                        <path id="Path_1566" data-name="Path 1566"
                              d="M308.791,220.817l-1.867-1.078H286.4l-10.118,5.838-2.461-.325v2.45h0a.958.958,0,0,0,.566.863l29.779,17.192a3.073,3.073,0,0,0,1.7.318Z"
                              transform="translate(-273.819 -212.051)" fill="#396caa"/>
                        <path id="Path_1567" data-name="Path 1567"
                              d="M274.912,224.648l-1.092-.143v2.45h0a.958.958,0,0,0,.566.863l.524.3Z"
                              transform="translate(-273.819 -211.304)" fill="#5793ce"/>
                        <path id="Path_1568" data-name="Path 1568"
                              d="M300.314,242.941a3.811,3.811,0,0,0,2.792-.174V238.6h-2.792Z"
                              transform="translate(-269.667 -209.095)" fill="#fff"/>
                        <path id="Path_1569" data-name="Path 1569"
                              d="M304.167,244.35l-29.779-17.192c-.842-.486-.737-1.336.236-1.9l20.277-11.7a3.648,3.648,0,0,1,3.286-.136l29.779,17.192c.842.486.737,1.336-.236,1.9l-20.277,11.7A3.652,3.652,0,0,1,304.167,244.35Z"
                              transform="translate(-273.819 -213.093)" fill="#fff"/>
                        <path id="Path_1570" data-name="Path 1570"
                              d="M303.038,240.894l-24.761-14.3c-.7-.4-.612-1.11.2-1.578l10.866-6.11a3.034,3.034,0,0,1,2.732-.113l24.761,14.295c.7.4.613,1.112-.2,1.578l-10.865,6.111A3.043,3.043,0,0,1,303.038,240.894Z"
                              transform="translate(-273.195 -212.242)" fill="#d4ecff"/>
                    </g>
                    <path id="Path_1571" data-name="Path 1571"
                          d="M293.1,213.146,292.8,215.2a15.186,15.186,0,0,0,.134,5.269l.366,1.81a2.547,2.547,0,0,0,2.04,2h0a1.4,1.4,0,0,0,1.647-1.226l.492-4.392s1.124,1.473,1.667,1.473-.607-4.4-1.835-6.888S293.1,213.146,293.1,213.146Z"
                          transform="translate(-267.927 -124.23)" fill="#ffc2b0"/>
                    <path id="Path_1572" data-name="Path 1572"
                          d="M303.4,185.615,300.2,191.94a12.388,12.388,0,0,0-1.307,4.8l-1.388,21.632-4.2-.1-1.909-24.291a8.9,8.9,0,0,1,.109-2.245l2.18-12.319Z"
                          transform="translate(-268.125 -129.355)" fill="#ffc2b0"/>
                    <g id="Group_1096" data-name="Group 1096" transform="translate(0 76.136)">
                        <path id="Path_1573" data-name="Path 1573"
                              d="M303.487,247.747l-2.5-3.26-26.258-15.2a3.652,3.652,0,0,1-1.521-2.917l.022-21.5-1.51-1.971,1.419-.822v0a.961.961,0,0,1,1.03.059l29.758,17.229a3.655,3.655,0,0,1,1.521,2.916l-.025,23.412a1.326,1.326,0,0,1-.556,1.248h0Z"
                              transform="translate(-271.204 -201.958)" fill="#173d7a"/>
                        <path id="Path_1574" data-name="Path 1574"
                              d="M285.328,235.42l-1.866-1.08-10.24-17.787.01-11.681-1.51-1.971,1.419-.822v0a.961.961,0,0,1,1.03.059l29.758,17.229a3.085,3.085,0,0,1,1.121,1.312Z"
                              transform="translate(-271.204 -201.958)" fill="#396caa"/>
                        <path id="Path_1575" data-name="Path 1575"
                              d="M272.393,203.775l-.67-.874,1.419-.822v0a.961.961,0,0,1,1.03.059l.524.3Z"
                              transform="translate(-271.204 -201.958)" fill="#5793ce"/>
                        <path id="Path_1576" data-name="Path 1576"
                              d="M300.214,217.175a3.807,3.807,0,0,1,1.243,2.507l-2.908,1.678-1.393-2.42Z"
                              transform="translate(-267.217 -199.573)" fill="#274f89"/>
                        <path id="Path_1577" data-name="Path 1577"
                              d="M302.584,220.078,272.826,202.85c-.842-.487-1.526.028-1.527,1.151l-.025,23.412a3.652,3.652,0,0,0,1.522,2.916l29.757,17.229c.842.487,1.526-.029,1.527-1.152L304.105,223A3.659,3.659,0,0,0,302.584,220.078Z"
                              transform="translate(-271.274 -201.847)" fill="#5793ce"/>
                    </g>
                    <path id="Path_1578" data-name="Path 1578"
                          d="M312.32,222.079l-.478.988a6.606,6.606,0,0,1-2.487,2.758l-2.955,1.822a2.943,2.943,0,0,1-3.018.069l-.1-.06a1.779,1.779,0,0,1-.251-2.732l3.089-3.175s-1.735,1.329-2.222.794c-.356-.392,1.683-2.307,3.249-2.37a6.174,6.174,0,0,0,3.08-1.292Z"
                          transform="translate(-266.379 -123.17)" fill="#ffc2b0"/>
                    <path id="Path_1579" data-name="Path 1579"
                          d="M306.373,159.72s-11.324,12.32-15.892,23.623a23.121,23.121,0,0,0,13.351,9.714C313.31,195.794,306.373,159.72,306.373,159.72Z"
                          transform="translate(-268.264 -132.441)" fill="#5793ce"/>
                    <path id="Path_1580" data-name="Path 1580"
                          d="M300.517,190.31l1.835-17.729-4.324,16.611A24.91,24.91,0,0,0,300.517,190.31Z"
                          transform="translate(-267.081 -130.426)" fill="#396caa"/>
                </g>
            </g>
            <path id="Path_1581" data-name="Path 1581"
                  d="M544.986,161.057l-5.1-10.382,10.38-5.1,5.1,10.382Zm-2.006-9.327,3.062,6.229,6.227-3.061-3.061-6.229Z"
                  transform="translate(-204.743 -27.319)" fill="#ff2c9c"/>
            <path id="Path_1582" data-name="Path 1582"
                  d="M276.4,121.726a7.519,7.519,0,1,1,7.519-7.519A7.527,7.527,0,0,1,276.4,121.726Zm0-12.724a5.205,5.205,0,1,0,5.205,5.205A5.21,5.21,0,0,0,276.4,109Z"
                  transform="translate(-247.216 -33.434)" fill="#5793ce"/>
            <path id="Path_1583" data-name="Path 1583"
                  d="M261.065,323.459A5.457,5.457,0,1,1,255.607,318,5.457,5.457,0,0,1,261.065,323.459Z"
                  transform="translate(-250.151 -0.199)" fill="#d4ecff"/>
            <path id="Path_1584" data-name="Path 1584"
                  d="M502.556,53.622a6.5,6.5,0,1,1-6.5-6.5A6.5,6.5,0,0,1,502.556,53.622Z"
                  transform="translate(-212.631 -42.804)" fill="#d4ecff"/>
            <g id="Group_1101" data-name="Group 1101" transform="translate(218.286 59.976)">
                <g id="Group_1099" data-name="Group 1099">
                    <path id="Path_1585" data-name="Path 1585"
                          d="M475.206,113.358,444.276,95.5a1.582,1.582,0,0,0-1.6-.128l0-.021-3,1.734,2.109.77V120.38a5.959,5.959,0,0,0,2.488,4.754L473.838,142.2v2.642l3.031-1.746-.016-.006a2.2,2.2,0,0,0,.841-1.984v-23A5.96,5.96,0,0,0,475.206,113.358Z"
                          transform="translate(-438.733 -95.212)" fill="#d3008d"/>
                    <path id="Path_1586" data-name="Path 1586"
                          d="M472.279,144.515l-30.93-17.856a5.961,5.961,0,0,1-2.488-4.755v-23c0-1.832,1.114-2.674,2.488-1.881l30.93,17.856a5.961,5.961,0,0,1,2.488,4.755v23C474.767,144.466,473.653,145.309,472.279,144.515Z"
                          transform="translate(-438.861 -94.974)" fill="#ff2c9c"/>
                </g>
                <g id="Group_1100" data-name="Group 1100" transform="translate(8.716 19.859)">
                    <path id="Path_1587" data-name="Path 1587"
                          d="M450.569,116.279c0,1.331-.935,1.87-2.087,1.205a4.61,4.61,0,0,1-2.087-3.615c0-1.33.934-1.87,2.087-1.2A4.612,4.612,0,0,1,450.569,116.279Z"
                          transform="translate(-446.396 -112.38)" fill="#fff"/>
                    <path id="Path_1588" data-name="Path 1588"
                          d="M456.034,119.435c0,1.33-.933,1.87-2.087,1.2a4.613,4.613,0,0,1-2.087-3.614c0-1.331.935-1.87,2.087-1.205A4.61,4.61,0,0,1,456.034,119.435Z"
                          transform="translate(-445.539 -111.886)" fill="#fff"/>
                    <path id="Path_1589" data-name="Path 1589"
                          d="M461.5,122.59c0,1.331-.935,1.87-2.087,1.205a4.611,4.611,0,0,1-2.088-3.615c0-1.33.935-1.87,2.088-1.2A4.613,4.613,0,0,1,461.5,122.59Z"
                          transform="translate(-444.683 -111.391)" fill="#fff"/>
                </g>
            </g>
            <g id="Group_1104" data-name="Group 1104" transform="translate(68.588 25.159)">
                <g id="Group_1102" data-name="Group 1102">
                    <path id="Path_1590" data-name="Path 1590"
                          d="M345.1,82.941,314.759,65.422a1.553,1.553,0,0,0-1.569-.126l0-.02-2.944,1.7s1.3.474,2.068.755v22.1a5.845,5.845,0,0,0,2.442,4.664l29,16.745v2.592l2.974-1.712-.016-.006a2.166,2.166,0,0,0,.825-1.947V87.6A5.845,5.845,0,0,0,345.1,82.941Z"
                          transform="translate(-309.32 -65.139)" fill="#073ef7"/>
                    <path id="Path_1591" data-name="Path 1591"
                          d="M342.23,113.507,311.888,95.99a5.847,5.847,0,0,1-2.442-4.665V68.763c0-1.8,1.093-2.623,2.442-1.845L342.23,84.435a5.847,5.847,0,0,1,2.442,4.665v22.562C344.672,113.46,343.579,114.286,342.23,113.507Z"
                          transform="translate(-309.446 -64.906)" fill="#4870f5"/>
                </g>
                <g id="Group_1103" data-name="Group 1103" transform="translate(8.551 19.483)">
                    <path id="Path_1592" data-name="Path 1592"
                          d="M320.933,85.807c0,1.306-.916,1.835-2.047,1.182a4.526,4.526,0,0,1-2.047-3.545c0-1.306.917-1.836,2.047-1.182A4.523,4.523,0,0,1,320.933,85.807Z"
                          transform="translate(-316.838 -81.982)" fill="#fff"/>
                    <path id="Path_1593" data-name="Path 1593"
                          d="M326.295,88.9c0,1.306-.917,1.835-2.047,1.182a4.525,4.525,0,0,1-2.047-3.547c0-1.306.916-1.835,2.047-1.182A4.528,4.528,0,0,1,326.295,88.9Z"
                          transform="translate(-315.998 -81.497)" fill="#fff"/>
                    <path id="Path_1594" data-name="Path 1594"
                          d="M331.657,92c0,1.306-.917,1.836-2.047,1.182a4.523,4.523,0,0,1-2.047-3.545c0-1.306.916-1.835,2.047-1.182A4.526,4.526,0,0,1,331.657,92Z"
                          transform="translate(-315.157 -81.012)" fill="#fff"/>
                </g>
            </g>
        </g>
    </g>
</svg>
