<svg xmlns="http://www.w3.org/2000/svg" xmlns:xlink="http://www.w3.org/1999/xlink" width="168.493" height="170.475"
     viewBox="0 0 168.493 170.475">
    <defs>
        <clipPath id="clip-path">
            <rect id="Rectangle_1171" data-name="Rectangle 1171" width="21" height="21" fill="#fff" stroke="#707070"
                  stroke-width="1"/>
        </clipPath>
        <clipPath id="clip-path-2">
            <rect id="Rectangle_1172" data-name="Rectangle 1172" width="25" height="24" fill="#fff" stroke="#707070"
                  stroke-width="1"/>
        </clipPath>
        <clipPath id="clip-path-3">
            <rect id="Rectangle_169" data-name="Rectangle 169" width="25" height="24" fill="#fff"/>
        </clipPath>
        <clipPath id="clip-path-4">
            <rect id="Rectangle_1173" data-name="Rectangle 1173" width="20" height="20" fill="#fff" stroke="#707070"
                  stroke-width="1"/>
        </clipPath>
        <clipPath id="clip-path-5">
            <rect id="Rectangle_1175" data-name="Rectangle 1175" width="20" height="20" fill="#fff"/>
        </clipPath>
        <linearGradient id="linear-gradient" x1="-5.425" y1="3.29" x2="-5.322" y2="2.962"
                        gradientUnits="objectBoundingBox">
            <stop offset="0" stop-color="#00c6ff"/>
            <stop offset="1" stop-color="#0072ff"/>
        </linearGradient>
        <linearGradient id="linear-gradient-2" x1="-35.372" y1="29.645" x2="-35.372" y2="28.27"
                        xlink:href="#linear-gradient"/>
        <linearGradient id="linear-gradient-3" x1="-35.467" y1="31.65" x2="-35.467" y2="30.275"
                        xlink:href="#linear-gradient"/>
    </defs>
    <g id="Group_1022" data-name="Group 1022" transform="translate(-14.213 -12.44)">
        <g id="BACKGROUND" transform="translate(14.456 12.676)">
            <path id="Path_1248" data-name="Path 1248"
                  d="M80.267,46.632c25.443,5.859,48.584-22.855,74.318-18.214a16.2,16.2,0,0,1,7.8,3.322c2.759,2.4,3.955,5.98,4.355,9.464,1.429,12.435-5.586,26.128,1.253,36.913,2.095,3.3,5.287,5.872,7.857,8.875a29.553,29.553,0,0,1,.441,37.352c-3.09,3.776-7.142,6.905-9.567,11.077-7.417,12.761,1.988,31.816-9.771,41.382-4.831,3.93-11.738,4.633-18.167,4.791-3.932.1-8.078.008-11.471-1.833-4.775-2.59-6.838-7.916-10.541-11.723-5.926-6.093-15.642-7.784-24.46-7.017s-17.267,3.591-25.981,5.057a23.829,23.829,0,0,1-9.166.173c-4.757-1.08-8.444-4.587-11.124-8.382-15-21.247-5.325-48.407-8.609-71.922-2.254-16.139-24.877-42.4,4.127-51.024C55.862,30.668,67.335,43.654,80.267,46.632Z"
                  transform="translate(-22.583 -22.615)" fill="#d4edff"/>
            <path id="Path_1249" data-name="Path 1249" stroke-linecap="round"
                  d="M71.986,33.384c27.432,6.479,52.384-25.277,80.13-20.144a17.244,17.244,0,0,1,8.412,3.674c2.975,2.652,4.264,6.614,4.7,10.467,1.54,13.752-6.022,28.9,1.351,40.824,2.259,3.654,5.7,6.5,8.471,9.815a33.34,33.34,0,0,1,.475,41.311c-3.332,4.176-7.7,7.637-10.315,12.25-8,14.113,2.144,35.188-10.535,45.767-5.208,4.346-12.657,5.124-19.588,5.3-4.24.107-8.71.009-12.369-2.027-5.148-2.865-7.373-8.755-11.365-12.966-6.39-6.738-16.865-8.609-26.373-7.76s-18.617,3.971-28.013,5.592a25.051,25.051,0,0,1-9.883.191c-5.129-1.194-9.1-5.073-11.994-9.271-16.173-23.5-5.741-53.536-9.282-79.543-2.431-17.849-26.823-46.888,4.45-56.43C45.672,15.729,58.043,30.091,71.986,33.384Z"
                  fill="none" stroke="#333" transform="translate(-14.456 -12.676)" stroke-linejoin="round"
                  stroke-width="0.5" stroke-dasharray="7.06 7.06" opacity="0.6"/>
            <path id="Path_1313" data-name="Path 1313"
                  d="M56.756.019A57.692,57.692,0,0,1,114.05,57.313,56.349,56.349,0,0,1,57.313,114.05,57.692,57.692,0,0,1,.019,56.756,56.349,56.349,0,0,1,56.756.019Z"
                  transform="translate(30.295 32.332)" fill="none" stroke="#707070" stroke-linecap="round"
                  stroke-width="1" stroke-dasharray="8.06 8.06"/>
        </g>
        <g id="OBJECTS" transform="translate(35.764 27.187)">
            <g id="Group_1011" data-name="Group 1011" transform="translate(0 0)">
                <g id="Group_1010" data-name="Group 1010">
                    <rect id="Rectangle_1151" data-name="Rectangle 1151" width="20.829" height="13.433" rx="3.439"
                          transform="translate(20.829 78.342) rotate(180)" fill="#4870f5"/>
                    <path id="Path_1253" data-name="Path 1253" d="M83.236,272.437l1.283,7.7-5.811-7.7Z"
                          transform="translate(-77.69 -196.689)" fill="#4870f5"/>
                    <ellipse id="Ellipse_106" data-name="Ellipse 106" cx="13.752" cy="13.752" rx="13.752" ry="13.752"
                             transform="translate(0 54.22) rotate(-71.045)" fill="#54c5d0" stroke="#02a3b3"
                             stroke-width="1"/>
                    <ellipse id="Ellipse_108" data-name="Ellipse 108" cx="15.175" cy="15.175" rx="15.175" ry="15.175"
                             transform="translate(41.186 27.748) rotate(-66.101)" fill="#fc0" stroke="#e4b70b"
                             stroke-width="1"/>
                    <ellipse id="Ellipse_109" data-name="Ellipse 109" cx="13.443" cy="13.443" rx="13.443" ry="13.443"
                             transform="translate(102.197 65.306) rotate(-36.552)" fill="#ba197f" stroke="#880c5a"
                             stroke-width="1"/>
                    <rect id="Rectangle_1153" data-name="Rectangle 1153" width="17.787" height="11.471" rx="2.937"
                          transform="translate(118.295 38.565) rotate(154.462)" fill="#4870f5"/>
                    <path id="Path_1263" data-name="Path 1263" d="M371.437,175.865l3.822,5.459-7.311-3.792Z"
                          transform="translate(-265.906 -133.673)" fill="#4870f5"/>
                    <g id="Mask_Group_56" data-name="Mask Group 56" transform="translate(6.396 35.489)"
                       clip-path="url(#clip-path)">
                        <g id="hamrah-avval" transform="translate(0.168 0.006)">
                            <rect id="Rectangle_253" data-name="Rectangle 253" width="19.805" height="19.795"
                                  transform="translate(0 0.01)" fill="none"/>
                            <g id="Layer_2" data-name="Layer 2" transform="translate(0.594 0)">
                                <g id="Logo" transform="translate(0 0)">
                                    <path id="Path_424" data-name="Path 424"
                                          d="M16.026.025a2.612,2.612,0,0,1,.868.024.827.827,0,0,1,.527.329.886.886,0,0,1,.1.648,2.992,2.992,0,0,1-.365.921,9.758,9.758,0,0,1-1.2,1.6,24.653,24.653,0,0,1-2.8,2.613L13,6.286h-.16a21.848,21.848,0,0,0,1.8-1.619,10.458,10.458,0,0,0,1.326-1.61,3.075,3.075,0,0,0,.435-.964.749.749,0,0,0-.106-.635.891.891,0,0,0-.632-.268,3.942,3.942,0,0,0-1.246.158,13.342,13.342,0,0,0-2.269.873A27.928,27.928,0,0,0,8.17,4.6c-.658.468-1.3.958-1.918,1.481A20.531,20.531,0,0,0,4.579,7.644,11.288,11.288,0,0,0,3.685,8.7a4.87,4.87,0,0,0-.556.934,1.411,1.411,0,0,0-.137.722.572.572,0,0,0,.274.415,1.329,1.329,0,0,0,.685.141,5.263,5.263,0,0,0,1.4-.267A15.008,15.008,0,0,0,7.425,9.8v.146a21.933,21.933,0,0,1-2.3,1.046,11.677,11.677,0,0,1-1.273.407,4.652,4.652,0,0,1-1.35.166,1.187,1.187,0,0,1-.706-.238.7.7,0,0,1-.235-.526,1.96,1.96,0,0,1,.207-.834,5.413,5.413,0,0,1,.407-.717c.035-.054.071-.108.109-.16A13.973,13.973,0,0,1,3.749,7.375,29.532,29.532,0,0,1,7.17,4.458a35.692,35.692,0,0,1,4.136-2.64A20.584,20.584,0,0,1,14.6.358a7.6,7.6,0,0,1,1.43-.333Z"
                                          transform="translate(1.078 0)" fill="#fff"/>
                                    <path id="Path_425" data-name="Path 425"
                                          d="M14.233,3.66a13.771,13.771,0,0,1,1.484-.03,6.712,6.712,0,0,1,1.389.178,1.947,1.947,0,0,1,.844.407.679.679,0,0,1,.221.584,1.506,1.506,0,0,1-.4.763,5.975,5.975,0,0,1-1.179.973,15.771,15.771,0,0,1-1.922,1.055A30.973,30.973,0,0,1,10.2,9.243a32.131,32.131,0,0,1-5.593,1.125,13.885,13.885,0,0,1-2.8.037,4.028,4.028,0,0,1-1.227-.3A1.027,1.027,0,0,1,.05,9.616.769.769,0,0,1,.1,8.977a2.779,2.779,0,0,1,.672-.815A10.32,10.32,0,0,1,2.7,6.894c.228-.124.464-.228.69-.355l-.028.049c-.038.052-.074.105-.109.16a.2.2,0,0,1-.042.039A6.676,6.676,0,0,0,1.823,7.81,1.492,1.492,0,0,0,1.4,8.5a.566.566,0,0,0,.156.511,1.524,1.524,0,0,0,.693.356,6.17,6.17,0,0,0,1.512.167,17.477,17.477,0,0,0,2.795-.247c.9-.145,1.781-.338,2.659-.568a26.247,26.247,0,0,0,4.8-1.738,10.876,10.876,0,0,0,1.738-1.038,3.471,3.471,0,0,0,.731-.715.892.892,0,0,0,.192-.593.631.631,0,0,0-.286-.435,2.055,2.055,0,0,0-.74-.292,7.218,7.218,0,0,0-1.576-.124C14.129,3.744,14.181,3.7,14.233,3.66Z"
                                          transform="translate(0.001 2.49)" fill="#fff"/>
                                    <path id="Path_426" data-name="Path 426"
                                          d="M7.507,8.765c.214-.1.428-.2.643-.3,0,1.179,0,2.358,0,3.537-.21.109-.431.2-.645.3Q7.507,10.536,7.507,8.765Z"
                                          transform="translate(5.191 5.822)" fill="#fff"/>
                                    <path id="Path_427" data-name="Path 427"
                                          d="M6,8.5a.189.189,0,0,1,.068-.023q0,1.764,0,3.529c-.214.1-.428.192-.644.283,0-1.178,0-2.356,0-3.534Z"
                                          transform="translate(3.749 5.829)" fill="#fff"/>
                                    <path id="Path_428" data-name="Path 428"
                                          d="M4.769,8.755c.214-.091.428-.183.642-.276,0,1.171,0,2.342,0,3.513a1.069,1.069,0,0,1-.018.286.548.548,0,0,1-.3.354q-1.018.47-2.032.946a1.73,1.73,0,0,1-.757.192.709.709,0,0,1-.513-.2.978.978,0,0,1-.228-.49,1.283,1.283,0,0,1,.088-.835.991.991,0,0,1,.469-.437l1.972-.926v.707c-.609.3-1.221.587-1.834.881a.506.506,0,0,0-.233.21.351.351,0,0,0,.011.346.335.335,0,0,0,.287.115.723.723,0,0,0,.319-.069l2.133-1C4.773,10.965,4.767,9.86,4.769,8.755Z"
                                          transform="translate(1.056 5.83)" fill="#fff"/>
                                    <path id="Path_429" data-name="Path 429"
                                          d="M10.153,8.544a8.445,8.445,0,0,1,.939.657,2.824,2.824,0,0,1,.475.473A.563.563,0,0,1,11.7,10v.3a.437.437,0,0,1-.24.277c-.339.172-.674.349-1.011.525v.379c.45-.209.9-.421,1.347-.63,0,.238,0,.477,0,.715q-2.518,1.176-5.033,2.354c0-.24-.005-.48,0-.719,1.13-.524,2.258-1.054,3.387-1.581v-.4a1.8,1.8,0,0,1-.5.116.462.462,0,0,1-.411-.169.811.811,0,0,1-.1-.571,1.044,1.044,0,0,1,.212-.493,7.492,7.492,0,0,1,.793-.939C10.153,8.962,10.151,8.752,10.153,8.544Zm.284,1.176c0,.284,0,.568,0,.853a1.876,1.876,0,0,0,.46-.249.363.363,0,0,0,.158-.245.274.274,0,0,0-.137-.2,1.218,1.218,0,0,0-.481-.156Zm-.807.76a.3.3,0,0,0-.082.185c.006.069.084.094.143.1a1.446,1.446,0,0,0,.461-.056c0-.25,0-.5,0-.747-.177.169-.347.347-.519.519Z"
                                          transform="translate(4.68 5.875)" fill="#fff"/>
                                    <path id="Path_430" data-name="Path 430"
                                          d="M4.256,9.835a.74.74,0,0,1,.52-.369,1.3,1.3,0,0,1,.947.3,1.973,1.973,0,0,1,.593.992.824.824,0,0,1-.37.864c-.706.323-1.408.657-2.114.981v-.718c.673-.313,1.345-.63,2.019-.942.008-.084,0-.169,0-.254a.324.324,0,0,0-.095.046,4.546,4.546,0,0,1-.867.373,1.3,1.3,0,0,1-.464.06.36.36,0,0,1-.274-.141.531.531,0,0,1-.065-.333A1.658,1.658,0,0,1,4.256,9.835Zm.481.271a.3.3,0,0,0-.211.156.434.434,0,0,0-.012.313c.268-.1.535-.208.8-.309a.245.245,0,0,0-.172-.166.786.786,0,0,0-.407.006Z"
                                          transform="translate(2.651 6.508)" fill="#fff"/>
                                    <path id="Path_431" data-name="Path 431"
                                          d="M6.844,9.653a2.8,2.8,0,0,1,.284.173,6.162,6.162,0,0,1,.978.772.976.976,0,0,1,.278.443c.007.121,0,.242,0,.365a.461.461,0,0,1-.258.286l-1.158.568a1.591,1.591,0,0,1-.614.185.466.466,0,0,1-.428-.173.817.817,0,0,1-.091-.575,1.015,1.015,0,0,1,.2-.469,7.548,7.548,0,0,1,.8-.953C6.851,10.071,6.841,9.86,6.844,9.653Zm-.371,1.729a.77.77,0,0,0-.2.323.143.143,0,0,0,.14.172,1.148,1.148,0,0,0,.442-.109,6.994,6.994,0,0,0,1.025-.542,1.363,1.363,0,0,0-.56-.55,5.248,5.248,0,0,0-.85.706Z"
                                          transform="translate(4.03 6.64)" fill="#fff"/>
                                </g>
                            </g>
                        </g>
                    </g>
                    <g id="Mask_Group_57" data-name="Mask Group 57" transform="translate(48.683 8.489)"
                       clip-path="url(#clip-path-2)">
                        <g id="Mask_Group_103" data-name="Mask Group 103" transform="translate(0 0)"
                           clip-path="url(#clip-path-3)">
                            <g id="ایرانسل" transform="translate(0.593 3.297)">
                                <path id="Path_86" data-name="Path 86"
                                      d="M86.449,189.9c-6.737,0-12.2,2.1-12.2,4.7s5.462,4.7,12.2,4.7,12.2-2.1,12.2-4.7S93.186,189.9,86.449,189.9Zm-1.289,1.952.4-.4a.067.067,0,0,1,.108,0l.441.418a.058.058,0,0,1,0,.093l-.43.422a.061.061,0,0,1-.095,0l-.433-.418c-.037-.029-.032-.067.011-.11Zm1.067,3.864a1.229,1.229,0,0,1-1.084.424h-.3a.779.779,0,0,1-.61-.413q-.3.413-.558.413a.509.509,0,0,1-.329-.137.8.8,0,0,1-.223-.29q-.29.425-.534.425a.627.627,0,0,1-.567-.425.79.79,0,0,1-.622.432h-.3a.6.6,0,0,1-.43-.229,2,2,0,0,1-.259,1.016,1.456,1.456,0,0,1-1.372.721,2.016,2.016,0,0,1-1.22-.331,1.284,1.284,0,0,1-.514-1.112,3.159,3.159,0,0,1,.143-.865q.169-.584.386-.584t.2.346a1.58,1.58,0,0,1-.023.226,1.494,1.494,0,0,0-.024.226q0,.686,1.186.686.9,0,.9-.636a.76.76,0,0,0,0-.093l-.25-3.443a.085.085,0,0,1,.035-.082l.976-.624c.032-.021.052-.027.058-.02a.213.213,0,0,1,0,.073v2.938c0,.227.1.34.3.34H81.3v.009h.117a.342.342,0,0,0,.335-.192c.032-.111.061-.223.093-.335q.082-.215.22-.215.152,0,.21.192c.012.049.043.168.088.358a.288.288,0,0,0,.294.192.258.258,0,0,0,.255-.191q.021-.1.088-.351c.034-.122.1-.191.21-.191s.171.063.2.188l.076.351a.265.265,0,0,0,.508,0q.032-.168.076-.349a.2.2,0,0,1,.217-.18q.143,0,.2.184c.011.044.04.153.088.346a.285.285,0,0,0,.284.185h.767c.122,0,.188-.034.188-.105a.215.215,0,0,0-.053-.122,4.035,4.035,0,0,0-.509-.532q-.049-.046,0-.114l.595-.854c.032-.047.055-.07.07-.07s.046.021.079.064a2.318,2.318,0,0,1,.5,1.514,2.287,2.287,0,0,1-.267,1.243Zm1.859-.534a3.133,3.133,0,0,1-.2.683q-.133.279-.252.279t-.221-.339q-.13-.477-.555-3.307l.964-1.046c.061-.066.1-.1.122-.1s.032.029.046.088a8.5,8.5,0,0,1,.172,1.51q.009.267.009,1.525a3.714,3.714,0,0,1-.088.709Zm3.1.95h0a.393.393,0,0,1-.227-.076v.279a1.93,1.93,0,0,1-.2.782,2.168,2.168,0,0,1-.366.595.252.252,0,0,1-.194.076h-1.5q-.265,0-.265-.217a.18.18,0,0,1,.113-.172,8.122,8.122,0,0,0,1.04-.622q.8-.546.8-.776,0-.191-.718-.854L90.2,194.1c.032-.064.07-.07.122-.021a5.14,5.14,0,0,0,.421.406.854.854,0,0,0,.529.212h.651c.122,0,.188-.034.188-.105a.212.212,0,0,0-.055-.122,3.957,3.957,0,0,0-.509-.532q-.047-.046,0-.114l.595-.854c.032-.047.055-.07.07-.07s.046.021.079.064a2.318,2.318,0,0,1,.5,1.514,2.278,2.278,0,0,1-.252,1.247,1.229,1.229,0,0,1-1.084.424H91.2Zm1.821,1.009-.38.366a.052.052,0,0,1-.082,0l-.357-.346-.351.346a.052.052,0,0,1-.082,0l-.38-.366c-.032-.029-.027-.064.009-.1l.351-.354a.061.061,0,0,1,.1,0l.358.345.339-.345a.061.061,0,0,1,.1,0l.384.374c.032.021.031.049,0,.079Zm1.6-1.959a3.133,3.133,0,0,1-.2.683c-.088.186-.174.279-.252.279s-.152-.113-.221-.339q-.131-.477-.555-3.307l.964-1.046c.061-.066.1-.1.122-.1s.032.029.044.088a8.436,8.436,0,0,1,.172,1.51q.009.267.009,1.525a3.713,3.713,0,0,1-.084.708Z"
                                      transform="translate(-74.25 -189.905)" fill="#fff"/>
                                <path id="Path_87" data-name="Path 87"
                                      d="M163.189,481.586h1.391l.122,2.768a.133.133,0,0,0,.252.053l1.372-2.745a.122.122,0,0,1,.114-.07h1.432l-.889,4.148a.1.1,0,0,1-.1.078h-.814l.823-3.416h-.183a.105.105,0,0,0-.1.059L165,485.784a.069.069,0,0,1-.059.04h-.732a.05.05,0,0,1-.05-.047l-.186-3.37h-.244l-.624,3.343a.094.094,0,0,1-.095.078h-.823l.884-4.148A.122.122,0,0,1,163.189,481.586Z"
                                      transform="translate(-158.215 -468.773)" fill="#fff"/>
                                <path id="Path_88" data-name="Path 88"
                                      d="M305.919,481.95h3.936l-.18.854h-1.452l-.546,2.481a.046.046,0,0,1-.046.037l-1.1-.009.55-2.507h-1.394l.168-.81a.059.059,0,0,1,.063-.046Z"
                                      transform="translate(-295.253 -469.12)" fill="#fff"/>
                                <path id="Path_89" data-name="Path 89"
                                      d="M399.335,481.718h1.04a.122.122,0,0,1,.122.078l1.023,2.451a.134.134,0,0,0,.122.082h.116l.537-2.518a.133.133,0,0,1,.131-.105l.936.015-.9,4.228H401.4a.082.082,0,0,1-.075-.05l-1.067-2.5a.069.069,0,0,0-.064-.041h-.153l-.529,2.492a.137.137,0,0,1-.134.108h-.941Zm1.125,0,1.089,2.623"
                                      transform="translate(-383.791 -468.889)" fill="#fff"/>
                                <path id="Path_90" data-name="Path 90"
                                      d="M321.652,569.772a.015.015,0,0,0,0-.016.015.015,0,0,0-.015-.006h-1.067a.052.052,0,0,0-.052.04l-.076.326h1.141Z"
                                      transform="translate(-309.358 -553.038)" fill="#fff"/>
                            </g>
                        </g>
                    </g>
                    <g id="Mask_Group_58" data-name="Mask Group 58" transform="translate(111.073 58.489)"
                       clip-path="url(#clip-path-4)">
                        <g id="rightel" transform="translate(0 0)" clip-path="url(#clip-path-5)">
                            <g id="Group_1025" data-name="Group 1025" transform="translate(-0.068 0.226)">
                                <rect id="Rectangle_1174" data-name="Rectangle 1174" width="20.169" height="19.542"
                                      transform="translate(0 0.626)" fill="none"/>
                                <g id="Group_1024" data-name="Group 1024" transform="translate(3.782 0)">
                                    <g id="Group_1023" data-name="Group 1023" transform="translate(0 0)">
                                        <path id="Path_1310" data-name="Path 1310"
                                              d="M9.377,4.59a6.487,6.487,0,1,0,6.5,6.487,6.487,6.487,0,0,0-6.5-6.487ZM8.4,15.912a4.776,4.776,0,1,1,4.776-4.776A4.776,4.776,0,0,1,8.4,15.912Z"
                                              transform="translate(-2.898 -4.59)" fill="#fff"/>
                                        <path id="Path_1311" data-name="Path 1311"
                                              d="M7.779,5.225a4.608,4.608,0,1,0,4.608,4.608A4.608,4.608,0,0,0,7.779,5.225Zm.64,8.2a3.615,3.615,0,1,1,3.618-3.615,3.616,3.616,0,0,1-3.618,3.615Z"
                                              transform="translate(-2.28 -3.282)" fill="#fff"/>
                                    </g>
                                    <path id="Path_1312" data-name="Path 1312"
                                          d="M-41.326-12.489h.5v.843h-.516a1.383,1.383,0,0,1-.2.535,1.571,1.571,0,0,1-.374.407,1.726,1.726,0,0,1-.487.26,1.664,1.664,0,0,1-.545.092,1.676,1.676,0,0,1-.6-.11,1.676,1.676,0,0,1-.521-.312,1.553,1.553,0,0,1-.368-.483,1.4,1.4,0,0,1-.139-.627v-1.33h.845V-11.9a.692.692,0,0,0,.067.313.657.657,0,0,0,.177.222.806.806,0,0,0,.251.135.892.892,0,0,0,.287.047.978.978,0,0,0,.289-.044.711.711,0,0,0,.251-.133.68.68,0,0,0,.175-.225.7.7,0,0,0,.067-.315v-4.036h.845Zm1.808-.476a.492.492,0,0,0,.039.2.444.444,0,0,0,.1.147.466.466,0,0,0,.15.092.477.477,0,0,0,.168.033v.843a1.288,1.288,0,0,1-.487-.092,1.33,1.33,0,0,1-.4-.251,1.33,1.33,0,0,1-.4.251,1.288,1.288,0,0,1-.487.092v-.843a.477.477,0,0,0,.168-.033.488.488,0,0,0,.152-.092.452.452,0,0,0,.108-.147.473.473,0,0,0,.042-.2v-1.377h.845Zm-.938-3.052.5.5.5-.5.607.6-.607.606-.5-.5-.5.5-.607-.606Zm3.277,3.063a1.266,1.266,0,0,1-.1.508,1.341,1.341,0,0,1-.28.419,1.3,1.3,0,0,1-.419.281,1.285,1.285,0,0,1-.51.1h-.571v-.843h.571a.463.463,0,0,0,.168-.033.493.493,0,0,0,.15-.092.431.431,0,0,0,.106-.147.492.492,0,0,0,.047-.21v-1.377h.838Zm-1.508,1.76.5.5.5-.5.607.6-.607.606-.5-.5-.5.5-.607-.606Zm2.992-4.739v2.955q0,.18-.009.37a2.7,2.7,0,0,1-.044.371,1.8,1.8,0,0,1-.1.346.922.922,0,0,1-.183.287l-.56-.318a1.723,1.723,0,0,0,.049-.315,4.187,4.187,0,0,0,.005-.419v-3.28Zm2.385,1.579a1.728,1.728,0,0,1,.43.553,2.452,2.452,0,0,1,.224.7,3.077,3.077,0,0,1,.028.761,3.016,3.016,0,0,1-.157.746,2.577,2.577,0,0,1-.335.65,1.719,1.719,0,0,1-.5.472,1.524,1.524,0,0,1-.654.216,1.786,1.786,0,0,1-.8-.121v-.844a1.4,1.4,0,0,0,.568.116.961.961,0,0,0,.438-.117.937.937,0,0,0,.316-.3,1.5,1.5,0,0,0,.2-.423,2.123,2.123,0,0,0,.084-.5,2.453,2.453,0,0,0-.028-.515,2.206,2.206,0,0,0-.136-.483,1.465,1.465,0,0,0-.238-.4Z"
                                          transform="translate(45.071 29.471)" fill="#fff"/>
                                </g>
                            </g>
                        </g>
                    </g>
                </g>
            </g>
            <g id="Group_1017" data-name="Group 1017" transform="translate(39.743 43.063)">
                <g id="Group_1012" data-name="Group 1012">
                    <rect id="Rectangle_1159" data-name="Rectangle 1159" width="40.485" height="88.174" rx="3"
                          transform="translate(5.551)" fill="#141414" stroke="#000" stroke-miterlimit="10"
                          stroke-width="0.476"/>
                    <rect id="Rectangle_1160" data-name="Rectangle 1160" width="36.957" height="79.657" rx="2"
                          transform="translate(7.315 4.518)" fill="#fff"/>
                    <path id="Path_1289" data-name="Path 1289"
                          d="M193.8,311.008c-.14.119-.294.245-.461.379,0,0,0,.04-.013.117a12.661,12.661,0,0,1-4,.44A38.291,38.291,0,0,0,193.8,311.008Z"
                          transform="translate(-189.33 -265.844)" fill="#e89c85" opacity="0.6"/>
                </g>
                <g id="Group_1015" data-name="Group 1015" transform="translate(11.547 12.565)">
                    <rect id="Rectangle_1161" data-name="Rectangle 1161" width="29.82" height="1.835" fill="#f7fbfe"/>
                    <rect id="Rectangle_1162" data-name="Rectangle 1162" width="29.82" height="1.835"
                          transform="translate(0 4.74)" fill="#f7fbfe"/>
                    <rect id="Rectangle_1163" data-name="Rectangle 1163" width="21.838" height="1.835"
                          transform="translate(0 9.48)" fill="#f7fbfe"/>
                </g>
                <g id="Group_1016" data-name="Group 1016" transform="translate(11.547 66.217)">
                    <rect id="Rectangle_1164" data-name="Rectangle 1164" width="29.82" height="1.835" fill="#f7fbfe"/>
                    <rect id="Rectangle_1165" data-name="Rectangle 1165" width="29.82" height="1.835"
                          transform="translate(0 4.74)" fill="#f7fbfe"/>
                    <rect id="Rectangle_1166" data-name="Rectangle 1166" width="29.82" height="1.835"
                          transform="translate(0 9.48)" fill="#f7fbfe"/>
                </g>
            </g>
            <g id="Group_1021" data-name="Group 1021" transform="translate(96.703 67.876) rotate(90)">
                <g id="SIM_Card" data-name="SIM Card">
                    <path id="Path_1296" data-name="Path 1296"
                          d="M0,19.92V12.288A2.912,2.912,0,0,1,.864,10.21L10.25.862A2.933,2.933,0,0,1,12.337,0H30.489A2.948,2.948,0,0,1,33.44,2.939V19.92a2.948,2.948,0,0,1-2.951,2.939H2.95A2.948,2.948,0,0,1,0,19.92Z"
                          transform="translate(4.186 21.549)" fill="url(#linear-gradient)"/>
                    <path id="Path_1297" data-name="Path 1297"
                          d="M0,19.92V12.289A2.913,2.913,0,0,1,.864,10.21L10.25.861A2.934,2.934,0,0,1,12.337,0H30.489A2.948,2.948,0,0,1,33.44,2.939V19.92a2.948,2.948,0,0,1-2.951,2.939H2.95A2.948,2.948,0,0,1,0,19.92Z"
                          transform="translate(4.251 20.895)" fill="#00c6ff"/>
                    <path id="Path_1298" data-name="Path 1298"
                          d="M14.111,2.939V19.92a2.948,2.948,0,0,1-2.951,2.939H0C5.007,19.567,9.555,12.977,10.117,0h1.045A2.948,2.948,0,0,1,14.111,2.939Z"
                          transform="translate(23.581 20.895)" fill="#00c6ff"/>
                    <g id="Group_1018" data-name="Group 1018" transform="translate(5.696 22.294)">
                        <path id="Path_1299" data-name="Path 1299"
                              d="M3.76.522A.523.523,0,0,0,2.868.153L.441,2.58A1.5,1.5,0,0,0,0,3.644V6.06a.523.523,0,1,0,1.045,0V3.644a.441.441,0,0,1,.134-.325L3.607.892A.519.519,0,0,0,3.76.522Z"
                              transform="translate(0 7.248)" fill="#fff"/>
                        <path id="Path_1300" data-name="Path 1300"
                              d="M1.206.153a.523.523,0,0,0-.739,0L.153.466a.523.523,0,1,0,.739.739L1.206.892a.522.522,0,0,0,0-.739Z"
                              transform="translate(4.604 5.046)" fill="#fff"/>
                        <path id="Path_1301" data-name="Path 1301"
                              d="M5.068.523A.522.522,0,0,0,4.546,0H.523a.523.523,0,0,0,0,1.045H4.546A.523.523,0,0,0,5.068.523Z"
                              transform="translate(12.269)" fill="#fff"/>
                        <path id="Path_1302" data-name="Path 1302"
                              d="M4,.523A.522.522,0,0,0,3.482,0H.522a.523.523,0,0,0,0,1.045h2.96A.523.523,0,0,0,4,.523Z"
                              transform="translate(21.053 19.014)" fill="#fff"/>
                        <path id="Path_1303" data-name="Path 1303"
                              d="M1.962.523A.522.522,0,0,0,1.44,0H.523a.523.523,0,1,0,0,1.045H1.44A.523.523,0,0,0,1.962.523Z"
                              transform="translate(17.195 19.014)" fill="#fff"/>
                    </g>
                    <path id="Path_1304" data-name="Path 1304"
                          d="M4.241,0H.961a.984.984,0,0,0,0,1.967h3.28A.984.984,0,0,0,4.241,0Z"
                          transform="translate(9.519 37.896)" fill="url(#linear-gradient-2)"/>
                    <path id="Path_1305" data-name="Path 1305"
                          d="M4.241,0H.961a.984.984,0,0,0,0,1.967h3.28A.984.984,0,0,0,4.241,0Z"
                          transform="translate(9.519 33.963)" fill="url(#linear-gradient-3)"/>
                    <rect id="Rectangle_1167" data-name="Rectangle 1167" width="11.802" height="13.114" rx="3"
                          transform="translate(20.971 25.767)" fill="#fc0"/>
                    <path id="Path_1306" data-name="Path 1306"
                          d="M13.291.895A2.3,2.3,0,0,0,11.474,0H2.3A2.3,2.3,0,0,0,0,2.294V12.786a2.3,2.3,0,0,0,2.3,2.293h9.179a2.3,2.3,0,0,0,2.3-2.293V2.294A2.289,2.289,0,0,0,13.291.895ZM11.8,8.524v4.262h0a.328.328,0,0,1-.327.327H7.87V8.524ZM1.966,12.786V8.524H5.9v4.589H2.294A.327.327,0,0,1,1.966,12.786Zm9.84-10.492V6.557H7.871V1.967h3.605A.328.328,0,0,1,11.806,2.294ZM2.3,1.967H5.9V6.557H1.967V2.294A.327.327,0,0,1,2.3,1.967Z"
                          transform="translate(19.988 24.783)" fill="#ee5c15"/>
                    <g id="Group_1020" data-name="Group 1020" transform="translate(0 0)">
                        <path id="Path_1307" data-name="Path 1307"
                              d="M35.282,0H14.646a3.921,3.921,0,0,0-2.812,1.191L10.279,2.783a.623.623,0,0,0,.072.94l.026.018a.627.627,0,0,0,.8-.08l1.534-1.568a2.686,2.686,0,0,1,1.933-.818H35.281a2.772,2.772,0,0,1,2.731,2.793V23.885a2.772,2.772,0,0,1-2.731,2.8H3.972a2.773,2.773,0,0,1-2.731-2.794V14.977a2.819,2.819,0,0,1,.8-1.972l1-1.027a.627.627,0,0,0,.11-.724l-.018-.033a.625.625,0,0,0-.991-.122l-.981,1A4.117,4.117,0,0,0,0,14.98v8.909a4.031,4.031,0,0,0,3.971,4.066h31.31a4.033,4.033,0,0,0,3.972-4.068V4.065A4.032,4.032,0,0,0,35.282,0ZM10.548,3.494"
                              transform="translate(1.279 18.609)" fill="#4870f5"/>
                        <path id="Path_1308" data-name="Path 1308"
                              d="M2.065,19.25A2.248,2.248,0,0,1,1.6,19.2a2.041,2.041,0,0,1-1.6-2V.212A.212.212,0,0,1,.212,0h.817a.212.212,0,0,1,.212.212V17.2a.794.794,0,0,0,.612.784,1.469,1.469,0,0,0,1.227-.46L3.1,17.5l4.322-4.321a.212.212,0,0,1,.3,0l.577.577a.212.212,0,0,1,0,.3L3.987,18.373A2.822,2.822,0,0,1,2.065,19.25Z"
                              transform="translate(5.925 6.458)" fill="#4870f5"/>
                        <g id="Group_1019" data-name="Group 1019" transform="translate(2 -2)">
                            <path id="Path_1309" data-name="Path 1309"
                                  d="M5.559,6.05v.073a.318.318,0,0,1-.092.223l-.1.1a.316.316,0,0,1-.223.092H3.017a.313.313,0,0,1-.223-.092l-.155-.154a.315.315,0,0,1-.092-.223h0a.313.313,0,0,0-.212-.3A3.205,3.205,0,0,1,0,2.761V.315A.315.315,0,0,1,.315,0H7.8a.315.315,0,0,1,.316.315V2.746c0,.011,0,.02,0,.03A3.77,3.77,0,0,1,5.751,5.761.312.312,0,0,0,5.559,6.05Z"
                                  transform="translate(0.426 6.47)" fill="#4870f5"/>
                            <rect id="Rectangle_1168" data-name="Rectangle 1168" width="1.127" height="9.09" rx="0.563"
                                  transform="translate(9.09 4.918) rotate(90)" fill="#4870f5"/>
                            <path id="Rectangle_1169" data-name="Rectangle 1169"
                                  d="M.545,0H4.62a0,0,0,0,1,0,0V1.089a0,0,0,0,1,0,0H.545A.545.545,0,0,1,0,.545v0A.545.545,0,0,1,.545,0Z"
                                  transform="translate(7.384 0) rotate(90)" fill="#4870f5"/>
                            <path id="Rectangle_1170" data-name="Rectangle 1170"
                                  d="M.545,0H4.62a0,0,0,0,1,0,0V1.089a0,0,0,0,1,0,0H.545A.545.545,0,0,1,0,.545v0A.545.545,0,0,1,.545,0Z"
                                  transform="translate(2.417 0) rotate(90)" fill="#4870f5"/>
                        </g>
                    </g>
                </g>
            </g>
        </g>
    </g>
</svg>
