<svg xmlns="http://www.w3.org/2000/svg" width="216" height="168"
     viewBox="0 0 216 168">
    <defs>
        <clipPath id="clip-path">
            <path id="Path_1363" data-name="Path 1363"
                  d="M336.046,86.97a34,34,0,0,1,3.008,3.688,10.519,10.519,0,0,0,1.253-.985c.541-.632,1.176-2.2,1.629-2.9.241-.37.906-.938.922-1.361.019-.487-.654-1.056-.725-1.718s-1.88-1.952-1.88-1.952l-1.45,1.5S335.251,86.127,336.046,86.97Z"
                  transform="translate(-335.93 -81.742)" fill="#fdc9d9"/>
        </clipPath>
        <clipPath id="clip-path-2">
            <path id="Path_1377" data-name="Path 1377"
                  d="M366.942,301.453a5.69,5.69,0,0,1,.906,1.234,11.082,11.082,0,0,1-.058,2.179c0,.564.28,1.673.289,2.237a5.589,5.589,0,0,1-.25,1.812c-.181.4-.788,1-.935,1.388a13.478,13.478,0,0,0-.125,1.832,10.646,10.646,0,0,1-.6,1.524,15.576,15.576,0,0,0,1.986-1.89c.262-.4.516-1.358.8-1.74.207-.274.849-.676,1.056-.969a8.886,8.886,0,0,0,.492-1.379,14.166,14.166,0,0,1,1.543-2.661,10.438,10.438,0,0,1,3.493-2.3l-.408-3.236Z"
                  transform="translate(-366.17 -299.486)" fill="#fdc9d9"/>
        </clipPath>
    </defs>
    <g id="Group_1073" data-name="Group 1073" transform="translate(-27.667 -65.653)">
        <g id="OBJECTS" transform="translate(27.667 65.653)">
            <g id="Group_1044" data-name="Group 1044" transform="translate(0 41.378)">
                <ellipse id="Ellipse_110" data-name="Ellipse 110" cx="108" cy="2.9" rx="108" ry="2.9"
                         transform="translate(0 120.822)" fill="#fedee7"/>
                <g id="Group_1043" data-name="Group 1043" transform="translate(13.535)">
                    <g id="Group_1029" data-name="Group 1029">
                        <g id="Group_1027" data-name="Group 1027" transform="translate(8.365)">
                            <path id="Path_1314" data-name="Path 1314"
                                  d="M245.17,264.557a3.432,3.432,0,0,1-3.453,3.41H76.423a3.432,3.432,0,0,1-3.453-3.41V154.993a3.432,3.432,0,0,1,3.453-3.41h165.3a3.432,3.432,0,0,1,3.453,3.41Z"
                                  transform="translate(-72.97 -151.422)" fill="#6c7fbd"/>
                            <rect id="Rectangle_1176" data-name="Rectangle 1176" width="172.2" height="116.545" rx="4"
                                  transform="translate(0)" fill="#333"/>
                            <path id="Path_1315" data-name="Path 1315"
                                  d="M245.582,272.734a3.229,3.229,0,0,1-3.211,3.246H88.6a3.229,3.229,0,0,1-3.212-3.246V168.46a3.229,3.229,0,0,1,3.212-3.246H242.371a3.229,3.229,0,0,1,3.211,3.246Z"
                                  transform="translate(-79.388 -158.464)" fill="#f7f9ff"/>
                            <g id="Group_1026" data-name="Group 1026" transform="translate(82.95 2.571)">
                                <path id="Path_1316" data-name="Path 1316"
                                      d="M253.55,157.957a1.388,1.388,0,1,1-1.388-1.388A1.388,1.388,0,0,1,253.55,157.957Z"
                                      transform="translate(-247.249 -156.569)" fill="#6c7fbd"/>
                                <path id="Path_1317" data-name="Path 1317"
                                      d="M244.36,158.892a.439.439,0,1,1-.438-.438A.439.439,0,0,1,244.36,158.892Z"
                                      transform="translate(-243.483 -157.543)" fill="#fb6d9a"/>
                            </g>
                        </g>
                        <g id="Group_1028" data-name="Group 1028" transform="translate(0 111.4)">
                            <rect id="Rectangle_1177" data-name="Rectangle 1177" width="188.929" height="10.724"
                                  rx="5.362" fill="#ffe9ba"/>
                            <path id="Path_1318" data-name="Path 1318"
                                  d="M245.734,392a1.721,1.721,0,0,1-1.726,1.716H65.823A1.721,1.721,0,0,1,64.1,392h0a1.721,1.721,0,0,1,1.726-1.716H244.008A1.721,1.721,0,0,1,245.734,392Z"
                                  transform="translate(-60.022 -386.694)" fill="#725559" opacity="0.4"/>
                        </g>
                    </g>
                    <g id="Group_1040" data-name="Group 1040" transform="translate(59.309 28.415)">
                        <g id="Group_1034" data-name="Group 1034" transform="translate(1.289)">
                            <g id="Group_1030" data-name="Group 1030" transform="translate(27.718 39.887)">
                                <circle id="Ellipse_111" data-name="Ellipse 111" cx="6.248" cy="6.248" r="6.248"
                                        transform="matrix(0.156, -0.988, 0.988, 0.156, 0, 12.343)" fill="#6c7fbd"/>
                            </g>
                            <g id="Group_1031" data-name="Group 1031" transform="translate(19.412 28.693)">
                                <path id="Path_1319" data-name="Path 1319"
                                      d="M247.814,281.322a3.169,3.169,0,0,1-2.248-.931,14.173,14.173,0,0,0-20.044,0,3.18,3.18,0,0,1-4.5-4.5,20.532,20.532,0,0,1,29.037,0,3.179,3.179,0,0,1-2.248,5.428Z"
                                      transform="translate(-220.093 -269.88)" fill="#6c7fbd"/>
                            </g>
                            <g id="Group_1032" data-name="Group 1032" transform="translate(9.233 14.24)">
                                <path id="Path_1320" data-name="Path 1320"
                                      d="M247.115,255.64a3.17,3.17,0,0,1-2.248-.931,28.6,28.6,0,0,0-40.4,0,3.18,3.18,0,0,1-4.5-4.5,34.927,34.927,0,0,1,49.4,0,3.179,3.179,0,0,1-2.248,5.428Z"
                                      transform="translate(-199.036 -239.982)" fill="#6c7fbd"/>
                            </g>
                            <g id="Group_1033" data-name="Group 1033">
                                <path id="Path_1321" data-name="Path 1321"
                                      d="M246.481,230.007a3.169,3.169,0,0,1-2.248-.932,41.673,41.673,0,0,0-58.868,0,3.179,3.179,0,0,1-4.5-4.5,47.984,47.984,0,0,1,67.861,0,3.18,3.18,0,0,1-2.248,5.428Z"
                                      transform="translate(-179.936 -210.524)" fill="#6c7fbd"/>
                            </g>
                        </g>
                        <g id="Group_1039" data-name="Group 1039" transform="translate(0 0.322)">
                            <g id="Group_1035" data-name="Group 1035" transform="translate(26.688 38.858)">
                                <circle id="Ellipse_112" data-name="Ellipse 112" cx="6.248" cy="6.248" r="6.248"
                                        transform="translate(0 4.82) rotate(-22.688)" fill="#4870f5"/>
                            </g>
                            <g id="Group_1036" data-name="Group 1036" transform="translate(19.412 28.693)">
                                <path id="Path_1322" data-name="Path 1322"
                                      d="M245.146,281.989a3.17,3.17,0,0,1-2.248-.931,14.174,14.174,0,0,0-20.044,0,3.179,3.179,0,1,1-4.5-4.5,20.532,20.532,0,0,1,29.037,0,3.179,3.179,0,0,1-2.248,5.428Z"
                                      transform="translate(-217.426 -270.547)" fill="#4870f5"/>
                            </g>
                            <g id="Group_1037" data-name="Group 1037" transform="translate(9.233 14.24)">
                                <path id="Path_1323" data-name="Path 1323"
                                      d="M244.448,256.307a3.171,3.171,0,0,1-2.248-.932,28.6,28.6,0,0,0-40.4,0,3.18,3.18,0,1,1-4.5-4.5,34.928,34.928,0,0,1,49.4,0,3.18,3.18,0,0,1-2.248,5.428Z"
                                      transform="translate(-196.369 -240.649)" fill="#4870f5"/>
                            </g>
                            <g id="Group_1038" data-name="Group 1038">
                                <path id="Path_1324" data-name="Path 1324"
                                      d="M243.814,230.674a3.171,3.171,0,0,1-2.248-.932,41.673,41.673,0,0,0-58.868,0,3.18,3.18,0,1,1-4.5-4.5,47.985,47.985,0,0,1,67.861,0,3.18,3.18,0,0,1-2.248,5.428Z"
                                      transform="translate(-177.269 -211.191)" fill="#4870f5"/>
                            </g>
                        </g>
                    </g>
                    <g id="Group_1042" data-name="Group 1042" transform="translate(67.466 87.949)">
                        <rect id="Rectangle_1178" data-name="Rectangle 1178" width="54.049" height="6.206" rx="3.103"
                              fill="#ddd"/>
                        <g id="Group_1041" data-name="Group 1041" transform="translate(10.274 1.988)">
                            <path id="Path_1325" data-name="Path 1325"
                                  d="M216.906,338.178l-.1.96.968-.271.07.545-.9.073.593.782-.5.269-.417-.849-.375.849-.515-.269.581-.782-.9-.073.088-.545.945.271-.1-.96Z"
                                  transform="translate(-215.403 -338.178)" fill="#4870f5"/>
                            <path id="Path_1326" data-name="Path 1326"
                                  d="M222.74,338.178l-.1.96.968-.271.07.545-.9.073.593.782-.5.269-.417-.849-.375.849-.515-.269.581-.782-.9-.073.088-.545.945.271-.1-.96Z"
                                  transform="translate(-218.417 -338.178)" fill="#4870f5"/>
                            <path id="Path_1327" data-name="Path 1327"
                                  d="M228.574,338.178l-.1.96.967-.271.071.545-.9.073.593.782-.5.269-.418-.849-.374.849-.515-.269.581-.782-.9-.073.087-.545.945.271-.1-.96Z"
                                  transform="translate(-221.431 -338.178)" fill="#4870f5"/>
                            <path id="Path_1328" data-name="Path 1328"
                                  d="M234.407,338.178l-.1.96.968-.271.071.545-.9.073.593.782-.5.269-.417-.849-.375.849-.515-.269.581-.782-.9-.073.088-.545.945.271-.1-.96Z"
                                  transform="translate(-224.444 -338.178)" fill="#4870f5"/>
                            <path id="Path_1329" data-name="Path 1329"
                                  d="M240.241,338.178l-.1.96.968-.271.07.545-.9.073.593.782-.5.269-.417-.849-.375.849-.515-.269.581-.782-.9-.073.088-.545.945.271-.1-.96Z"
                                  transform="translate(-227.458 -338.178)" fill="#4870f5"/>
                            <path id="Path_1330" data-name="Path 1330"
                                  d="M246.075,338.178l-.1.96.968-.271.07.545-.9.073.593.782-.5.269-.417-.849-.375.849-.515-.269.581-.782-.9-.073.088-.545.945.271-.1-.96Z"
                                  transform="translate(-230.472 -338.178)" fill="#4870f5"/>
                            <path id="Path_1331" data-name="Path 1331"
                                  d="M251.908,338.178l-.1.96.967-.271.071.545-.9.073.593.782-.5.269-.418-.849-.374.849-.515-.269.581-.782-.9-.073.088-.545.945.271-.1-.96Z"
                                  transform="translate(-233.485 -338.178)" fill="#4870f5"/>
                            <path id="Path_1332" data-name="Path 1332"
                                  d="M257.742,338.178l-.1.96.968-.271.071.545-.9.073.593.782-.5.269-.417-.849-.375.849-.515-.269.581-.782-.9-.073.088-.545.945.271-.1-.96Z"
                                  transform="translate(-236.499 -338.178)" fill="#4870f5"/>
                            <path id="Path_1333" data-name="Path 1333"
                                  d="M263.576,338.178l-.1.96.968-.271.07.545-.9.073.593.782-.5.269-.417-.849-.375.849-.515-.269.581-.782-.9-.073.088-.545.945.271-.1-.96Z"
                                  transform="translate(-239.512 -338.178)" fill="#4870f5"/>
                            <path id="Path_1334" data-name="Path 1334"
                                  d="M269.41,338.178l-.1.96.968-.271.07.545-.9.073.593.782-.5.269-.417-.849-.375.849-.515-.269.581-.782-.9-.073.088-.545.945.271-.1-.96Z"
                                  transform="translate(-242.526 -338.178)" fill="#4870f5"/>
                            <path id="Path_1335" data-name="Path 1335"
                                  d="M275.243,338.178l-.1.96.967-.271.071.545-.9.073.593.782-.5.269-.417-.849-.374.849-.515-.269.581-.782-.9-.073.088-.545.945.271-.1-.96Z"
                                  transform="translate(-245.54 -338.178)" fill="#4870f5"/>
                            <path id="Path_1336" data-name="Path 1336"
                                  d="M281.077,338.178l-.1.96.968-.271.071.545-.9.073.593.782-.5.269-.417-.849-.375.849-.515-.269.581-.782-.9-.073.088-.545.945.271-.1-.96Z"
                                  transform="translate(-248.553 -338.178)" fill="#4870f5"/>
                            <path id="Path_1337" data-name="Path 1337"
                                  d="M286.911,338.178l-.1.96.968-.271.07.545-.9.073.593.782-.5.269-.417-.849-.375.849-.515-.269.581-.782-.9-.073.088-.545.945.271-.1-.96Z"
                                  transform="translate(-251.567 -338.178)" fill="#4870f5"/>
                        </g>
                    </g>
                </g>
            </g>
            <g id="Group_1061" data-name="Group 1061" transform="translate(7.615 13.244)">
                <g id="Group_1059" data-name="Group 1059">
                    <path id="Path_1338" data-name="Path 1338"
                          d="M84.661,322.034a8.451,8.451,0,0,0-1.906.219,11.153,11.153,0,0,0-22.077.166,4.856,4.856,0,0,0-5.6,6.734h37.9A8.427,8.427,0,0,0,84.661,322.034Z"
                          transform="translate(-49.216 -206.561)" fill="#4870f5"/>
                    <g id="Group_1058" data-name="Group 1058">
                        <g id="Group_1048" data-name="Group 1048" transform="translate(154.546 39.965)">
                            <path id="Path_1341" data-name="Path 1341"
                                  d="M394.069,185.932a9.324,9.324,0,0,0-2.1.242,12.3,12.3,0,0,0-24.349.184,5.356,5.356,0,0,0-6.172,7.427h41.8A9.294,9.294,0,0,0,394.069,185.932Z"
                                  transform="translate(-360.96 -175.724)" fill="#4870f5"/>
                        </g>
                        <g id="Group_1057" data-name="Group 1057">
                            <path id="Path_1342" data-name="Path 1342"
                                  d="M240.609,104.841a5.8,5.8,0,0,0-1.309.15,7.657,7.657,0,0,0-15.156.114,3.334,3.334,0,0,0-3.842,4.623h26.021A5.785,5.785,0,0,0,240.609,104.841Z"
                                  transform="translate(-134.64 -95.859)" fill="#4870f5"/>
                            <g id="Group_1056" data-name="Group 1056">
                                <g id="Group_1050" data-name="Group 1050" transform="translate(24.331)">
                                    <g id="Group_1049" data-name="Group 1049">
                                        <path id="Path_1343" data-name="Path 1343"
                                              d="M95.935,93.051H124.6a2.181,2.181,0,0,1,2.181,2.182V110.97a2.181,2.181,0,0,1-2.181,2.182H115.29l-.02,5.35-6.825-5.35H95.935a2.182,2.182,0,0,1-2.182-2.182V95.233A2.182,2.182,0,0,1,95.935,93.051Z"
                                              transform="translate(-93.753 -93.051)" fill="#90a9fc"/>
                                    </g>
                                </g>
                                <g id="Group_1055" data-name="Group 1055" transform="translate(0 13.215)">
                                    <g id="Group_1052" data-name="Group 1052">
                                        <g id="Group_1051" data-name="Group 1051">
                                            <path id="Path_1344" data-name="Path 1344"
                                                  d="M46.112,120.388H81.5a2.692,2.692,0,0,1,2.692,2.692V142.5a2.692,2.692,0,0,1-2.692,2.692H70l-.025,6.6-8.423-6.6H46.112A2.692,2.692,0,0,1,43.42,142.5V123.08A2.692,2.692,0,0,1,46.112,120.388Z"
                                                  transform="translate(-43.42 -120.388)" fill="#fb6d9a"/>
                                        </g>
                                    </g>
                                    <g id="Group_1054" data-name="Group 1054" transform="translate(6.485 5.327)">
                                        <g id="Group_1053" data-name="Group 1053">
                                            <rect id="Rectangle_1179" data-name="Rectangle 1179" width="27.635"
                                                  height="2.256" fill="#faf9fc"/>
                                            <rect id="Rectangle_1180" data-name="Rectangle 1180" width="27.635"
                                                  height="2.256" transform="translate(0 5.64)" fill="#faf9fc"/>
                                            <rect id="Rectangle_1181" data-name="Rectangle 1181" width="27.635"
                                                  height="2.256" transform="translate(0 11.441)" fill="#faf9fc"/>
                                        </g>
                                    </g>
                                </g>
                            </g>
                        </g>
                    </g>
                </g>
                <g id="Group_1060" data-name="Group 1060" transform="translate(4.75 9.726)">
                    <path id="Path_1345" data-name="Path 1345"
                          d="M318.05,199.631a2.02,2.02,0,1,1-2.02-2.02A2.02,2.02,0,0,1,318.05,199.631Z"
                          transform="translate(-187.173 -156.792)" fill="none" stroke="#5c377e" stroke-miterlimit="10"
                          stroke-width="1" stroke-dasharray="3"/>
                    <path id="Path_1346" data-name="Path 1346" d="M191.674,156.363V113.171h8.668"
                          transform="translate(-124.33 -113.171)" fill="none" stroke="#5c377e" stroke-miterlimit="10"
                          stroke-width="1" stroke-dasharray="3"/>
                    <path id="Path_1347" data-name="Path 1347" d="M350.4,256.57V242.379h28.692V222.942"
                          transform="translate(-205.707 -169.878)" fill="none" stroke="#5c377e" stroke-miterlimit="10"
                          stroke-width="1" stroke-dasharray="3"/>
                    <path id="Path_1348" data-name="Path 1348" d="M66.663,220.07H53.247V266.5h7.4"
                          transform="translate(-53.247 -168.395)" fill="none" stroke="#5c377e" stroke-miterlimit="10"
                          stroke-width="1" stroke-dasharray="3"/>
                    <path id="Path_1349" data-name="Path 1349"
                          d="M178.58,304.679a2.02,2.02,0,1,1-2.02-2.02A2.02,2.02,0,0,1,178.58,304.679Z"
                          transform="translate(-115.542 -211.06)" fill="none" stroke="#5c377e" stroke-miterlimit="10"
                          stroke-width="1" stroke-dasharray="3"/>
                </g>
            </g>
            <g id="Group_1065" data-name="Group 1065" transform="translate(117.269)">
                <path id="Path_1350" data-name="Path 1350"
                      d="M284.408,147.61c.024.072,1.106,1.251.716,1.671-.352.38-1.6.223-2.1.1a32.19,32.19,0,0,0-3.67.143,8.174,8.174,0,0,1-2.369-.43,42.272,42.272,0,0,0-5.467-.191,39.273,39.273,0,0,0,4.178-1.408,33.878,33.878,0,0,0,2.882-2.163l3.874-.8Z"
                      transform="translate(-270.174 -106.401)" fill="#90a9fc"/>
                <path id="Path_1351" data-name="Path 1351"
                      d="M270.112,153.068a2.981,2.981,0,0,0-.68.2,2.06,2.06,0,0,0-.645.824,1.43,1.43,0,0,0,.144,1.083c.556.935,2.883,1.467,3.939,1.548,1.071.083,4.3-.107,4.3-.107l5.711-1.486.877-1.754s-3.722-.654-4.977-.734c-1.506-.1-6.034.107-6.034.107Z"
                      transform="translate(-268.739 -110.576)" fill="#515f8e"/>
                <path id="Path_1352" data-name="Path 1352"
                      d="M296.325,113.768s-1.408-.453-1.934-.669a1.887,1.887,0,0,1-.74-.549l-5.9-8.164s-.25-.418.322-.3c1.5.313,5.395,1.3,5.848,1.91,1.291,1.733,3.641,4.858,3.641,4.858Z"
                      transform="translate(-278.534 -85.498)" fill="#fb6d9a"/>
                <path id="Path_1353" data-name="Path 1353"
                      d="M312.776,122.624s-9.439-5.447-12.64-7.162c-2.005-1.074-3.044.036-3.044.036s-4.324,5.043-5.872,6.625c-.673.687-2.127,1.965-2.722,2.721-1.01,1.285-3.4,5.586-3.4,5.586a11.141,11.141,0,0,1,2.291-.163c1.184.213,4.253,2.341,4.253,2.341s.5-.637.617-.817c.459-.7,1.069-2.274,1.575-2.936.8-1.046,2.909-2.676,3.832-3.616a8.265,8.265,0,0,0,.981-1.318,12.9,12.9,0,0,0,.487-1.224s1.516,2.126,2.112,2.757c.746.789,3.294,2.829,3.294,2.829Z"
                      transform="translate(-277.189 -91.143)" fill="#3b264f"/>
                <path id="Path_1354" data-name="Path 1354"
                      d="M321.377,88.159a6.5,6.5,0,0,1-2.686,2.22c-1.407.581-3.821,1.388-5.049,2.041-.267.142-1.046.694-1.046.694a4.518,4.518,0,0,1-1.722-.423c-1.767-1.136-2.507-4.233-1.6-8.291.191-.855.681-3.437.681-3.437a11.481,11.481,0,0,1-.788-1.719,13.858,13.858,0,0,1,0-2.292,2.8,2.8,0,0,1,.251-.966,3.339,3.339,0,0,1,1.79-.645,8.505,8.505,0,0,1,1.074.144l.179-.287.609-3.115s.1-.609.537-.5c.322.079.322.609.322.609s-.126,4.349-.412,5.765c-.146.723-.949,2.793-.949,2.793s.658,6.422.716,6.409c2.172-.466,2.247-.354,2.9-.716a15.623,15.623,0,0,0,1.635-1.325Z"
                      transform="translate(-289.478 -68.709)" fill="#fdc9d9"/>
                <path id="Path_1355" data-name="Path 1355"
                      d="M327.006,112.895l-1.289,4.488-4.631,3.294-2.483,3.915a35.964,35.964,0,0,1-4.679-1.432c-1.88-.962-6.732-5.108-6.732-5.108a5.228,5.228,0,0,0-.919.012c-.24.059-.686.348-.907.393a4.129,4.129,0,0,1-2.065-.2,4.266,4.266,0,0,1-1.414-1.378c-.083-.172-.11-.571-.209-.734-.292-.483-1.4-1.042-1.635-1.558-.141-.315,0-.448,0-.448s-.778-.375-.949-.752c-.369-.814.272-.771.532-.76.914.036,2.336,1,3.191,1.011a1.873,1.873,0,0,0,.537-.233,7.348,7.348,0,0,1-1.038-.609c-.149-.137-.575-.493-.466-.663.185-.287.634-.213.842-.161.491.124,1.344.722,1.826.877a12.379,12.379,0,0,1,1.838.62,8.609,8.609,0,0,1,1.259,1.224l4.153,2.274,7.221,2.214.448-3.277,1.588-5.275Z"
                      transform="translate(-284.363 -88.887)" fill="#fdc9d9"/>
                <path id="Path_1356" data-name="Path 1356"
                      d="M294.5,152.885l-8.422,2.625-1.981.5s-1,.788.382,2.339c.87.975,3.486,1.91,4.774,2.125a8.572,8.572,0,0,0,2.2.1c.609-.111,1.816-.591,2.434-.74.949-.229,3.041-.029,3.867-.549a3.6,3.6,0,0,0,.788-1.384c.146-.354.562-1.911.562-1.911Z"
                      transform="translate(-276.493 -110.717)" fill="#90a9fc"/>
                <path id="Path_1357" data-name="Path 1357"
                      d="M347.492,103.123c-.031-.363.089-1.1.024-1.456-.056-.307-.411-.846-.5-1.146-.142-.471-.067-1.482-.191-1.957a8.667,8.667,0,0,0-.835-1.623c-.523-.878-1.615-2.61-2.053-3.533a9.576,9.576,0,0,0-.764-1.6,13.855,13.855,0,0,0-2.888-2.1,4.759,4.759,0,0,1-1.1-.764c-.172-.221-.3-.791-.453-1.027a5.014,5.014,0,0,0-.764-.668l-8.5,3.342a3.814,3.814,0,0,0-.979.812,16.41,16.41,0,0,0-1.122,1.814,5.989,5.989,0,0,0,2.125,2.984,2.053,2.053,0,0,0,.835.334,5.127,5.127,0,0,0,.621-.024,6.169,6.169,0,0,1,.746.985c.1.233.094.732.2.985.24.588,1.333,1.386,1.635,1.945.208.385.156,1.319.334,1.719a1.563,1.563,0,0,0,.262.286l.064,1.957.461-2.124s.577-.816.812-1.05a4.387,4.387,0,0,1,2.388-1.122,6.955,6.955,0,0,1,1.718.024,3.087,3.087,0,0,1,1.862,1.194c.064.123-.146.462-.146.462l-.665,2.833a5.688,5.688,0,0,1,.835.453,14.373,14.373,0,0,1,2.841,3.82,34.559,34.559,0,0,1,1.05,4.153l1.6,1.48s.44-1.422.525-1.909a16.651,16.651,0,0,0,.167-2.172c0-.854-.167-3.413-.167-3.413a2.043,2.043,0,0,0,.239-.5,2.546,2.546,0,0,0-.191-.669,3.189,3.189,0,0,0,.215-.549A13.57,13.57,0,0,0,347.492,103.123Z"
                      transform="translate(-299.026 -76.809)" fill="#90a9fc"/>
                <path id="Path_1358" data-name="Path 1358"
                      d="M344.119,106.538s-.019-.31-.052-.854c-.013-.272-.025-.6-.03-.982a7.218,7.218,0,0,1,.073-1.281,5.979,5.979,0,0,1,.533-1.424,10.939,10.939,0,0,1,.849-1.465,3.64,3.64,0,0,1,1.3-1.278,5.444,5.444,0,0,1,.864-.379,2.332,2.332,0,0,1,.965-.144,3.538,3.538,0,0,1,1.78.631,4.778,4.778,0,0,1,1.19,1.384,7.406,7.406,0,0,1,.8,1.5,3.363,3.363,0,0,1,.016,1.529,6.893,6.893,0,0,1-.316,1.241,3.25,3.25,0,0,1-.473.863c-.146.23-.281.4-.368.515l-.135.178.126-.184c.082-.121.207-.292.342-.529a3.186,3.186,0,0,0,.425-.87,8.158,8.158,0,0,0,.264-1.234,5.047,5.047,0,0,0,.057-.713,2.128,2.128,0,0,0-.018-.376,1.636,1.636,0,0,0-.087-.363,8.156,8.156,0,0,0-.809-1.442,4.569,4.569,0,0,0-1.146-1.316,3.3,3.3,0,0,0-1.679-.575,3.38,3.38,0,0,0-1.692.481,3.431,3.431,0,0,0-1.24,1.2,12.822,12.822,0,0,0-.864,1.424,5.894,5.894,0,0,0-.557,1.372,8.694,8.694,0,0,0-.118,1.254c-.013.378-.016.708-.016.98Z"
                      transform="translate(-307.638 -82.737)" fill="#6c7fbd"/>
                <path id="Path_1359" data-name="Path 1359"
                      d="M340.317,97.743s-.177.923-.227,1.193c-.021.115-.059.358.144.442.234.1.982-.464.982-.464Z"
                      transform="translate(-305.589 -82.231)" fill="#6c7fbd"/>
                <g id="Group_1062" data-name="Group 1062" transform="translate(17.765 27.793)">
                    <path id="Path_1360" data-name="Path 1360"
                          d="M305.489,137.578a8.217,8.217,0,0,0,3.51,3.831,3.5,3.5,0,0,0,1.05.048,4.124,4.124,0,0,1,.787-.644,4.438,4.438,0,0,1,.669-.024,3.88,3.88,0,0,0,1.48-.74c.2-.18.258-.528.393-.666,1.362-1.381,5.431-2.261,7.15-3.01.866-.378,3.414-1.623,3.414-1.623a28.019,28.019,0,0,0,.955,2.745,5.069,5.069,0,0,0,4.034,2.387,8.007,8.007,0,0,0,4.894-.979,4.352,4.352,0,0,0,1.957-3.1,7.617,7.617,0,0,0-.143-2.673,58.091,58.091,0,0,0-3.842-8.841c-.44-.747-2.484-1.138-2.484-1.138a10.722,10.722,0,0,0-2.554.31c-1.745.452-3.983,3.815-5.538,4.727-.216.126-.726.218-.937.352a4.774,4.774,0,0,0-.543.531s-4.976,2.747-6.612,3.7c-1.041.606-3.1,1.877-4.2,2.363-.474.209-1.481.49-1.934.74A13,13,0,0,0,305.489,137.578Z"
                          transform="translate(-305.489 -123.147)" fill="#3b264f"/>
                    <path id="Path_1361" data-name="Path 1361"
                          d="M350.515,132.555a12.361,12.361,0,0,1-.746,1.372c-.246.4-.554.852-.908,1.319a18.156,18.156,0,0,1-1.184,1.407c-.221.223-.433.454-.661.663s-.448.418-.677.6-.444.37-.667.524-.421.314-.626.431a8.849,8.849,0,0,1-.993.551c-.246.12-.389.182-.389.182s.122-.1.34-.262c.108-.082.243-.175.391-.292s.306-.26.487-.4.361-.319.563-.487.4-.367.611-.562.416-.411.634-.62.422-.439.635-.659c.424-.444.829-.907,1.206-1.344s.72-.854,1.014-1.213.542-.658.705-.875Z"
                          transform="translate(-325.21 -128.007)" fill="#6c7fbd" opacity="0.4"/>
                </g>
                <g id="Group_1064" data-name="Group 1064" transform="translate(32.481 7.777)">
                    <path id="Path_1362" data-name="Path 1362"
                          d="M336.046,86.97a34,34,0,0,1,3.008,3.688,10.519,10.519,0,0,0,1.253-.985c.541-.632,1.176-2.2,1.629-2.9.241-.37.906-.938.922-1.361.019-.487-.654-1.056-.725-1.718s-1.88-1.952-1.88-1.952l-1.45,1.5S335.251,86.127,336.046,86.97Z"
                          transform="translate(-335.93 -81.742)" fill="#fdc9d9"/>
                    <g id="Group_1063" data-name="Group 1063" clip-path="url(#clip-path)">
                        <ellipse id="Ellipse_114" data-name="Ellipse 114" cx="9.346" cy="7.663" rx="9.346" ry="7.663"
                                 transform="translate(-13.115 -7.341)" fill="#fb6d9a" opacity="0.3"/>
                    </g>
                </g>
                <path id="Path_1364" data-name="Path 1364"
                      d="M327.663,69.694a5.448,5.448,0,0,1,.119-1.36,6.131,6.131,0,0,1,2.363-2.28,5.8,5.8,0,0,1,8.146,4.887c-.006,1.48-.292,4.148-.292,4.148l-.1.5a2.883,2.883,0,0,1-.835-.239,3.216,3.216,0,0,1-.454-.859l-.453-.478Z"
                      transform="translate(-299.178 -65.653)" fill="#590620"/>
                <path id="Path_1365" data-name="Path 1365"
                      d="M331.118,71.108c-.33-.47-1.737-.316-2.292-.167a2.836,2.836,0,0,0-1.838,1.5,7.986,7.986,0,0,0-.161,1.474c.047.351.45.948.448,1.289,0,.458-.92,1.317-.872,1.772.03.286.731.513.919.74.068.082.068.313.119.406a1.945,1.945,0,0,0,.382.334,5.654,5.654,0,0,1,.42,1.426c.043.338-.051,1.3.025,1.558a1.326,1.326,0,0,0,1.2.752,7.239,7.239,0,0,0,1.934-.466,6.587,6.587,0,0,0,2.65-1.635,4.6,4.6,0,0,0,.573-2.757,6.842,6.842,0,0,0,.883-.669,1.694,1.694,0,0,0,.382-.692c.033-.486-.151-1.617-.573-1.862a1.123,1.123,0,0,0-.907.1c-.24.192-.347.729-.585.776-.388.077-.912-.685-1.253-.967-.386-.319-1.3-.865-1.5-1.325C330.912,72.331,331.346,71.433,331.118,71.108Z"
                      transform="translate(-298.527 -68.308)" fill="#fdc9d9"/>
                <path id="Path_1366" data-name="Path 1366"
                      d="M330.652,101.2s.129.171.3.439a4.306,4.306,0,0,0,.3.44,5.137,5.137,0,0,0,.359.483,6.035,6.035,0,0,0,.386.464c.123.149.254.273.362.387s.2.2.277.258l.11.1a2.351,2.351,0,0,1-.473-.248,3.99,3.99,0,0,1-.427-.343,3.5,3.5,0,0,1-.424-.464,3.267,3.267,0,0,1-.351-.523,2.979,2.979,0,0,1-.24-.489C330.711,101.4,330.652,101.2,330.652,101.2Z"
                      transform="translate(-300.723 -84.016)" fill="#6c7fbd"/>
            </g>
            <g id="Group_1068" data-name="Group 1068" transform="translate(110.741 100.377)">
                <path id="Path_1367" data-name="Path 1367"
                      d="M266.763,374.4a41.049,41.049,0,0,1-5.11-.54,14.973,14.973,0,0,0-1.755-.637,20.612,20.612,0,0,0-3.895.6s-1.176.54-1.388,1.388a2.9,2.9,0,0,0,.366,1.774,6.225,6.225,0,0,0,2.159,1.176,16.764,16.764,0,0,0,2.835.829c1.42.136,4.262-.457,5.688-.444a14.7,14.7,0,0,1,1.619.251Z"
                      transform="translate(-254.589 -325.477)" fill="#fb6d9a"/>
                <path id="Path_1368" data-name="Path 1368"
                      d="M314.456,343.343c1.813-1.5,2.434-6.234,3.539-8.166a2.743,2.743,0,0,1,.395-.4l1.813,7.6,1.465,3.586,7.829-3.432,2.121-2.006s-2.179-.559-2.275-1.5c-.328-3.209-3.9-8.658-5.669-11.068a38.972,38.972,0,0,0-2.931-3.008l-3.393-.772a5.5,5.5,0,0,0-.81.212A8.267,8.267,0,0,0,315,325.564a10.867,10.867,0,0,0-1.485,1.8,27.165,27.165,0,0,0-.983,2.748c-1.148,2.959-3.944,8.671-5.4,11.492-.218.422-.759,1.526-.848,1.7-.723,1.388.193,1.7.193,1.7S312.888,344.644,314.456,343.343Z"
                      transform="translate(-281.149 -300.142)" fill="#463852"/>
                <path id="Path_1369" data-name="Path 1369"
                      d="M279.114,375.512l-1,.1a2.434,2.434,0,0,0-1.079,1.138,3.43,3.43,0,0,0,.077,1.928,3.027,3.027,0,0,0,.945,1.041,9.228,9.228,0,0,0,1.774.4Z"
                      transform="translate(-266.129 -326.662)" fill="#fdc9d9"/>
                <path id="Path_1370" data-name="Path 1370"
                      d="M285.078,381.548a6.485,6.485,0,0,0,2.2.636,36.978,36.978,0,0,0,5.457-.058c.744-.1,2.188-.542,2.931-.656,1.012-.154,3.074-.072,4.088-.212a2.158,2.158,0,0,0,.868-.289s-.041-2.452-.521-3.066c-.576-.738-3.278-1.234-3.278-1.234l-8.6,1.716-3.143,1.215Z"
                      transform="translate(-270.339 -327.26)" fill="#fb6d9a"/>
                <path id="Path_1371" data-name="Path 1371"
                      d="M324.908,372.59s-1.844,1.312-2.487,1.706a8.016,8.016,0,0,1-1.649.9,28.743,28.743,0,0,1-9.718-.145c-3.39-.776-13.044-4.83-13.044-4.83a5.367,5.367,0,0,1-.926.318,4.322,4.322,0,0,1-.781-.116,7.406,7.406,0,0,1-.9,1.012,10.847,10.847,0,0,1-3.239,1.243,18.011,18.011,0,0,1-3.991.232c-.6-.074-1.721-.542-2.314-.636-.7-.112-2.292-.456-2.834,0-.323.272-.376,1.648-.376,1.648a2.968,2.968,0,0,1-1.012-.087,4.787,4.787,0,0,1-1.3-2.661c-.318-2.256.281-2.594.993-2.825a12.279,12.279,0,0,1,1.436-.3c.087,0,1.562-.752,2.112-.925,1.017-.322,3.243-.3,4.194-.781.442-.224,1.006-1.1,1.388-1.417a27.249,27.249,0,0,1,3.384-1.764c.4-.218,1.061-.916,1.5-1.012,3.37-.733,10.117,2.089,13.536,2.458a4.492,4.492,0,0,0,1.62-.145,11.577,11.577,0,0,0,2.43-1.706c.248-.221.954-.925.954-.925l11.714,5.206Z"
                      transform="translate(-267.845 -319.594)" fill="#564665"/>
                <path id="Path_1372" data-name="Path 1372"
                      d="M327.214,306.753a2.6,2.6,0,0,1-.9-1.417,2.642,2.642,0,0,1,.116-1.417c.7-1.207,4.281-3.6,4.281-3.6L339,294.77l1.813-1.967a17.423,17.423,0,0,1,2.719-1.118,11.548,11.548,0,0,1,1.948.1l.27,2.083s-.487.192-.641.135c-.131-.048-.235-.306-.347-.289-.136.021-.227.5-.227.5l.6.308.559,1.292.463,1.543a7.091,7.091,0,0,1-1.543.733,12.538,12.538,0,0,1-2.97-.579s-1.191.513-1.562.733a33.8,33.8,0,0,0-3.736,2.858c-.551.483-2.068,2.078-2.068,2.078l-.27,2.063-4.377,1.427A6.365,6.365,0,0,1,327.214,306.753Z"
                      transform="translate(-291.621 -283.346)" fill="#fdc9d9"/>
                <rect id="Rectangle_1182" data-name="Rectangle 1182" width="8.715" height="4.859" rx="0.957"
                      transform="translate(50.682 12.945) rotate(-60.695)" fill="#49335c"/>
                <path id="Path_1373" data-name="Path 1373"
                      d="M380,287.713a7.308,7.308,0,0,1,.058,2.564,1.488,1.488,0,0,0,1.7-.077,19.866,19.866,0,0,0,3.336-3.259,8.558,8.558,0,0,0,1.465-3.51,8.312,8.312,0,0,0-2.063-5.283,13.558,13.558,0,0,0-6.633-3.683c-.536-.071-1.08.27-1.659,1.388a6.625,6.625,0,0,0-.231,2.275l1.35,7.771S379.614,287,380,287.713Z"
                      transform="translate(-317.289 -274.458)" fill="#4a4a4a"/>
                <path id="Path_1374" data-name="Path 1374"
                      d="M394.1,356.34c-2.116,2.791,1.716,9.709,2.748,14.23a4.907,4.907,0,0,0,1.841,2.189,15.415,15.415,0,0,0,2.97.154c.592.075,1.849.633,2.43.424a.584.584,0,0,0,.279-.337,1.929,1.929,0,0,0-.145-.55l4.339.029a.665.665,0,0,0-.2-.81,8.553,8.553,0,0,0-2.835-1.273,11.554,11.554,0,0,0-2.574-.289c-.3.025-.881.3-1.186.289a9.761,9.761,0,0,1-2.227-.81s-.489-2.029-.578-2.719c-.135-1.041-.039-3.157-.2-4.194a49.916,49.916,0,0,0-1.5-5l.319-.752S394.738,355.5,394.1,356.34Z"
                      transform="translate(-326.335 -316.62)" fill="#fdc9d9"/>
                <path id="Path_1375" data-name="Path 1375"
                      d="M348.312,308.555a13.384,13.384,0,0,0-1.89-.424,6.372,6.372,0,0,0-2.642.521c-.3.182-.685.831-.983,1.022a9.1,9.1,0,0,1-2.16.54,3.5,3.5,0,0,0-1.253-.212c-.181.061-.521.559-.521.559s-.434-.046-.579-.039c-.283.014-.836.16-1.119.193-.546.062-2.2.038-2.2.038s-1.265,1.87-1.928,2.16a7.364,7.364,0,0,1-3.47.714c-.361.054-.949.6-1.311.636a1.727,1.727,0,0,1-.54-.193,5.22,5.22,0,0,0,1.427,1.543c.652.469,2.4.26,3.2.27,1.792.022,3.239.887,7.134.732a15.877,15.877,0,0,0,1.7-.308,2.049,2.049,0,0,1,.308.386,9.065,9.065,0,0,1,.077,2.005,19.75,19.75,0,0,0,.579,3.278c.133.463.559,1.34.655,1.813.177.87.056,2.662.115,3.548.033.487.492,1.476.308,1.928-.165.406-1.08.755-1.465.964a22.386,22.386,0,0,1-2.121.926,7.911,7.911,0,0,0-1,.347c-1,.6-.526,1.865-.193,2.352a28.7,28.7,0,0,0,4.165,4.319c1.345,1.111,3.933,1.639,5.63,4.126a15.272,15.272,0,0,0,1.157,1.851,6.553,6.553,0,0,0,2.622,1.543c.553.077,1.828.031,2.2-.385.247-.277.133-1.108.232-1.466a15.254,15.254,0,0,1,1.041-1.7c.6-1.266.917-4.116,1.388-5.438.284-.8,1.253-2.207,1.619-2.969.209-.434.656-1.813.656-1.813l.347.077s1.158-.009,1.543-.039a6.719,6.719,0,0,0,1.986-.424,7.008,7.008,0,0,0,.579-.4l.019-2.883a1.713,1.713,0,0,0,.347-.424,4.738,4.738,0,0,0-.231-1.311,19.955,19.955,0,0,1,.116-2.7,2.271,2.271,0,0,0,.347-.578,4.844,4.844,0,0,0-.347-1.35c-.327-1.281-.655-5.245-.655-5.245a9.053,9.053,0,0,0-.116-2.7c-.636-1.346-4.435-3.972-4.435-3.972a4.645,4.645,0,0,0-.347-.617c-.112-.131-.414-.307-.539-.424a12.261,12.261,0,0,0-1.157-1.234.942.942,0,0,1-.318-.408l-.594-1.118Z"
                      transform="translate(-292.367 -290.845)" fill="#fb6d9a"/>
                <g id="Group_1067" data-name="Group 1067" transform="translate(53.939 12.099)">
                    <path id="Path_1376" data-name="Path 1376"
                          d="M366.942,301.453a5.69,5.69,0,0,1,.906,1.234,11.082,11.082,0,0,1-.058,2.179c0,.564.28,1.673.289,2.237a5.589,5.589,0,0,1-.25,1.812c-.181.4-.788,1-.935,1.388a13.478,13.478,0,0,0-.125,1.832,10.646,10.646,0,0,1-.6,1.524,15.576,15.576,0,0,0,1.986-1.89c.262-.4.516-1.358.8-1.74.207-.274.849-.676,1.056-.969a8.886,8.886,0,0,0,.492-1.379,14.166,14.166,0,0,1,1.543-2.661,10.438,10.438,0,0,1,3.493-2.3l-.408-3.236Z"
                          transform="translate(-366.17 -299.486)" fill="#fdc9d9"/>
                    <g id="Group_1066" data-name="Group 1066" clip-path="url(#clip-path-2)">
                        <ellipse id="Ellipse_115" data-name="Ellipse 115" cx="7.443" cy="3.934" rx="7.443" ry="3.934"
                                 transform="translate(-4.583 -3.496) rotate(-5.466)" fill="#fb6d9a" opacity="0.2"/>
                    </g>
                </g>
                <path id="Path_1378" data-name="Path 1378"
                      d="M387.806,337.56l-.7-.13H387.1l0-.009-.687-2.657c-.219-.888-.445-1.774-.692-2.654l-.7-2.65-.35-1.325a11.963,11.963,0,0,0-.391-1.31l-.449-1.3-.221-.654a5.177,5.177,0,0,1-.141-.679c-.032-.228-.03-.468-.046-.7s.018-.464.027-.7a8.858,8.858,0,0,1,.224-1.366,6.264,6.264,0,0,1,.185-.667,5.138,5.138,0,0,1,.233-.651,4.528,4.528,0,0,1,.288-.629l.16-.307.2-.285a4.493,4.493,0,0,1,.967-.983,4.914,4.914,0,0,1,1.208-.65,4.88,4.88,0,0,0-1.172.7,4.4,4.4,0,0,0-.908,1l-.185.283-.15.3a4.369,4.369,0,0,0-.268.624,4.979,4.979,0,0,0-.214.644,5.935,5.935,0,0,0-.166.659,9.916,9.916,0,0,0-.194,1.342c-.006.225-.028.452-.021.675s.015.442.048.666a5.023,5.023,0,0,0,.143.661l.224.644.457,1.291a10.544,10.544,0,0,1,.387,1.319l.341,1.33.68,2.662c.455,1.774.824,3.566,1.216,5.354l-.011-.011Z"
                      transform="translate(-321.14 -296.567)" fill="#49335c"/>
                <path id="Path_1379" data-name="Path 1379"
                      d="M355.9,321.905s-.055-.355-.081-.893a8.44,8.44,0,0,1,0-.924,2.447,2.447,0,0,1,.087-.543,2.325,2.325,0,0,1,.273-.485c.435-.587.938-1.087,1.245-1.518a2.244,2.244,0,0,0,.318-.548,1.334,1.334,0,0,0,.063-.235,1.081,1.081,0,0,1-.018.248,1.932,1.932,0,0,1-.249.61,7.379,7.379,0,0,1-.525.762c-.2.267-.436.539-.639.823a2.017,2.017,0,0,0-.255.437c-.013.064-.036.153-.056.227l-.034.246c-.04.326-.066.638-.079.9C355.922,321.548,355.9,321.905,355.9,321.905Z"
                      transform="translate(-306.878 -296.309)" fill="#5c377e"/>
                <path id="Path_1380" data-name="Path 1380"
                      d="M370.182,281.789a6.081,6.081,0,0,0-2.95,2.082c-.16.256-.181.9-.347,1.157a4.263,4.263,0,0,1-1.417,1.1c-.148.069-.514.192-.55.347-.06.264.37.6.492.839a2.767,2.767,0,0,1,.087.723,1.036,1.036,0,0,0-.188.232,1.7,1.7,0,0,0,.044.492,1.924,1.924,0,0,0-.492.376c-.122.231.025.794-.058,1.041s-.617.463-.694.781c-.174.717.55,1.155.926,1.273,1.205.377,4.027.864,5.293.463a8.817,8.817,0,0,0,1.764-1.3s1.04.11,1.388.115a2.582,2.582,0,0,0,1.909-.694,1.7,1.7,0,0,0,.463-.752,1.224,1.224,0,0,0-.521-1.244,3.631,3.631,0,0,0-2.459.087,2.7,2.7,0,0,0-.448.535s-.651-.369-.694-.593c-.113-.583.83-1.587.969-2.17.1-.434-.073-1.382.13-1.779.243-.475,1.351-.853,1.591-1.33a.949.949,0,0,0-.1-.709C373.631,282.04,371.232,281.6,370.182,281.789Z"
                      transform="translate(-311.152 -278.222)" fill="#fdc9d9"/>
            </g>
        </g>
    </g>
</svg>
